<svg width="679" height="163" viewBox="0 0 679 163" fill="none" xmlns="http://www.w3.org/2000/svg">
<path d="M139.788 135.645L138.798 141.287C136.423 141.485 134.344 141.584 132.563 141.584C129.99 141.584 126.889 141.386 123.26 140.99C117.057 140.33 113.131 140 111.482 140C108.711 140 104.455 140.429 98.7146 141.287C100.76 136.14 102.475 130.73 103.861 125.055C104.851 121.03 105.907 114.102 107.028 104.271C99.3084 104.205 87.3328 104.37 71.1015 104.766C54.3422 130.367 42.0367 146.433 34.185 152.965C26.3992 159.563 18.9763 162.862 11.9163 162.862C8.2214 162.862 5.48318 162.137 3.70169 160.685C1.85422 159.299 0.930479 157.485 0.930479 155.242C0.930479 153.526 1.45833 152.108 2.51403 150.986C3.56973 149.864 4.88935 149.303 6.4729 149.303C7.39663 149.303 8.65028 149.468 10.2338 149.798C14.1927 150.722 16.8319 151.184 18.1516 151.184C22.5723 151.184 27.4549 148.677 32.7994 143.662C41.5089 135.48 54.3752 118.325 71.3984 92.1966C90.6649 62.6371 106.269 41.1272 118.212 27.6671C101.915 29.1186 91.7536 30.5042 87.7287 31.8239C82.1863 33.6054 78.0295 36.2446 75.2583 39.7416C72.4871 43.2386 71.1015 46.8016 71.1015 50.4306C71.1015 51.6182 71.5303 53.3007 72.3881 55.4781C73.3118 57.9194 73.7737 59.7009 73.7737 60.8226C73.7737 62.2742 73.2129 63.5608 72.0912 64.6825C70.9695 65.8042 69.6169 66.365 68.0333 66.365C65.79 66.365 63.9755 65.5403 62.5899 63.8907C61.2703 62.1752 60.6104 59.6349 60.6104 56.2699C60.6104 51.5193 61.8311 46.9336 64.2724 42.5128C66.7797 38.0261 70.3427 34.2982 74.9614 31.329C79.58 28.2939 85.3534 25.9845 92.2814 24.401C95.8444 23.5432 102.113 22.7845 111.086 22.1246C118.872 21.4648 123.754 20.838 125.734 20.2442C128.835 19.3864 131.804 17.7039 134.641 15.1966C132.662 23.3123 131.243 30.4053 130.386 36.4755L122.666 93.6812L118.212 134.656C123.095 135.909 127.482 136.536 131.375 136.536C133.949 136.536 136.753 136.239 139.788 135.645ZM107.919 96.9473C111.086 70.1589 114.253 50.5955 117.42 38.257C109.041 49.3419 103.861 56.3359 101.882 59.239L76.4459 96.9473C81.9224 97.1452 89.7411 97.2442 99.9022 97.2442C102.41 97.2442 105.082 97.1452 107.919 96.9473ZM200.458 45.0861L201.645 40.3354C209.167 39.8076 217.283 38.488 225.992 36.3766C223.683 43.1726 222 48.6491 220.945 52.8059L215.6 74.8766C227.279 74.8766 236.054 71.9734 241.927 66.1671C247.865 60.2947 250.834 53.3337 250.834 45.284C250.834 39.6756 248.69 35.1559 244.401 31.7249C240.178 28.2939 233.844 26.5784 225.398 26.5784C213.456 26.5784 202.074 29.4156 191.253 35.0899C180.432 40.7643 171.987 48.1872 165.916 57.3586C159.912 66.464 156.91 75.6024 156.91 84.7738C156.91 87.281 157.24 89.6234 157.9 91.8008C158.625 93.9122 159.648 95.8586 160.968 97.6401C161.76 98.6958 163.508 100.147 166.213 101.995C169.248 104.106 171.129 105.69 171.855 106.745C172.58 107.735 172.943 108.923 172.943 110.308C172.943 111.694 172.416 112.915 171.36 113.97C170.37 114.96 169.149 115.455 167.698 115.455C163.937 115.455 160.11 112.717 156.217 107.24C152.39 101.764 150.477 95.0008 150.477 86.9511C150.477 75.8663 153.776 65.1444 160.374 54.7853C167.038 44.3603 176.44 36.0137 188.581 29.7455C200.721 23.4773 214.083 20.3431 228.664 20.3431C240.541 20.3431 249.548 22.6855 255.684 27.3701C261.886 32.0548 264.987 37.7622 264.987 44.4923C264.987 50.8924 262.909 56.7318 258.752 62.0103C254.595 67.2228 248.294 71.2476 239.848 74.0848C245.655 75.0085 250.24 76.5921 253.605 78.8355C256.97 81.0128 259.544 83.784 261.325 87.1491C263.173 90.5141 264.096 94.374 264.096 98.7288C264.096 105.855 261.985 112.618 257.762 119.018C253.605 125.352 247.436 130.631 239.254 134.853C231.139 139.01 222.66 141.089 213.819 141.089C211.245 141.089 205.736 140.825 197.29 140.297C193.266 140.099 189.043 140 184.622 140C177.892 140 171.921 140.528 166.708 141.584L168.193 136.14C175.121 135.744 180.036 134.095 182.94 131.192C185.909 128.222 188.68 121.723 191.253 111.694L205.901 54.1915C206.495 51.7502 206.792 49.9027 206.792 48.6491C206.792 47.6594 206.363 46.8016 205.505 46.0758C204.713 45.284 203.691 44.8881 202.437 44.8881C201.909 44.8881 201.249 44.9541 200.458 45.0861ZM214.017 80.8149L208.969 100.708C206.396 111.001 203.922 118.919 201.546 124.461C200.161 127.76 198.379 130.565 196.202 132.874C202.14 134.326 207.254 135.051 211.542 135.051C223.089 135.051 231.799 131.488 237.671 124.362C243.609 117.236 246.578 109.286 246.578 100.51C246.578 96.1555 245.457 92.4276 243.213 89.3265C241.036 86.1594 238.133 83.949 234.504 82.6954C230.941 81.4417 224.112 80.8149 214.017 80.8149ZM347.629 21.5308C355.942 21.5308 363.431 23.4773 370.095 27.3701C376.825 31.1971 382.038 36.7065 385.733 43.8984C389.428 51.0244 391.275 59.338 391.275 68.8393C391.275 81.2438 387.943 93.5493 381.279 105.756C374.615 117.962 366.466 127.167 356.833 133.369C347.2 139.571 336.511 142.672 324.766 142.672C311.24 142.672 300.287 138.449 291.907 130.004C283.594 121.558 279.437 110.44 279.437 96.6504C279.437 83.4541 282.769 70.7198 289.433 58.4473C296.097 46.1088 304.279 36.8714 313.978 30.7352C323.677 24.5989 334.894 21.5308 347.629 21.5308ZM340.404 28.6568C332.75 28.6568 325.69 30.9331 319.224 35.4858C312.823 39.9725 307.578 47.0325 303.487 56.6658C299.396 66.2331 297.351 77.3509 297.351 90.0193C297.351 104.535 300.551 115.752 306.951 123.67C313.351 131.521 321.335 135.447 330.902 135.447C338.028 135.447 344.758 133.105 351.093 128.42C357.493 123.736 362.738 116.379 366.829 106.35C370.986 96.2545 373.064 84.6748 373.064 71.6105C373.064 58.0844 369.897 47.5604 363.563 40.0385C357.295 32.4507 349.575 28.6568 340.404 28.6568ZM472.234 21.7288C465.57 33.4734 459.005 48.4181 452.539 66.563C447.986 79.4293 445.71 90.1842 445.71 98.8278C445.71 108.461 448.019 115.95 452.638 121.294C457.322 126.639 463.162 129.311 470.156 129.311C476.754 129.311 482.956 127.662 488.762 124.362C496.482 120.008 503.608 113.377 510.14 104.469C516.738 95.5617 522.116 84.9057 526.273 72.5013C530.429 60.0308 532.508 48.3851 532.508 37.5642C532.508 30.0424 530.891 22.9164 527.658 16.1863C525.943 12.7553 524.986 10.7099 524.788 10.0501C524.524 9.12635 524.392 8.13663 524.392 7.08093C524.392 5.1015 524.986 3.48496 526.174 2.23132C527.427 0.977676 528.945 0.350855 530.726 0.350855C533.827 0.350855 536.269 2.00038 538.05 5.29944C540.623 9.78616 541.91 16.7472 541.91 26.1825C541.91 46.3727 537.489 66.464 528.648 86.4563C519.806 106.449 509.579 120.733 497.967 129.311C486.42 137.889 474.279 142.177 461.545 142.177C451.186 142.177 443.235 138.746 437.693 131.884C432.15 124.956 429.379 116.445 429.379 106.35C429.379 98.036 430.666 89.5244 433.239 80.8149C436.604 69.4001 443.565 52.344 454.122 29.6465C445.874 29.4486 438.485 30.4713 431.952 32.7146C425.42 34.892 420.703 37.6962 417.8 41.1272C414.962 44.5582 413.544 47.9563 413.544 51.3213C413.544 52.7069 414.303 54.5874 415.82 56.9627C417.404 59.6679 418.195 61.7793 418.195 63.2969C418.195 65.2103 417.602 66.7939 416.414 68.0475C415.226 69.3012 413.742 69.928 411.96 69.928C409.783 69.928 407.869 68.9383 406.22 66.9588C404.636 64.9794 403.844 62.4061 403.844 59.239C403.844 54.1585 405.329 49.0779 408.298 43.9974C411.267 38.8509 415.094 34.727 419.779 31.6259C424.53 28.5248 430.369 26.2485 437.297 24.7969C440.728 24.0711 447.854 23.4113 458.675 22.8174C466.065 22.4216 470.584 22.0587 472.234 21.7288ZM628.51 134.359L627.125 140C622.572 140.99 618.844 141.485 615.941 141.485C613.17 141.485 608.584 141.188 602.184 140.594C597.367 140.198 593.045 140 589.219 140C582.62 140 575.824 140.594 568.83 141.781L570.216 136.338C576.88 135.678 581.73 134.293 584.765 132.181C586.942 130.664 588.79 128.09 590.307 124.461C591.891 120.766 595.421 107.966 600.897 86.0604L613.566 33.6054L614.258 31.1311C610.366 30.9991 607.429 30.9331 605.45 30.9331C593.243 30.9331 583.544 32.2528 576.352 34.892C569.226 37.5312 563.849 41.3582 560.22 46.3727C556.657 51.3873 554.875 56.7977 554.875 62.6041C554.875 64.6495 555.238 66.53 555.964 68.2455C556.492 69.4331 557.943 71.3466 560.319 73.9858C562.562 76.4271 563.684 78.6705 563.684 80.7159C563.684 82.4974 563.024 84.015 561.704 85.2686C560.385 86.5223 558.801 87.1491 556.954 87.1491C554.183 87.1491 551.939 85.8295 550.224 83.1902C547.716 79.2973 546.463 74.3487 546.463 68.3444C546.463 60.2947 548.937 52.476 553.886 44.8881C558.9 37.3003 565.762 31.428 574.472 27.2712C583.181 23.1144 593.771 21.036 606.242 21.036C612.18 21.036 621.648 21.8937 634.647 23.6092C643.884 24.7969 650.581 25.3907 654.738 25.3907C658.895 25.3907 661.831 24.6979 663.546 23.3123C665.262 21.9267 666.12 20.0792 666.12 17.7699C666.12 17.308 666.021 16.3843 665.823 14.9987C665.625 13.745 665.526 12.9203 665.526 12.5244C665.526 10.7429 666.12 9.25831 667.307 8.07065C668.495 6.88299 669.914 6.28916 671.563 6.28916C673.542 6.28916 675.159 7.01495 676.413 8.46654C677.732 9.91812 678.392 11.8646 678.392 14.3059C678.392 19.3204 675.72 23.6422 670.375 27.2712C665.031 30.9001 656.09 32.7146 643.554 32.7146C639.067 32.7146 634.284 32.5167 629.203 32.1208C628.543 34.4961 626.465 42.5458 622.968 56.2699L614.357 90.5141L609.112 111.397L603.668 135.249C608.089 135.777 611.751 136.041 614.654 136.041C619.075 136.041 623.694 135.48 628.51 134.359Z" fill="#F2D9B6"/>
</svg>
