<svg width="788" height="813" viewBox="0 0 788 813" fill="none" xmlns="http://www.w3.org/2000/svg">
<path fill-rule="evenodd" clip-rule="evenodd" d="M118.397 306.911C118.828 310.512 123.172 311.114 125.672 312.614C136.695 317.588 148.013 321.937 159.24 326.375C197.841 340.754 131.287 316.516 170.233 329.983C192.891 337.708 216.2 343.408 239.357 349.357C249.39 352.667 282.423 358.368 286.777 365.972C286.614 366.402 286.36 366.919 286.015 367.218C286.015 367.218 286.056 367.111 286.127 367.077C286.127 367.077 286.168 366.969 286.188 366.915C276.2 373.875 257.36 374.103 245.924 374.191C221.462 373.824 197.002 372.231 172.798 369.2C157.252 367.607 140.061 361.954 125.269 370.899C113.285 379.004 106.617 394.158 105.015 408.469C104.327 414.716 104.349 420.924 104.127 427.163C103.844 440.132 96.5532 452.042 87.6059 460.991C82.9394 465.669 77.719 468.295 72.8912 472.482C68.7811 477.678 76.2932 480.156 80.0602 480.908C86.7833 482.718 93.6184 484.08 100.26 486.105C107.793 488.529 115.03 491.885 122.237 495.168C141.205 504.38 166.564 507.419 186.251 496.707C208.687 483.782 219.402 471.389 232.876 449.115C242.308 434.762 264.412 399.182 279.088 393.447C285.893 394.429 285.373 403.747 284.413 409.338C280.924 425.88 269.608 440.01 257.963 451.498C242.637 465.213 225.906 477.291 211.642 492.33C196.952 507.575 184.679 525.148 173.712 543.4C165.02 557.787 157.927 573.148 151.512 588.705C148.29 596.447 145.563 604.868 146.614 613.246C147.756 621.537 153.581 627.857 158.18 634.204C165.247 643.204 173.186 651.737 178.376 662.175C181.295 668.069 183.149 674.481 183.99 681.122C184.539 693.117 189.697 691.879 199.072 688.371C214.81 683.038 230.327 677.069 245.006 668.879C255.924 663.132 266.752 656.859 276.113 648.497C289.067 636.154 298.896 619.988 304.29 602.694C307.986 590.343 308.735 577.366 308.814 564.628C308.884 552.069 308.224 539.603 307.371 527.186C306.748 517.373 306.489 507.514 306.453 497.678C305.61 492.264 304.818 486.868 304.077 481.492C303.385 476.442 302.714 471.338 302.145 466.272C301.661 471.062 301.514 475.119 301.581 477.539C301.218 490.108 301.098 502.648 301.616 515.183C302.625 537.727 304.891 560.317 302.841 582.991C300.686 608.388 286.7 634.152 266.803 649.389C257.129 656.59 246.708 662.096 236.156 667.49C226.627 672.475 216.704 676.512 206.641 680.004C201.107 681.776 195.694 684.452 190.021 685.372C187.038 654.591 171.96 644.888 156.182 622.212C147.76 611.9 153.089 597.835 158.079 586.65C162.104 577.248 166.037 568.547 170.69 559.628C184.301 534.397 200.665 510.148 221.166 490.413C230.194 481.862 239.677 473.791 249.281 466.011C262.494 455.732 274.567 443.423 282.713 428.339C288.075 419.075 291.829 407.789 289.698 397.221C286.956 388.57 279.557 385.03 271.971 391.303C255.764 404.439 244.21 422.714 232.667 440.195C224.545 452.466 217.354 465.641 206.531 475.721C196.48 484.375 185.538 492.937 172.871 496.426C157.277 499.849 140.81 497.785 126.639 491.188C119.432 487.905 112.235 484.442 104.764 481.857C96.1788 478.85 87.1558 477.457 78.4993 474.791C92.0547 466.36 103.885 453.162 108.072 437.068C109.885 430.45 109.491 422.934 109.785 416.354C110.112 400.823 115.73 382.939 129.569 374.676C142.3 368.573 156.393 372.93 169.418 374.304C193.662 377.534 218.193 379.093 242.745 379.678C256.926 379.832 276.242 379.722 288.834 371.847C304.709 356.682 259.027 349.688 250.918 346.8C214.477 337.414 177.802 328.492 142.969 314.251C112.387 302.235 186.207 330.821 155.553 319.146C144.853 314.847 133.778 310.774 123.646 305.584C122.738 303.092 119.567 303.671 118.774 305.764C118.631 306.14 118.57 306.608 118.579 307.041L118.397 306.911Z" fill="#5F9282" fill-opacity="0.4"/>
<path fill-rule="evenodd" clip-rule="evenodd" d="M298.703 417.759C294.97 441.514 299.605 465.186 299.843 488.85C300.046 494.881 299.936 500.979 300.747 506.934C300.958 508.364 302.314 509.369 303.692 509.093C306.853 508.388 305.684 504.752 305.505 502.475C305.009 495.227 305.071 487.884 304.818 480.605C304.71 464.849 297.929 420.719 307.72 409.389C307.629 409.477 307.558 409.511 307.467 409.6C307.7 409.442 307.933 409.285 308.186 409.381C308.237 409.4 308.288 409.419 308.237 409.4C320.053 419.463 326.507 472.554 329.539 490.217C333.026 515.541 336.179 540.984 336.313 566.757C336.522 595.996 336.681 625.523 343.445 653.808C347.814 671.915 354.128 690.084 365.775 704.258C379.121 720.978 390.666 728.852 411.791 732.067C424.986 734.365 438.59 734.362 451.734 736.334C468.261 739.157 484.441 743.507 500.143 749.272C509.203 752.705 512.088 747.536 512.81 738.601C513.774 730.556 515.002 722.427 517.89 714.804C525.253 695.37 540.094 680.182 545.736 660.097C551.694 638.412 551.263 615.105 544.032 594.317C535.081 565.081 516.459 540.592 495.939 519.434C515.004 531.446 534.028 544.178 555.501 551.516C577.673 558.688 601.442 561.8 624.975 559.727C643.444 557.271 661.577 549.898 677.243 538.951C695.372 526.544 710.075 509.584 725.434 493.794C731.349 487.502 738.121 483.683 744.51 478.43C752.251 470.068 741.012 460.469 736.575 453.999C734.068 450.839 731.702 447.61 729.378 444.274C723.97 436.393 719.628 427.688 716.451 418.504C711.69 405.098 708.003 391.3 705.127 377.196C703.318 368.223 701.062 359.204 696.729 351.239C692.456 342.806 685.791 336.107 678.7 330.228C660.925 315.267 636.332 314.79 614.155 317.561C604.814 318.687 595.423 319.795 586.122 321.428C572.646 323.996 558.915 328.309 545.711 331.84C513.56 339.242 483.018 354.314 450.726 360.864C434.737 364.261 418.507 366.461 402.328 368.373C383.575 370.661 364.804 372.082 346.741 367.203C345.829 366.858 344.847 366.547 343.957 366.148C342.681 365.542 341.059 366.462 340.551 367.804C340.022 369.2 340.688 370.803 342.004 371.302C363.112 378.685 386.333 375.757 408.368 373.055C422.217 371.488 436.026 369.415 449.776 366.582C484.57 359.69 517.382 343.514 551.985 335.751C565.088 332.182 577.431 328.326 590.622 326.202C597.755 325.098 604.857 324.228 611.908 323.339C625.443 321.837 639.312 320.523 652.576 323.707C663.563 326.028 673.42 331.788 681.369 339.834C687.884 345.862 692.765 353.605 695.841 362.137C698.766 370.612 700.231 379.577 702.244 388.321C705.505 402.325 709.566 416.203 715.047 429.391C718.832 438.191 723.986 446.283 729.637 453.826C733.72 459.548 739.021 464.502 741.776 471.133C742.502 473.188 741.356 474.534 739.774 475.654C736.407 478.123 732.899 480.354 729.644 482.989C722.525 488.64 716.518 495.634 710.258 502.226C688.648 525.347 667.207 544.051 636.818 551.997C619.459 556.717 601.442 555.231 584.134 552.787C561.794 549.725 541.002 541.05 521.976 529.238C498.174 514.756 474.129 499.999 455.198 479.382C443.185 465.868 432.582 450.924 419.361 438.609C409.034 428.742 397.642 420.006 385.254 412.98C374.09 407.154 352.17 394.429 340.156 401.542C328.676 410.452 360.483 436.5 366.603 442.501C376.677 451.966 388.569 458.927 400.867 464.814C414.187 471.518 427.537 478.295 440.644 485.409C475.339 503.833 504.774 531.56 525.659 565.809C535.571 582.579 542.45 601.699 544.578 621.597C545.324 637.963 543.677 655.142 536.443 670.266C525.715 691.248 510.972 707.701 508.464 732.35C507.901 736.127 507.733 739.931 506.796 743.628C506.408 745.875 504.14 744.832 502.682 744.402C494.502 741.548 486.292 738.622 477.827 736.52C469.099 734.196 460.229 732.247 451.277 730.82C438.679 728.932 425.794 729.023 413.247 726.848C404.508 725.317 395.648 723.188 388.028 718.398C379.215 712.174 371.884 703.871 365.516 695.013C350.185 671.156 345.307 641.56 342.675 613.061C340.906 583.967 342.621 554.536 339.221 525.623C337.052 506.139 334.518 486.701 331.235 467.409C328.403 450.743 325.41 433.893 319.65 418.083C314.447 402.176 302.908 396.883 298.733 417.832L298.703 417.759ZM342.793 406.04C353.447 400.377 379.152 415.641 388.837 421.397C402.711 430.153 415.114 441.113 426.288 453.327C436.38 464.579 445.194 477.065 455.814 487.841C443.812 480.409 431.159 474.081 418.619 467.611C403.336 459.672 387.048 453.01 373.846 441.563C366.492 435.154 359.219 428.531 352.565 421.345C348.965 417.096 344.869 412.781 342.943 407.324C342.862 406.926 342.731 406.508 342.793 406.04Z" fill="#5F9282" fill-opacity="0.4"/>
<path fill-rule="evenodd" clip-rule="evenodd" d="M195.769 201.166C190.969 213.835 190.067 227.674 191.061 240.942C192.367 254.758 200.534 266.202 209.271 275.835C215.217 282.446 221.184 289.004 227.404 295.351C236.031 303.899 244.171 313.122 253.834 320.466C259.53 324.527 265.937 327.937 271.299 332.424C277.45 337.578 282.373 343.679 286.942 349.953C288.287 351.752 289.609 355.138 292.367 353.359C293.553 352.519 293.981 350.778 293.203 349.624C291.131 346.383 288.806 343.354 286.41 340.359C281.527 334.15 275.934 328.593 269.498 324.191C264.51 320.704 259.074 317.786 254.33 313.962C243.354 304.279 232.826 293.108 222.794 282.616C215.25 274.11 206.936 266.11 201.35 255.952C194.45 243.761 195.515 228.879 197.329 215.078C199.004 205.768 203.038 197.105 206.627 188.397C208.233 184.77 209.424 180.555 211.809 177.469C214.686 177.515 217.519 179.202 220.497 179.594C222.816 180.043 225.195 180.33 227.556 180.365C235.892 180.515 243.776 178.039 251.981 178.078C263.528 177.849 274.276 184.008 281.211 193.204C288.013 202.902 291.114 215.495 291.978 227.425C293.197 245.137 295.197 262.777 296.831 280.462C298.715 300.698 299.92 321.658 307.529 340.38C308.72 343.348 311.937 345.856 314.768 342.815C320.431 335.2 321.534 315.789 322.825 305.965C324.408 283.912 324.036 261.671 320.594 240.047C317.762 223.688 313.309 207.636 312.949 190.863C312.214 174.317 316.969 157.947 322.219 142.256C325.973 131.584 330.85 121.461 338.581 113.279C346.627 104.111 356.009 96.0012 367.138 91.3775C376.249 87.6471 385.371 83.7365 393.958 78.6409C397.82 76.8504 402.192 72.7975 406.486 73.3807C408.195 75.1332 408.17 78.2546 409.089 80.567C411.508 88.5432 415.345 96.1361 421.242 101.808C429.98 110.828 441.496 118.628 445.021 131.628C448.267 155.756 431.431 176.818 419.318 196.11C403.52 221.31 385.566 245.018 370.627 270.851C365.854 278.865 361 286.787 355.762 294.502C351.366 301.676 326.595 331.765 339.655 336.099C343.544 336.528 347.104 333.703 350.389 331.755C365.1 322.411 376.627 308.791 387.425 294.957C410.057 265.777 426.992 232.535 447.671 201.94C458.005 187.193 468.39 172.158 481.546 159.892C489.254 152.99 497.568 147.546 506.499 142.765C533.627 128.303 565.36 129.336 594.101 132.92C598.82 133.603 603.529 134.466 608.218 135.383C614.313 137.017 626.346 137.647 629.112 143.483C629.082 143.411 629.072 143.284 628.991 143.192C628.961 143.119 628.931 143.046 628.85 142.954C629.648 144.362 629.522 146.831 629.51 148.238C629.281 152.51 629.173 156.767 629.167 161.062C629.43 174.728 629.815 188.38 629.713 202.092C629.833 223.624 628.061 243.272 613.996 260.842C595.27 285.976 566.221 298.483 538.341 308.056C503.153 320.876 467.482 331.61 431.308 340.312C405.377 347.186 378.742 350.723 353.264 359.61C334.506 365.886 345.959 374.768 348.684 367.574C370.73 357.203 395.155 354.916 418.33 348.901C448.728 341.694 479.047 333.782 508.811 323.818C553.119 308.314 607.26 294.816 628.595 245.684C633.983 232.685 634.581 218.424 634.804 204.696C635.007 184.453 634.156 163.934 634.5 143.929C633.238 134.426 622.534 132.888 615.081 131.169C606.565 129.355 597.968 127.755 589.319 126.75C567.748 124.409 545.565 123.986 524.194 129.824C502.832 136.096 482.899 148.987 467.831 166.299C449.942 187.392 434.996 210.951 420.709 234.759C401.975 265.109 372.849 315.709 340.96 330.515C343.472 317.47 353.565 307.482 360.368 296.554C371.23 280.411 380.017 263.788 390.818 247.806C396.077 240.037 401.467 232.38 406.695 224.539C416.431 209.688 426.239 194.802 435.762 179.748C444.058 166.562 450.968 151.377 450.637 135.597C449.917 115.803 431.02 106.249 420.496 92.624C418.273 89.3261 416.465 85.6945 415.063 81.9096C413.569 78.2129 413.099 74.106 411.322 70.5473C408.583 66.3175 402.919 67.3639 399.047 69.6414C390.967 74.0084 383.069 78.8125 374.606 82.359C368.454 85.0006 362.099 87.2587 356.361 90.7938C344.864 97.9177 335.003 108.056 327.146 119.321C318.617 133.279 313.933 149.307 310.212 165.087C303.243 192.649 312.075 219.753 316.239 246.5C318.413 262.917 318.752 279.743 318.19 296.351C317.278 310.064 316.366 324.083 312.001 337.285C306.673 323.541 304.75 309.062 303.303 294.394C301.948 279.332 300.473 263.671 298.884 248.765C297.229 231.44 297.682 213.134 289.895 197.476C282.637 181.343 265.676 170.804 248.241 172.671C239.742 173.257 231.999 175.664 223.705 174.486C220.799 174.06 217.984 173.24 215.139 172.346C213.276 171.763 211.16 171.391 209.365 172.614C205.948 175.064 204.655 179.547 202.988 183.335C200.629 189.256 198.037 195.027 195.83 201.005L195.769 201.166Z" fill="#5F9282" fill-opacity="0.4"/>
<path fill-rule="evenodd" clip-rule="evenodd" d="M119.337 300.97C120.045 301.509 121.088 301.362 121.632 300.6C122.503 299.457 123.572 298.468 124.551 297.522C126.536 295.368 128.845 294.577 131.561 294.831C142.655 296.013 152.772 301.318 163.16 304.944C170.193 307.686 177.258 310.44 184.202 313.42C194.716 318.061 205.076 323.11 215.802 327.29C233.644 334.282 251.691 340.732 269.533 347.724C274.695 349.718 279.735 351.938 284.845 354.068C287.023 354.97 289.17 355.861 291.296 356.899C292.101 357.282 293.112 356.735 293.433 355.888C293.767 355.007 293.378 354.008 292.548 353.693C289.265 352.139 285.892 350.823 282.557 349.404C279.191 347.974 275.824 346.544 272.432 345.181C243.878 333.975 214.726 324.248 187.012 310.92C176.453 306.3 165.657 302.21 154.873 298.086C147.923 295.607 141.063 292.504 133.675 291.565C130.473 291.243 126.887 291.163 124.199 293.437C122.222 295.09 120.558 296.59 119.027 298.605C118.495 299.334 118.583 300.452 119.292 300.991L119.337 300.97Z" fill="#5F9282" fill-opacity="0.4"/>
<path fill-rule="evenodd" clip-rule="evenodd" d="M335.906 383.419C359.414 391.65 384.011 396.242 408.374 401.298C438.074 407.394 468.172 411.675 497.698 418.687C518.789 423.977 539.413 430.195 560.138 436.451C585.116 443.704 610.664 449.147 635.703 456.239C663.537 463.592 691.663 472.161 720.691 473.459C727.113 473.621 733.504 474.016 739.916 473.745C741.679 473.676 743.482 473.499 745.255 473.25C745.934 473.139 746.462 472.357 746.382 471.651C746.251 470.927 745.624 470.443 744.894 470.535C744.58 470.601 744.216 470.647 744.094 470.662C735.989 471.582 727.897 470.787 719.834 470.679C706.029 470.299 692.491 467.379 679.074 464.445C662.65 460.739 646.369 456.351 630.128 451.856C609.726 446.275 589.1 441.591 568.698 436.01C547.82 430.003 527.258 423.318 506.187 417.975C489.471 413.36 472.408 410.272 455.324 407.238C429.634 402.477 403.973 397.789 378.507 392.131C367.459 389.665 356.261 386.834 345.478 383.669C342.562 382.81 339.737 381.863 336.903 380.789C336.245 380.54 335.464 380.919 335.2 381.617C334.935 382.315 335.268 383.116 335.926 383.366L335.906 383.419Z" fill="#5F9282" fill-opacity="0.4"/>
<path fill-rule="evenodd" clip-rule="evenodd" d="M330.027 359.523C332.316 359.899 334.527 358.036 336.645 357.181C345.049 352.875 353.483 348.643 361.876 344.21C395.239 325.971 426.925 304.519 459.792 285.295C482.361 270.947 505.598 257.589 527.116 241.431C547.63 225.937 566.75 208.318 584.252 189.166C592.754 179.864 600.518 169.913 609.263 160.887C613.493 156.596 617.946 152.636 622.631 149.131C624.324 147.87 625.997 146.662 627.67 145.454C628.248 144.998 628.483 144.227 628.139 143.606C627.796 142.985 626.945 142.785 626.387 143.188C624.045 144.94 621.672 146.619 619.38 148.391C612.373 153.901 606.073 160.293 600.117 166.999C577.813 193.786 553.182 218.771 525.508 239.41C494.114 262.385 460.325 281.445 427.395 301.75C401.916 317.82 376.417 333.942 349.737 347.53C343.877 350.467 338.038 353.657 332.068 356.429C331.155 357.004 329.89 356.525 329.422 357.759C329.158 358.457 329.491 359.259 330.149 359.508L330.027 359.523Z" fill="#5F9282" fill-opacity="0.4"/>
<path fill-rule="evenodd" clip-rule="evenodd" d="M319.733 389.14C324.679 407.405 331.115 425.252 339.03 442.248C343.141 450.496 347.464 458.642 351.503 466.925C359.864 484.58 367.758 502.55 377.223 519.58C386.861 536.615 396.499 553.649 405.315 571.17C414.821 588.706 425.634 605.388 434.997 622.994C444.533 640.296 455.935 656.341 466.009 673.295C476.243 690.74 486.113 708.537 495.689 726.346C498.486 731.948 501.01 737.509 503.311 743.353C503.846 744.538 504.168 745.826 504.703 747.011C505.047 747.633 505.847 747.813 506.455 747.429C507.317 746.835 507.086 745.765 506.732 745.018C504.311 738.268 501.131 731.538 498.081 725.226C482.637 696.17 466.321 667.581 448.332 640.201C441.157 629.195 435.077 617.437 428.53 605.994C418.487 588.806 408.12 571.864 399.345 553.929C393.335 542.444 386.788 531.307 380.474 520.014C371.837 504.464 364.254 488.269 356.813 472.006C349.443 456.015 340.379 440.979 334.215 424.401C330.694 415.209 327.264 405.929 324.482 396.465C323.707 393.777 322.951 391.035 322.246 388.312C322.044 387.622 321.326 387.227 320.657 387.465C319.988 387.702 319.582 388.469 319.783 389.16L319.733 389.14Z" fill="#5F9282" fill-opacity="0.4"/>
<path fill-rule="evenodd" clip-rule="evenodd" d="M187.151 687.907C187.463 689.069 189.195 689.234 189.663 687.999C190.448 684.552 192.914 681.557 194.559 678.436C204.551 661.84 212.884 644.125 219.303 625.807C224.574 609.756 228.873 593.52 234.326 577.599C243.945 546.252 256.722 516.039 268.893 485.597C277.047 464.99 284.442 444.096 293.811 423.949C296.667 417.48 299.544 410.958 302.4 404.489C302.664 403.791 302.331 402.99 301.673 402.74C301.015 402.491 300.285 402.89 299.97 403.569C297.307 409.681 294.573 415.828 291.91 421.94C278.577 451.021 268.342 481.398 255.93 510.951C248.539 529.084 241.299 547.275 235.427 565.984C231.703 577.342 227.826 588.642 224.426 600.062C220.375 613.506 216.728 627.103 211.036 639.987C206.177 651.59 200.711 662.963 194.293 673.792C192.008 677.837 189.389 681.695 187.458 685.874C187.214 686.519 186.929 687.27 187.08 687.941L187.151 687.907Z" fill="#5F9282" fill-opacity="0.4"/>
<path fill-rule="evenodd" clip-rule="evenodd" d="M79.9781 473.633C80.2568 476.869 83.8676 473.756 85.3879 473.104C89.879 470.57 94.4712 468.074 99.0734 465.704C114.735 457.518 131.033 450.863 147.28 444.188C147.28 444.188 147.28 444.188 147.159 444.203C168.25 435.742 189.533 427.844 209.404 416.342C221.65 409.686 234.017 403.321 246.283 396.611C255.164 391.811 264.095 387.03 273.661 384.086C276.843 383.02 280.086 382.1 283.278 381.161C283.977 380.996 284.353 380.156 284.152 379.466C283.97 378.722 283.232 378.38 282.563 378.618C279.178 379.607 275.793 380.596 272.419 381.712C262.619 384.813 253.526 389.717 244.433 394.621C225.922 404.367 207.603 414.677 188.941 424.059C161.371 436.635 132.843 446.085 105.606 459.462C97.3244 463.445 89.2851 468.012 81.165 472.486C80.5571 472.563 80.06 473.111 80.0084 473.706L79.9781 473.633Z" fill="#5F9282" fill-opacity="0.4"/>
<path fill-rule="evenodd" clip-rule="evenodd" d="M211.114 180.825C215.576 191.049 223.81 198.649 230.838 206.837C239.605 216.85 247.134 227.99 253.255 239.947C263.002 258.373 269.809 278.141 277.286 297.672C281.563 309.605 287.259 320.849 292.458 332.334C294.396 336.691 296.101 341.204 297.898 345.629C298.797 347.382 299.824 351.393 302.025 349.403C302.421 348.816 302.331 347.984 301.855 347.559C298.633 341.549 296.749 334.758 293.689 328.626C276.429 294.585 267.888 255.866 247.029 223.837C238.723 210.009 226.523 199.432 217.254 186.466C215.809 184.323 214.506 182.11 213.507 179.705C212.871 178.175 210.448 179.222 211.094 180.879L211.114 180.825Z" fill="#5F9282" fill-opacity="0.4"/>
<path fill-rule="evenodd" clip-rule="evenodd" d="M395.618 86.6357C391.833 97.5411 391.492 109.137 390.047 120.438C388.29 137.145 386.856 153.914 383.489 170.441C381.171 183.13 377.08 195.454 372.575 207.498C366.28 224.267 359.884 240.997 353.163 257.665C341.738 284.461 331.335 311.767 320.871 338.927C320.566 339.732 320.059 340.461 319.703 341.247C319.54 341.983 319.964 342.696 320.663 342.838C322.697 344.038 326.535 331.005 327.47 329.149C339.757 295.19 354.605 262.263 367.347 228.477C373.693 211.728 380.636 195.082 384.613 177.558C388.478 160.176 390.48 142.518 392.086 124.832C394.25 107.051 394.441 87.9087 405.443 72.9237C405.859 72.2834 405.77 71.4512 405.173 71.0409C404.626 70.6497 403.775 70.757 403.359 71.3973C400.222 76.1636 397.348 81.1522 395.567 86.6165L395.618 86.6357Z" fill="#5F9282" fill-opacity="0.4"/>
<path fill-rule="evenodd" clip-rule="evenodd" d="M335.582 514.301C334.9 516.252 334.006 518.308 333.901 520.417C334.061 522.135 336.543 521.847 336.505 520.114C338.38 512.721 341.884 506.068 345.025 499.155C347.595 493.744 350.551 488.234 354.498 483.775C355.878 482.271 357.308 480.788 358.981 479.58C359.559 479.124 359.713 478.261 359.298 477.674C358.884 477.087 358.064 476.961 357.486 477.417C352.04 481.554 348.091 487.547 344.911 493.648C341.437 500.374 338.297 507.287 335.561 514.354L335.622 514.193L335.582 514.301Z" fill="#5F9282" fill-opacity="0.4"/>
<path fill-rule="evenodd" clip-rule="evenodd" d="M338.514 558.505C338.086 560.246 335.486 564.664 338.251 565.159C338.94 565.174 339.579 564.557 339.62 563.836C339.999 561.462 341.076 559.23 341.859 557.01C347.066 543.267 352.556 529.386 361.143 517.415C363.042 514.697 365.092 512.035 367.212 509.647C368.055 508.186 371.502 506.422 370.137 504.677C369.652 504.125 368.821 504.179 368.294 504.654C365.311 507.637 362.622 510.915 360.095 514.378C350.28 527.603 344.209 543.167 338.494 558.559L338.514 558.505Z" fill="#5F9282" fill-opacity="0.4"/>
<path fill-rule="evenodd" clip-rule="evenodd" d="M340.865 616.918C340.538 618.697 338.334 623.142 340.946 623.579C341.635 623.594 342.274 622.977 342.316 622.256C343.532 614.92 347.017 608.014 350.227 601.373C361.806 580.59 376.744 561.633 384.355 538.794C384.662 537.069 387.047 533.675 384.992 532.835C384.334 532.586 383.584 533.038 383.37 533.756C378.78 548.162 371.771 561.774 363.679 574.424C355.17 588.021 345.76 601.4 340.885 616.864L340.865 616.918Z" fill="#5F9282" fill-opacity="0.4"/>
<path fill-rule="evenodd" clip-rule="evenodd" d="M355.832 659.609C354.265 664.356 352.779 669.195 351.263 673.962C350.815 675.143 350.276 677.025 352.008 677.19C353.476 677.133 353.368 675.434 353.876 674.399C356.847 665.027 359.82 655.349 363.176 646.184C367.702 633.473 374.193 621.689 381.047 610.167C388.673 597.218 398.304 585.396 405.029 571.922C405.741 570.35 403.464 569.18 402.661 570.84C399.806 576.696 396.313 582.248 392.709 587.635C377.259 609.775 363.478 633.469 355.832 659.609Z" fill="#5F9282" fill-opacity="0.4"/>
<path fill-rule="evenodd" clip-rule="evenodd" d="M375.561 703.179C375.052 705.135 371.425 712.416 374.463 712.647C375.689 712.62 375.863 711.397 375.955 710.388C377.412 704.863 379.557 699.966 381.803 694.801C390.878 675.279 402.624 657.261 412.984 638.472C418.915 628.012 423.773 617.022 428.044 605.749C428.309 605.051 428.077 604.288 427.439 603.985C426.781 603.735 425.991 603.988 425.726 604.686C422.157 613.954 418.335 623.126 413.642 631.846C413.642 631.846 413.642 631.846 413.601 631.953C413.601 631.953 413.622 631.9 413.642 631.846C401.198 655.677 385.333 677.844 375.652 703.091L375.561 703.179Z" fill="#5F9282" fill-opacity="0.4"/>
<path fill-rule="evenodd" clip-rule="evenodd" d="M405.079 724.121C404.611 725.356 404.123 726.644 404.029 727.959C403.966 729.654 406.458 729.8 406.612 728.017C409.118 718.96 413.769 710.654 417.874 702.264C428.905 682.011 439.662 661.715 446.694 639.639C446.959 638.941 446.504 638.155 445.876 637.979C445.218 637.729 444.468 638.182 444.254 638.899C443.542 641.085 442.728 643.232 441.965 645.398C432.899 673.149 415.623 697.053 405.099 724.067L405.079 724.121Z" fill="#5F9282" fill-opacity="0.4"/>
<path fill-rule="evenodd" clip-rule="evenodd" d="M462.033 670.497C458.892 690.855 450.639 709.89 441.465 728.146C440.754 729.718 439.84 731.213 439.483 732.92C439.389 734.542 441.789 734.776 442.055 733.158C446.883 722.402 452.571 711.972 456.558 700.837C460.34 691.158 462.817 681.108 464.595 670.915C464.851 669.171 462.339 668.772 462.012 670.551L462.033 670.497Z" fill="#5F9282" fill-opacity="0.4"/>
<path fill-rule="evenodd" clip-rule="evenodd" d="M477.581 697.14C475.891 710.005 471.527 722.287 467.578 734.542C467.545 736.31 470.078 736.349 470.182 734.546C474.129 723.211 477.863 711.673 479.755 699.805C479.848 698.49 480.783 696.327 479.082 695.928C478.434 695.806 477.643 696.365 477.551 697.067L477.581 697.14Z" fill="#5F9282" fill-opacity="0.4"/>
<path fill-rule="evenodd" clip-rule="evenodd" d="M480.929 694.417C485.808 696.817 491.185 697.75 496.4 699.111C503.609 701.167 510.644 704.446 517.121 708.128C518.517 709.026 519.959 706.748 518.532 705.778C509.333 700.267 499.25 696.631 488.81 694.394C486.501 693.765 484.203 692.956 482.058 691.897C481.4 691.648 480.66 691.92 480.345 692.599C480.08 693.297 480.292 694.114 480.95 694.363L480.929 694.417Z" fill="#5F9282" fill-opacity="0.4"/>
<path fill-rule="evenodd" clip-rule="evenodd" d="M453.775 651.348C468.502 658.769 485.019 661.16 500.458 666.702C511.27 670.553 521.563 676.232 530.354 683.738C529.562 685.218 531.576 686.472 532.55 685.122C534.803 682.231 529.52 679.677 527.83 678.177C521.081 673.533 514.129 669.119 506.577 666.135C492.567 660.336 477.468 657.869 463.254 652.607C460.369 651.514 457.596 650.279 454.883 648.883C453.405 648.2 452.196 650.627 453.755 651.402L453.775 651.348Z" fill="#5F9282" fill-opacity="0.4"/>
<path fill-rule="evenodd" clip-rule="evenodd" d="M428.932 609.213C433.821 611.741 439.228 613.053 444.645 613.877C459.511 616.501 474.784 618.052 489.466 621.466C489.466 621.466 489.365 621.427 489.314 621.408C489.314 621.408 489.415 621.447 489.466 621.466C509.079 626.379 529.469 633.061 544.845 646.867C545.33 647.419 546.141 647.419 546.688 646.89C548.261 645.03 545.022 643.496 544.072 642.338C527.843 629.867 508.071 622.928 488.316 618.39C472.266 614.765 455.808 613.441 439.708 610.104C436.356 609.325 433.127 608.224 430.08 606.64C428.602 605.958 427.393 608.385 428.952 609.16L428.932 609.213Z" fill="#5F9282" fill-opacity="0.4"/>
<path fill-rule="evenodd" clip-rule="evenodd" d="M402.774 563.822C419.952 570.883 439.128 569.922 457.276 572.746C486.745 577.158 519.396 581.117 541.18 603.674C541.908 604.503 543.234 605.435 544.066 604.154C544.503 603.46 544.21 602.551 543.593 602.194C529.97 587.886 511.476 580.327 492.591 576.242C474.172 571.842 455.305 569.543 436.407 567.786C429.216 566.903 421.964 566.489 414.917 564.923C411.16 563.991 407.485 562.844 403.881 561.356C402.454 560.693 401.144 563.082 402.753 563.876L402.774 563.822Z" fill="#5F9282" fill-opacity="0.4"/>
<path fill-rule="evenodd" clip-rule="evenodd" d="M383.478 531.34C383.669 531.904 384.185 532.222 384.702 532.234C384.702 532.234 384.702 532.234 384.651 532.215L384.55 532.176C395.528 533.757 406.782 533.233 417.853 533.498C449.87 534.394 482.851 534.427 512.795 546.447C514.273 547.13 515.482 544.703 513.903 543.982C482.562 531.371 447.929 531.572 414.373 530.768C406.138 530.656 397.751 530.793 389.567 530.087C387.784 530.21 383.027 528.1 383.528 531.36L383.478 531.34Z" fill="#5F9282" fill-opacity="0.4"/>
<path fill-rule="evenodd" clip-rule="evenodd" d="M368.224 504.382C368.628 504.842 369.297 504.911 369.814 504.616C372.498 504.405 375.243 504.34 377.928 504.13C391.999 502.892 406.001 500.462 420.042 499.152C436.404 497.37 452.649 498.798 468.363 502.848C469.922 503.316 470.828 500.774 469.188 500.214C458.556 497.414 447.609 495.906 436.589 495.66C419.683 495.517 402.864 498.66 386.047 500.576C381.863 501.078 377.719 501.472 373.515 501.721C371.742 501.97 366.699 501.226 368.203 504.436L368.224 504.382Z" fill="#5F9282" fill-opacity="0.4"/>
<path fill-rule="evenodd" clip-rule="evenodd" d="M353.217 470.643C352.332 473.439 360.091 473.125 361.783 473.397C378.748 474.3 395.319 467.686 412.192 468.984C413.863 469.003 414.07 466.319 412.348 466.28C398.797 465.075 385.481 469.361 372.007 470.396C366.264 470.736 360.378 471.146 354.839 469.723C354.161 469.528 353.431 469.926 353.217 470.643Z" fill="#5F9282" fill-opacity="0.4"/>
<path fill-rule="evenodd" clip-rule="evenodd" d="M331.056 464.519C330.894 464.948 330.711 465.432 330.599 465.88C330.476 466.202 330.456 466.563 330.384 466.904C330.445 466.743 330.486 466.636 330.527 466.528C329.714 468.062 331.829 469.354 332.743 467.859C333.996 462.87 336.93 458.641 339.56 454.296C340.383 452.582 345.639 446.348 343.169 445.228C341.793 444.583 341.223 446.393 340.755 447.321C337.546 453.042 333.466 458.311 331.006 464.5L331.056 464.519Z" fill="#5F9282" fill-opacity="0.4"/>
<path fill-rule="evenodd" clip-rule="evenodd" d="M337.034 435.904C341.446 439.233 347.534 438.9 352.83 439.74C355.848 440.024 358.856 440.181 361.875 440.158C362.584 440.12 363.182 439.61 363.244 438.836C363.286 438.115 362.74 437.417 362.031 437.455C354.657 437.362 347.283 436.963 340.338 434.823C339.214 434.581 338.325 432.955 337.159 434.048C336.631 434.523 336.579 435.425 337.065 435.977L337.034 435.904Z" fill="#5F9282" fill-opacity="0.4"/>
<path fill-rule="evenodd" clip-rule="evenodd" d="M667.169 467.606C672.254 474.199 678.303 479.621 683.774 485.807C690.69 493.829 696.379 502.799 700.193 512.9C700.737 515.132 703.838 513.974 702.646 511.926C699.538 503.934 695.558 496.411 690.392 489.726C685.106 482.444 678.399 476.465 672.473 469.8C671.341 468.512 670.259 467.242 669.217 465.866C668.803 465.279 667.962 465.206 667.364 465.716C666.786 466.172 666.683 467.054 667.098 467.641L667.169 467.606Z" fill="#5F9282" fill-opacity="0.4"/>
<path fill-rule="evenodd" clip-rule="evenodd" d="M701.299 470.412C704.55 478.027 710.598 483.757 715.014 490.587C716.055 492.27 717.329 494.103 717.498 496.255C717.515 498.042 720.078 497.846 720.111 496.078C720.014 493.279 718.377 490.878 716.972 488.627C713.748 483.845 709.774 479.209 706.581 474.5C705.408 472.705 704.499 471.133 703.762 469.258C703.49 468.602 702.68 468.295 702.041 468.606C701.403 468.916 701.098 469.721 701.35 470.431L701.299 470.412Z" fill="#5F9282" fill-opacity="0.4"/>
<path fill-rule="evenodd" clip-rule="evenodd" d="M664.703 463.115C664.893 464.292 665.843 466.064 667.201 465.228C668.114 464.653 667.852 463.51 667.377 462.777C667.39 460.757 664.574 461.163 664.753 463.134L664.703 463.115Z" fill="#5F9282" fill-opacity="0.4"/>
<path fill-rule="evenodd" clip-rule="evenodd" d="M627.239 453.525C638.616 472.691 652.568 490.255 661.542 511.028C664.914 518.321 668.793 525.5 671.618 533.016C671.88 534.159 672.465 535.363 672.19 536.548C671.569 538.646 674.475 539.071 674.772 536.913C675.038 535.601 674.635 534.221 674.312 532.932C672.961 528.86 671.063 525.01 669.235 521.125C665.408 513.352 661.986 505.425 657.996 497.775C651.794 486.34 644.325 475.345 637.261 464.504C634.532 460.401 631.783 456.351 629.379 452.002C628.55 450.522 626.259 451.987 627.138 453.486L627.239 453.525Z" fill="#5F9282" fill-opacity="0.4"/>
<path fill-rule="evenodd" clip-rule="evenodd" d="M572.575 439.073C589.488 481.517 623.862 511.483 647.315 549.345C647.83 550.276 648.304 551.622 649.611 551.381C650.675 551.17 651.063 549.536 650.132 548.938C635.219 523.828 614.991 502.966 598.232 479.366C591.814 470.182 585.822 460.483 580.641 450.478C578.621 446.337 576.713 442.053 574.856 437.789C574.149 436.294 571.787 437.486 572.554 439.127L572.575 439.073Z" fill="#5F9282" fill-opacity="0.4"/>
<path fill-rule="evenodd" clip-rule="evenodd" d="M530.799 427.116C538.649 461.091 558.043 490.11 579.834 515.554C591.543 529.26 604.956 541.217 616.462 555.153C616.907 555.813 617.595 556.442 617.827 557.205C618.048 558.455 619.628 558.563 620.237 557.566C621.304 555.514 617.095 551.955 616.014 550.379C605.73 538.564 594.31 527.914 583.935 516.187C572.155 502.822 561.51 488.292 552.154 472.961C546.617 463.435 541.871 453.349 538.129 442.907C536.274 437.416 534.823 431.771 533.252 426.142C532.758 424.543 530.224 425.425 530.799 427.116Z" fill="#5F9282" fill-opacity="0.4"/>
<path fill-rule="evenodd" clip-rule="evenodd" d="M506.916 419.725C514.598 444.06 519.828 469.369 528.797 493.21C536.425 512.798 545.949 531.815 557.308 549.194C559.046 551.633 561.836 549.007 559.164 547.197C542.854 521.802 530.194 493.801 522.216 464.135C519.113 453.076 516.009 442.017 513.048 430.888C511.889 426.766 510.903 422.647 509.389 418.698C509.117 418.042 508.449 417.666 507.709 417.938C507.091 418.195 506.664 419.016 506.916 419.725Z" fill="#5F9282" fill-opacity="0.4"/>
<path fill-rule="evenodd" clip-rule="evenodd" d="M470.28 412.843C477.924 428.262 479.518 446.055 483.079 462.935C487.878 484.337 494.704 505.892 507.004 523.69C507.651 524.733 509.29 525.906 510.123 524.319C510.458 523.586 510.125 522.785 509.437 522.463C495.64 502.809 488.647 478.489 484.044 454.584C481.903 443.275 480.097 431.848 476.446 421.011C475.246 417.609 474.055 414.641 472.51 411.539C472.167 410.918 471.407 410.63 470.748 410.994C470.089 411.358 469.835 412.183 470.158 412.858L470.28 412.843Z" fill="#5F9282" fill-opacity="0.4"/>
<path fill-rule="evenodd" clip-rule="evenodd" d="M437.132 407.284C445.117 419.21 447.719 433.579 450.665 447.648C453.844 462.788 457.072 477.946 462.45 492.323C462.874 493.343 463.064 494.827 464.391 494.532C466.023 494.045 465.296 492.296 464.842 491.203C456.255 468.797 453.962 444.293 446.856 421.342C445.202 416.235 442.738 411.433 440 406.897C439.484 405.965 438.656 404.485 437.399 405.359C436.821 405.815 436.667 406.678 437.082 407.265L437.132 407.284Z" fill="#5F9282" fill-opacity="0.4"/>
<path fill-rule="evenodd" clip-rule="evenodd" d="M406.097 399.209C412.658 407.711 417.455 417.815 420.488 428.295C422.261 434.922 423.112 441.69 424.307 448.466C424.659 450.134 427.192 449.559 426.86 447.837C425.294 438.527 424.154 429.009 420.622 420.304C417.675 412.497 413.777 405.065 408.935 398.442C408.298 397.525 407.338 396.241 406.191 397.28C405.644 397.809 405.663 398.676 406.097 399.209Z" fill="#5F9282" fill-opacity="0.4"/>
<path fill-rule="evenodd" clip-rule="evenodd" d="M382.321 395.969C387.76 403.003 391.18 411.849 393.507 420.527C393.839 422.249 396.392 421.62 396.061 419.899C393.825 411.132 390.394 402.466 385.209 395.222C384.572 394.305 383.561 393.002 382.465 394.06C381.918 394.589 381.937 395.456 382.371 395.989L382.321 395.969Z" fill="#5F9282" fill-opacity="0.4"/>
<path fill-rule="evenodd" clip-rule="evenodd" d="M700.478 470.898C702.043 474.56 718.434 459.713 721.07 457.95C723.362 456.178 725.785 454.518 728.269 453.003C729.1 452.643 730.114 452.106 729.781 450.998C728.903 448.885 726.591 451.017 725.344 451.711C717.76 456.45 711.46 463.149 703.785 467.669C702.629 468.582 699.833 468.934 700.478 470.898Z" fill="#5F9282" fill-opacity="0.4"/>
<path fill-rule="evenodd" clip-rule="evenodd" d="M664.145 463.823C664.616 467.316 678.608 457.884 680.666 456.883C693.551 449.61 704.83 439.702 716.957 431.221C718.954 430.074 717.064 427.578 715.339 429.073C702.695 438.156 690.707 448.409 677.082 455.955C673.675 457.918 670.249 459.935 666.732 461.426C665.667 461.944 663.742 462.135 664.094 463.803L664.145 463.823Z" fill="#5F9282" fill-opacity="0.4"/>
<path fill-rule="evenodd" clip-rule="evenodd" d="M629.014 453.275C629.216 453.965 629.965 454.433 630.603 454.123C633.147 453.061 635.682 451.872 638.104 450.519C651.223 442.781 662.26 431.677 674.823 423.115C684.497 416.221 695.302 411.536 706.106 407.158C707.444 406.682 709.502 405.375 707.944 403.987C707.296 403.557 706.294 403.607 705.887 404.374C694.069 409.289 682.312 414.35 671.867 422.057C663.755 427.885 656.067 434.426 648.198 440.53C642.62 444.863 636.577 448.896 630.152 451.496C629.381 451.695 628.803 452.458 629.065 453.294L629.014 453.275Z" fill="#5F9282" fill-opacity="0.4"/>
<path fill-rule="evenodd" clip-rule="evenodd" d="M574.934 438.803C575.115 439.547 575.874 439.835 576.523 439.651C581.812 438.217 587.072 436.404 592.059 433.934C604.933 427.762 617.372 420.749 629.427 412.916C652.068 397.92 676.043 385.21 700.36 373.735C700.36 373.735 700.268 373.823 700.218 373.804C700.218 373.804 700.218 373.804 700.147 373.838C701.86 373.137 700.709 370.368 699.026 371.449C688.667 376.181 678.489 381.349 668.433 386.809C646.548 397.67 626.764 412.459 605.292 424.215C599.159 427.416 593.057 430.69 586.691 433.435C583.124 434.908 579.455 436.035 575.777 437.035C575.078 437.2 574.681 438.094 574.903 438.73L574.934 438.803Z" fill="#5F9282" fill-opacity="0.4"/>
<path fill-rule="evenodd" clip-rule="evenodd" d="M533.088 426.573C533.361 427.229 534.171 427.535 534.809 427.225C544.542 421.704 553.617 415.013 562.976 408.798C572.659 402.337 582.574 396.333 592.035 389.542C607.661 378.089 623.52 366.786 640.207 357.27C652.749 349.375 666.662 345.193 680.425 340.646C681.377 340.27 682.249 339.802 683.061 339.189C684.389 337.973 682.731 335.933 681.331 337.183C678.452 338.978 675.038 339.587 671.906 340.672C663.687 343.268 655.479 345.989 647.744 350.057C628.554 360.222 610.526 372.667 592.932 385.646C583.502 392.51 573.596 398.641 563.903 404.975C554.444 411.152 545.368 417.842 535.706 423.636C534.57 424.495 532.483 424.809 533.017 426.607L533.088 426.573Z" fill="#5F9282" fill-opacity="0.4"/>
<path fill-rule="evenodd" clip-rule="evenodd" d="M506.489 419.625C507.7 422.846 513.271 416.24 514.863 415.246C525.867 405.603 535.901 394.855 546.127 384.365C568.111 361.631 590.947 338.483 618.894 324.147C620.384 323.422 619.426 320.911 617.845 321.723C582.771 339.744 556.165 370.856 528.339 398.927C521.634 405.472 515.019 412.236 507.576 417.827C506.836 418.099 506.156 418.824 506.419 419.66L506.489 419.625Z" fill="#5F9282" fill-opacity="0.4"/>
<path fill-rule="evenodd" clip-rule="evenodd" d="M469.919 410.125C470.262 410.747 471.113 410.946 471.691 410.49C476.335 407.093 480.565 403.109 484.663 399.014C492.606 391.035 500.307 382.779 508.28 374.873C516.011 366.997 524.358 359.785 533.008 352.994C542.977 345.168 553.39 338.002 564.551 332.224C566.295 331.289 568.069 330.426 569.873 329.636C570.917 329.172 572.64 328.29 571.842 326.883C571.367 326.151 570.405 326.093 569.766 326.71C562.163 330.276 554.803 334.425 547.777 339.068C533.785 348.5 520.479 359.175 508.357 371.157C500.201 379.24 492.308 387.545 484.283 395.739C480.276 399.746 476.259 403.626 471.868 407.119C470.925 407.928 469.141 408.664 469.919 410.125Z" fill="#5F9282" fill-opacity="0.4"/>
<path fill-rule="evenodd" clip-rule="evenodd" d="M427.343 403.943C427.615 404.599 428.425 404.905 429.064 404.595C434.122 402.091 438.776 398.821 443.319 395.385C457.678 384.68 468.964 369.864 483.657 359.653C486.273 357.636 489.263 356.314 492.081 354.68C493.167 353.495 491.65 351.693 490.403 352.694C474.843 360.304 463.356 374.43 450.566 386.037C444.693 391.301 438.416 396.106 431.735 400.143C430.446 401.251 426.657 401.78 427.394 403.962L427.343 403.943Z" fill="#5F9282" fill-opacity="0.4"/>
<path fill-rule="evenodd" clip-rule="evenodd" d="M403.407 398.986C404.396 401.57 410.775 395.884 412.276 394.979C420.327 389.005 426.498 380.662 433.984 374.044C437.686 370.842 441.509 367.932 445.524 365.278C446.132 364.895 446.306 363.979 445.942 363.411C445.548 362.771 444.778 362.663 444.17 363.047C439.597 366.102 435.196 369.469 431.088 373.131C424.282 379.331 418.72 386.678 411.47 392.218C409.573 393.71 407.687 395.021 405.649 396.275C404.666 396.884 402.741 397.383 403.356 398.966L403.407 398.986Z" fill="#5F9282" fill-opacity="0.4"/>
<path fill-rule="evenodd" clip-rule="evenodd" d="M375.084 392.613C376.566 397.41 401.626 376.947 405.174 374.915C406.279 373.983 409.025 373.304 408.117 371.425C407.723 370.785 406.953 370.677 406.345 371.061C401.711 373.971 397.381 377.303 392.95 380.597C387.798 384.416 382.272 388.154 376.556 390.715C375.714 390.949 374.761 391.631 375.064 392.667L375.084 392.613Z" fill="#5F9282" fill-opacity="0.4"/>
<path fill-rule="evenodd" clip-rule="evenodd" d="M594.229 176.737C600.768 179.644 607.93 178.92 614.971 178.518C620.045 178.722 624.957 179.662 629.756 181.05C630.556 181.23 631.426 181.683 632.247 181.503C633.564 181.081 633.395 178.93 632.038 178.845C626.814 177.357 621.437 176.118 615.988 175.834C611.4 175.569 606.607 176.761 602.08 176.028C599.69 175.614 597.382 174.985 595.154 174.141C594.496 173.892 593.716 174.271 593.452 174.969C593.187 175.667 593.52 176.469 594.178 176.718L594.229 176.737Z" fill="#5F9282" fill-opacity="0.4"/>
<path fill-rule="evenodd" clip-rule="evenodd" d="M574.869 199.421C584.588 202.796 595.427 202.299 605.493 203.841C613.473 205.084 621.462 207.067 628.963 210.032C629.832 211.711 632.701 210.097 631.417 208.444C629.09 206.642 625.961 206.193 623.278 205.177C615.3 202.707 607.017 201.042 598.661 200.332C591.389 199.664 584.228 199.468 577.283 197.327C576.301 197.017 574.742 196.242 574.193 197.692C573.929 198.389 574.262 199.191 574.92 199.44L574.869 199.421Z" fill="#5F9282" fill-opacity="0.4"/>
<path fill-rule="evenodd" clip-rule="evenodd" d="M542.108 227.527C541.843 228.225 542.176 229.027 542.834 229.276C549.972 231.673 557.394 233.319 564.807 234.531C577.424 236.979 590.368 237.647 603.048 239.32C610.228 240.382 616.756 243.47 623.316 246.323C624.399 246.979 626.253 246.515 625.85 244.828C625.709 244.284 625.214 243.912 624.697 243.9C617.388 240.885 609.939 237.326 602.009 236.409C586.878 234.79 571.626 233.493 556.781 230.201C553.733 229.538 550.706 228.82 547.739 227.942C546.108 227.815 543.094 225.384 542.108 227.527Z" fill="#5F9282" fill-opacity="0.4"/>
<path fill-rule="evenodd" clip-rule="evenodd" d="M510.619 252.736C526.71 262.209 545.26 266.413 563.498 269.762C576.268 271.653 589.485 272.671 601.278 278.059C601.813 278.937 603.242 278.681 603.557 277.695C604.046 276.1 602.203 275.463 601.181 274.953C589.438 270.197 576.586 268.827 564.1 267.105C555.877 265.892 547.807 263.817 539.818 261.527C533.166 259.989 526.777 257.753 520.583 254.853C517.556 253.523 514.732 251.962 511.878 250.328C510.441 249.538 509.131 251.927 510.619 252.736Z" fill="#5F9282" fill-opacity="0.4"/>
<path fill-rule="evenodd" clip-rule="evenodd" d="M470.147 277.674C484.88 287.676 502.468 292.129 519.509 296.498C523.822 297.641 528.135 298.784 532.408 300.035C537.672 301.722 542.815 303.732 548.1 305.366C549.902 305.803 551.694 306.727 553.599 306.283C555.22 305.669 554.505 303.127 552.833 303.721C543.608 301.638 535.025 297.404 525.801 295.321C513.033 291.896 500.112 289.027 487.894 283.845C482.235 281.517 476.708 278.993 471.71 275.381C470.384 274.449 468.811 276.615 470.167 277.62L470.147 277.674Z" fill="#5F9282" fill-opacity="0.4"/>
<path fill-rule="evenodd" clip-rule="evenodd" d="M434.593 298.337C445.782 307.916 459.65 313.478 473.817 316.573C483.608 318.687 493.074 321.966 502.713 324.636C504.344 324.763 504.723 322.082 503.041 321.936C502.819 321.913 502.393 321.814 502.292 321.775C495.894 319.719 489.505 317.79 483.035 316.076C473.406 313.532 463.35 311.81 454.342 307.476C449.473 305.202 444.452 302.87 440.254 299.438C438.786 298.575 435.845 294.575 434.302 296.507C433.906 297.094 433.976 297.98 434.573 298.39L434.593 298.337Z" fill="#5F9282" fill-opacity="0.4"/>
<path fill-rule="evenodd" clip-rule="evenodd" d="M402.857 318.543C403.069 318.747 403.333 318.969 403.565 319.119C403.565 319.119 403.515 319.099 403.464 319.08C408.846 323.82 414.552 328.008 421.274 330.432C429.008 333.546 437.21 335.426 445.453 336.891C448.826 337.31 452.187 338.522 455.58 338.273C457.182 337.713 456.517 335.19 454.885 335.677C454.885 335.677 454.936 335.696 455.007 335.661C455.007 335.661 455.108 335.7 455.129 335.646C443.047 334.077 430.824 331.656 419.659 326.751C414.385 324.63 409.954 321.048 405.634 317.324C405.321 317.082 404.977 316.768 404.663 316.526C403.419 315.38 401.613 317.397 402.857 318.543Z" fill="#5F9282" fill-opacity="0.4"/>
<path fill-rule="evenodd" clip-rule="evenodd" d="M376.829 336.062C382.98 341.216 390.431 344.162 397.861 346.854C401.871 348.189 405.778 350.099 409.939 350.878C411.641 350.97 411.949 348.324 410.268 348.178C402.967 346.21 395.861 343.272 388.876 340.319C385.111 338.647 381.62 336.404 378.372 333.823C377.016 332.818 375.473 335.057 376.829 336.062Z" fill="#5F9282" fill-opacity="0.4"/>
<path fill-rule="evenodd" clip-rule="evenodd" d="M594.434 146.858C592.712 154.002 593.288 161.341 592.822 168.531C592.686 171.181 592.399 173.773 592.384 176.408C592.394 177.148 592.98 177.738 593.689 177.7C594.398 177.662 594.936 177.006 594.978 176.285C595.032 173.85 595.279 171.365 595.404 168.896C595.849 162.373 595.363 155.559 596.578 149.144C597.61 143.518 599.634 138.023 602.639 133.146C603.055 132.506 602.966 131.673 602.369 131.263C599.637 129 594.772 144.592 594.384 146.839L594.434 146.858Z" fill="#5F9282" fill-opacity="0.4"/>
<path fill-rule="evenodd" clip-rule="evenodd" d="M575.111 131.25C572.184 138.06 570.826 145.465 570.663 152.77C570.543 158.74 571.395 164.588 571.396 170.543C571.422 180.559 572.034 190.859 570.905 200.868C570.548 202.574 573.049 203.153 573.447 201.339C574.74 189.981 574.038 178.542 573.933 167.207C573.539 159.691 572.619 152.037 574.018 144.525C574.623 139.721 576.402 135.483 577.887 130.951C577.789 129.072 575.064 129.39 575.111 131.25Z" fill="#5F9282" fill-opacity="0.4"/>
<path fill-rule="evenodd" clip-rule="evenodd" d="M538.559 134.53C527.248 166.219 538.927 199.558 534.513 231.834C534.156 233.54 536.657 234.119 537.055 232.306C537.157 231.73 537.259 231.155 537.28 230.795C541.483 197.395 528.672 162.154 543.185 129.959C545.86 129.009 543.1 125.446 541.405 127.935C540.065 129.944 539.393 132.329 538.538 134.584L538.559 134.53Z" fill="#5F9282" fill-opacity="0.4"/>
<path fill-rule="evenodd" clip-rule="evenodd" d="M506.028 146.452C501.835 159.352 500.174 172.903 499.951 186.324C500.161 201.813 502.751 217.282 501.958 232.82C501.694 240.393 501.641 248.17 499.392 255.482C499.128 256.18 499.461 256.982 500.139 257.177C504.067 258.42 504.385 235.887 504.49 232.858C505.139 218.923 503.418 205.134 502.577 191.31C502.245 183.019 502.896 174.732 504.043 166.511C505.24 158.309 507.086 150.229 510.095 142.591C510.878 140.678 511.904 138.734 512.697 136.947C512.819 136.625 512.941 136.302 512.789 135.938C512.507 134.849 510.877 134.722 510.419 135.777C508.743 139.439 507.158 142.706 506.007 146.506L506.028 146.452Z" fill="#5F9282" fill-opacity="0.4"/>
<path fill-rule="evenodd" clip-rule="evenodd" d="M474.186 163.427C466.738 185.836 466.196 209.573 466.445 232.749C466.097 248.64 467.804 265.064 463.77 280.602C463.21 282.231 465.64 283.152 466.22 281.468C469.366 270.26 469.019 258.649 469.077 247.191C469.093 236.454 468.967 225.786 469.105 215.033L469.084 215.087C469.339 200.512 470.648 185.905 474.437 171.626C475.384 168.056 476.281 164.466 477.836 161.127C478.201 160.467 477.889 159.612 477.302 159.328C475.226 158.542 474.857 161.962 474.156 163.354L474.186 163.427Z" fill="#5F9282" fill-opacity="0.4"/>
<path fill-rule="evenodd" clip-rule="evenodd" d="M441.538 205.141C435.006 224.827 435.987 245.764 436.524 266.042C436.741 276.622 437.161 287.585 433.863 297.816C433.304 299.445 435.683 300.347 436.313 298.683C438.44 292.306 439.088 285.553 439.209 278.969C439.451 266.107 438.448 253.327 438.862 240.469C439.023 234.084 439.347 227.577 440.349 221.265C441.198 216.123 442.289 210.95 443.988 206.007C444.598 204.397 442.169 203.476 441.538 205.141Z" fill="#5F9282" fill-opacity="0.4"/>
<path fill-rule="evenodd" clip-rule="evenodd" d="M412.858 255.785C408.035 270.349 410.392 285.975 408.07 300.811C407.487 304.642 406.803 308.435 405.318 312.047C404.831 313.028 404.099 314.347 405.334 315.061C407.611 316.23 408.847 309.455 409.386 307.879C412.78 294.186 411.211 280.147 413.095 266.312C413.617 262.949 414.24 259.624 415.359 256.365C415.645 254.693 418.293 251.828 416.198 250.789C414.325 250.08 413.589 254.466 412.858 255.785Z" fill="#5F9282" fill-opacity="0.4"/>
<path fill-rule="evenodd" clip-rule="evenodd" d="M388.72 290.472C385.834 303.436 387.747 317.483 381.51 329.669C380.727 331.275 383.005 332.445 383.787 330.838C388.521 321.705 388.901 311.228 389.686 301.212C389.964 298.494 390.363 295.76 390.883 293.01C391.078 291.733 391.952 289.425 390.14 289.168C389.451 289.152 388.782 289.697 388.72 290.472Z" fill="#5F9282" fill-opacity="0.4"/>
<path fill-rule="evenodd" clip-rule="evenodd" d="M343.98 283.283C343.854 286.059 351.678 283.744 353.43 283.548C358.882 282.298 364.223 280.27 369.241 277.567C370.457 276.8 373.295 275.727 372.214 273.844C371.001 272.464 369.64 274.526 368.424 274.987C361.946 278.487 355.136 280.879 348.105 281.715C346.757 282.064 344.257 281.178 344.051 283.248L343.98 283.283Z" fill="#5F9282" fill-opacity="0.4"/>
<path fill-rule="evenodd" clip-rule="evenodd" d="M354.651 259.086C354.852 259.776 355.551 260.225 356.22 259.987C358.875 259.09 361.56 258.266 364.276 257.514C371.005 255.644 377.865 253.884 384.251 250.779C385.477 250.138 387.028 249.559 387.709 248.221C388.349 246.683 386.274 245.59 385.431 247.051C378.375 251.315 370.249 252.902 362.547 255.202C360.217 255.854 357.916 256.578 355.596 257.357C354.927 257.594 354.47 258.342 354.671 259.032L354.651 259.086Z" fill="#5F9282" fill-opacity="0.4"/>
<path fill-rule="evenodd" clip-rule="evenodd" d="M362.961 234.856C363.394 236.003 364.732 235.528 365.492 235.202C377.949 230.283 391.03 227.381 403.294 221.898C404.886 220.905 411.088 218.896 409.248 216.419C408.449 215.625 407.496 216.308 406.837 216.979C404.089 218.884 400.937 220.023 397.917 221.273C387.579 225.337 376.888 228.039 366.49 231.958C365.192 232.632 362.326 232.713 362.961 234.856Z" fill="#5F9282" fill-opacity="0.4"/>
<path fill-rule="evenodd" clip-rule="evenodd" d="M373.298 205.744C374.116 207.098 375.587 205.813 376.58 205.33C388.744 199.196 402.189 196.861 414.848 192.019C417.25 191.026 435.705 184.942 433.946 182.25C433.674 181.594 432.884 181.234 432.225 181.598C425.909 185.283 419.2 187.713 412.41 190.052C407.919 192.28 370.428 201.403 373.298 205.744Z" fill="#5F9282" fill-opacity="0.4"/>
<path fill-rule="evenodd" clip-rule="evenodd" d="M383.487 178.542C383.76 179.198 384.549 179.558 385.208 179.194C387.631 177.84 390.115 176.633 392.628 175.498C400.413 172.063 408.238 168.52 415.831 164.521C427.468 158.248 440.403 151.915 448.644 140.856C449.275 139.192 446.967 138.256 446.235 139.882C439.953 147.754 430.95 153.183 422.536 157.976C414.882 162.136 407.137 166.077 399.241 169.654C394.214 171.924 389.126 174.048 384.229 176.736C383.571 177.1 383.235 177.832 383.538 178.561L383.487 178.542Z" fill="#5F9282" fill-opacity="0.4"/>
<path fill-rule="evenodd" clip-rule="evenodd" d="M388.573 144.19C389.26 145.125 390.365 144.5 391.055 143.902C393.934 141.801 397.037 139.723 400.099 138.059C410.114 132.707 420.867 128.923 430.297 122.366C432.964 120.368 436.086 118.543 437.944 115.625C438.555 114.015 436.338 112.991 435.556 114.597C434.074 116.369 432.168 117.734 430.363 119.137C422.829 124.509 414.486 128.347 406.185 132.077C401.208 134.366 396.352 136.947 391.84 140.148C390.704 141.314 387.482 142.18 388.603 144.262L388.573 144.19Z" fill="#5F9282" fill-opacity="0.4"/>
<path fill-rule="evenodd" clip-rule="evenodd" d="M391.123 118.206C392.367 119.352 393.403 117.535 394.346 116.726C397.45 113.727 401.11 111.553 404.688 109.594C407.74 107.497 423.886 101.09 422.908 97.7119C422.637 96.4426 420.773 96.4732 420.406 97.7463C410.976 104.61 399.262 107.416 391.115 116.238C390.618 116.787 390.587 117.634 391.092 118.133L391.123 118.206Z" fill="#5F9282" fill-opacity="0.4"/>
<path fill-rule="evenodd" clip-rule="evenodd" d="M376.701 84.3159C377.946 91.4177 379.131 98.6807 382.261 105.085C384.12 108.736 386.586 112.003 388.769 115.408C389.203 116.248 390.012 117.168 391.016 116.505C391.624 116.122 391.798 115.205 391.434 114.638C386.795 108.091 382.52 101.193 380.942 92.9826C380.389 90.6242 379.977 88.1968 379.616 85.7886C379.395 84.5385 379.348 82.0651 377.524 82.6019C376.855 82.8395 376.429 83.6602 376.65 84.2967L376.701 84.3159Z" fill="#5F9282" fill-opacity="0.4"/>
<path fill-rule="evenodd" clip-rule="evenodd" d="M351.129 99.5541C352.938 109.141 359.176 116.968 365.162 124.085C372.27 132.672 379.581 141.335 385.086 151.094C385.773 152.644 388.185 151.47 387.448 149.902C382.125 140.273 374.996 131.74 368.08 123.411C362.994 117.432 357.838 111.181 354.983 103.592C354.519 102.373 354.125 101.119 353.803 99.8305C353.794 99.0904 353.37 98.3771 352.58 98.3234C351.84 98.2888 351.272 98.8717 351.16 99.6271L351.129 99.5541Z" fill="#5F9282" fill-opacity="0.4"/>
<path fill-rule="evenodd" clip-rule="evenodd" d="M334.182 113.883C334.666 129.107 343.267 141.696 352.671 152.319C361.811 163.64 372.137 174.121 379.147 187.09C379.743 188.114 380.105 190.215 381.717 189.475C382.355 189.165 382.681 188.306 382.408 187.65C381.419 185.372 380.146 183.232 378.852 181.146C368.354 163.786 352.136 150.827 342.196 133.065C339.62 128.098 337.663 122.569 337.166 116.855C336.823 115.313 337.578 112.1 335.309 112.284C334.63 112.395 334.102 113.177 334.233 113.902L334.182 113.883Z" fill="#5F9282" fill-opacity="0.4"/>
<path fill-rule="evenodd" clip-rule="evenodd" d="M316.899 156.139C319.794 163.928 326.066 169.374 331.913 174.719C344.555 187.183 361.176 194.953 372.236 209.15C373.266 211.627 376.166 209.472 374.366 207.501C369.322 200.495 362.431 195.306 355.723 190.248C347.255 184.031 338.847 177.654 331.251 170.356C328.176 167.472 325.08 164.641 322.725 161.232C321.341 159.234 320.169 157.133 319.301 154.84C318.615 153.29 316.202 154.464 316.919 156.086L316.899 156.139Z" fill="#5F9282" fill-opacity="0.4"/>
<path fill-rule="evenodd" clip-rule="evenodd" d="M311.931 167.27C315.876 198.108 350.499 210.612 361.043 237.934C361.73 239.484 364.071 238.345 363.405 236.742C355.1 215.731 334.737 204.395 322.447 186.417C318.879 181.627 316.223 175.955 314.824 170.023C314.309 168.785 315.052 166.672 313.472 166.257C312.774 166.115 312.054 166.641 311.911 167.323L311.931 167.27Z" fill="#5F9282" fill-opacity="0.4"/>
<path fill-rule="evenodd" clip-rule="evenodd" d="M315.98 230.072C326.354 242.412 342.198 247.801 352.461 260.284C353.522 261.607 355.52 259.847 354.479 258.47C346.168 248.323 334.224 242.57 324.259 234.497C322.023 232.607 319.92 230.521 317.998 228.258C316.937 226.935 314.939 228.695 315.98 230.072Z" fill="#5F9282" fill-opacity="0.4"/>
<path fill-rule="evenodd" clip-rule="evenodd" d="M322.1 262.348C329.514 269.515 338.743 275.099 343.895 284.418C344.419 286.09 346.852 285.17 346.378 283.517C341.349 273.57 331.583 267.721 323.855 260.312C322.611 259.165 320.876 261.148 322.049 262.329L322.1 262.348Z" fill="#5F9282" fill-opacity="0.4"/>
<path fill-rule="evenodd" clip-rule="evenodd" d="M321.033 286.253C326.212 290.917 331.34 296.174 334.653 302.402C334.926 303.058 335.756 303.311 336.374 303.054C337.834 302.257 336.742 300.554 336.146 299.53C332.478 293.782 327.877 288.662 322.839 284.236C322.313 283.792 321.523 283.738 321.006 284.34C320.509 284.888 320.507 285.809 321.033 286.253Z" fill="#5F9282" fill-opacity="0.4"/>
<path fill-rule="evenodd" clip-rule="evenodd" d="M335.686 308.38C335.977 309.902 337.578 309.342 338.642 309.131C341.975 308.737 345.297 308.829 348.406 309.638C349.681 310.244 350.96 308.396 349.898 307.38C348.33 306.172 335.123 304.974 335.736 308.399L335.686 308.38Z" fill="#5F9282" fill-opacity="0.4"/>
<path fill-rule="evenodd" clip-rule="evenodd" d="M162.132 632.631C162.536 633.092 163.255 633.18 163.793 632.831C172.03 631.102 180.339 629.032 187.902 624.96C199.813 618.423 210.918 609.739 224.272 607.186C225.883 606.752 225.431 604.126 223.77 604.54C218.663 605.797 213.585 607.434 208.76 609.781C199.353 614.443 190.906 621.31 181.145 625.224C176.118 627.187 171.001 628.625 165.732 629.698C164.212 630.043 160.626 630.342 162.091 632.739L162.132 632.631Z" fill="#5F9282" fill-opacity="0.4"/>
<path fill-rule="evenodd" clip-rule="evenodd" d="M149.089 604.423C149.675 605.32 150.699 604.91 151.419 604.385C164.228 600.214 176.574 594.823 188.051 587.446C202.174 578.739 217.278 571.262 232.662 565.795C234.03 565.086 236.876 565.366 236.728 563.161C236.597 562.437 235.848 561.969 235.2 562.153C229.991 563.678 224.893 565.676 219.886 567.892C206.871 573.52 194.403 580.153 182.378 587.753C174.054 592.764 165.307 596.755 156.247 599.891C154.523 600.773 147.543 601.628 149.018 604.458L149.089 604.423Z" fill="#5F9282" fill-opacity="0.4"/>
<path fill-rule="evenodd" clip-rule="evenodd" d="M167.895 559.368C168.895 561.159 171.138 558.755 172.627 558.644C183.206 555.47 193.443 551.368 203.256 545.938C215.756 539.072 229.063 534.045 242.852 531.719C244.96 531.351 247.118 531.002 249.276 530.653C249.975 530.488 250.513 529.833 250.382 529.108C250.272 528.329 249.543 527.808 248.773 528.007C246.443 528.352 244.092 528.751 241.742 529.149C224.863 531.84 208.978 539.696 193.773 547.748C188.907 550.201 183.779 552.126 178.661 553.87C176.603 554.564 174.708 555.136 172.651 555.829C171.09 556.589 167.16 556.88 167.895 559.368Z" fill="#5F9282" fill-opacity="0.4"/>
<path fill-rule="evenodd" clip-rule="evenodd" d="M192.935 518.025C193.976 520.015 196.998 517.231 198.589 516.852C205.725 513.601 212.971 511.128 220.48 509.184C228.637 507.057 237.015 506.179 245.302 505.083C251.189 504.366 257.136 503.489 262.569 500.759C264.059 500.034 263.101 497.523 261.54 498.282C254.403 501.84 246.563 502.062 238.964 503.173C230.596 504.177 222.237 505.614 214.039 508.156C207.057 510.238 200.256 513.063 193.576 516.18C192.938 516.491 192.612 517.35 192.885 518.006L192.935 518.025Z" fill="#5F9282" fill-opacity="0.4"/>
<path fill-rule="evenodd" clip-rule="evenodd" d="M223.851 482.713C224.053 483.403 224.771 483.798 225.44 483.56C227.305 482.916 229.18 482.399 231.034 481.935C241.643 479.14 252.564 478.121 263.033 474.782C266.924 473.371 270.796 471.707 274.466 469.66C275.125 469.295 275.41 468.544 275.158 467.834C274.885 467.179 274.096 466.818 273.437 467.182C270.801 468.639 268.003 469.912 265.246 471.078C254.939 475.215 243.917 475.889 233.278 478.61C230.552 479.235 227.806 479.914 225.13 480.864C224.31 481.045 223.559 481.804 223.851 482.713Z" fill="#5F9282" fill-opacity="0.4"/>
<path fill-rule="evenodd" clip-rule="evenodd" d="M213.984 639.079C218.007 651.223 222.07 663.874 221.068 677.061C221.188 677.966 222.221 678.296 222.951 677.897C223.701 677.445 223.723 676.471 223.765 675.75C224.287 664.898 221.669 654.391 218.423 644.321C217.768 642.231 217.011 640.103 216.406 638.032C216.205 637.342 215.395 637.035 214.706 637.326C214.017 637.618 213.711 638.423 213.964 639.132L213.984 639.079Z" fill="#5F9282" fill-opacity="0.4"/>
<path fill-rule="evenodd" clip-rule="evenodd" d="M224.271 601.844C227.054 609.775 231.288 617.088 234.801 624.619C238.072 632.181 241.069 640.008 242.454 648.268C243.328 653.449 243.614 658.652 244.001 663.894C244.07 665.087 244.574 666.813 246.003 666.249C246.692 665.958 246.997 665.152 246.745 664.443C245.425 639.203 239.749 628.519 229.216 606.972C228.297 604.966 227.45 602.926 226.693 600.798C226.441 600.088 225.682 599.801 224.992 600.092C224.303 600.383 223.998 601.189 224.25 601.898L224.271 601.844Z" fill="#5F9282" fill-opacity="0.4"/>
<path fill-rule="evenodd" clip-rule="evenodd" d="M236.79 560.852C243.572 577.786 254.287 592.589 261.372 609.332C266.582 620.943 270.108 633.329 272.764 645.877C273.166 647.564 275.649 646.97 275.287 645.175C272.893 633.771 269.8 622.531 265.349 611.821C259.97 598.671 252.756 586.545 246.11 574.144C243.584 569.504 240.937 564.879 239.213 559.805C238.668 558.187 236.175 559.268 236.79 560.852Z" fill="#5F9282" fill-opacity="0.4"/>
<path fill-rule="evenodd" clip-rule="evenodd" d="M249.523 527.248C254.271 542.061 265.316 553.244 272.781 566.386C276.843 573.081 280.469 580.164 283.71 587.347C287.95 596.934 292.017 606.824 292.862 617.58C292.88 618.753 293.698 620.414 295.037 619.631C295.645 619.248 295.899 618.424 295.556 617.802C294.48 605.976 290.161 595.07 285.304 584.513C278.188 568.311 268.029 554.026 258.164 539.73C255.547 535.485 253.548 530.983 251.925 526.255C251.38 524.636 248.907 525.664 249.502 527.301L249.523 527.248Z" fill="#5F9282" fill-opacity="0.4"/>
<path fill-rule="evenodd" clip-rule="evenodd" d="M263.466 496.555C269.047 510.701 279.574 521.872 287.172 534.819C290.568 540.218 293.588 545.844 296.375 551.627C298.909 557.314 302.172 562.909 303.135 569.228C302.758 570.988 305.35 571.479 305.697 569.646C305.483 563.795 302.29 558.472 300.09 553.28C292.509 535.858 280.731 520.96 270.756 505.271C268.918 502.181 266.977 499.051 265.889 495.508C265.324 493.944 262.871 494.917 263.466 496.555Z" fill="#5F9282" fill-opacity="0.4"/>
<path fill-rule="evenodd" clip-rule="evenodd" d="M274.663 466.235C278.836 486.233 296.33 499.184 301.092 518.852C301.495 520.539 303.998 519.891 303.615 518.15C300.274 503.44 289.736 492.756 282.918 480.044C280.615 475.427 278.08 470.66 277.186 465.533C276.783 463.846 274.28 464.494 274.663 466.235Z" fill="#5F9282" fill-opacity="0.4"/>
<path fill-rule="evenodd" clip-rule="evenodd" d="M282.937 442.112C284.811 448.776 288.306 454.828 291.894 460.484C293.47 463.046 294.975 465.642 296.136 468.23C296.712 469.308 296.921 471.659 298.665 471.03C299.303 470.719 299.659 469.933 299.407 469.224C296.491 461.489 291.142 455.288 287.851 447.779C286.922 445.647 286.024 443.588 285.409 441.391C285.007 439.704 282.483 440.405 282.886 442.092L282.937 442.112Z" fill="#5F9282" fill-opacity="0.4"/>
<path fill-rule="evenodd" clip-rule="evenodd" d="M105.384 432.857C116.054 436.47 127.577 439.669 137.596 445.306C138.375 445.847 139.539 446.595 140.331 445.422C140.727 444.835 140.607 443.93 139.989 443.573C137.824 442.262 135.546 441.092 133.258 440.103C125.727 436.758 117.942 433.931 109.994 431.534C108.556 431.358 106.199 429.789 105.264 431.645C105.101 432.074 105.111 432.508 105.384 432.857Z" fill="#5F9282" fill-opacity="0.4"/>
<path fill-rule="evenodd" clip-rule="evenodd" d="M109.366 405.083C109.141 405.98 110.021 406.866 110.862 406.632C119.235 409.436 127.587 412.6 135.766 415.76C146.942 420.179 156.574 427.757 166.125 434.936C167.502 435.887 168.994 433.629 167.618 432.677C160.07 426.933 152.472 421.169 144.233 416.635C137.938 413.391 131.246 411.04 124.625 408.654C121.031 407.292 117.417 405.984 113.803 404.677C112.446 404.285 110.007 402.932 109.366 405.083Z" fill="#5F9282" fill-opacity="0.4"/>
<path fill-rule="evenodd" clip-rule="evenodd" d="M124.532 376.205C124.359 377.121 125.087 377.95 125.958 377.789C135.788 381.636 145.708 386.008 154.928 391.158C170.19 399.765 182.882 413.168 199.363 419.473C200.922 419.941 201.858 417.472 200.238 416.858C187.259 412.002 176.76 402.131 165.285 394.53C156.047 387.899 145.803 383.159 135.458 378.687C132.765 377.544 130.093 376.347 127.36 375.312C126.438 374.84 124.859 374.732 124.553 376.151L124.532 376.205Z" fill="#5F9282" fill-opacity="0.4"/>
<path fill-rule="evenodd" clip-rule="evenodd" d="M174.484 373.461C174.33 374.324 174.947 374.988 175.717 375.095C187.931 382.731 198.612 393.039 212.025 398.735C217.451 401.22 223.12 403.368 228.922 404.706C229.62 404.848 230.29 404.304 230.453 403.568C230.688 402.49 229.716 401.999 228.845 401.853C214.437 398.175 201.574 390.723 189.888 381.692C186.549 379.199 183.301 376.618 179.901 374.286C178.444 373.55 175.47 370.704 174.504 373.408L174.484 373.461Z" fill="#5F9282" fill-opacity="0.4"/>
<path fill-rule="evenodd" clip-rule="evenodd" d="M220.172 377.694C220.262 378.219 220.687 378.625 221.183 378.691C222.317 379.366 223.338 380.182 224.38 380.946C231.189 386.656 239.165 390.66 247.873 392.425C248.572 392.566 249.241 392.022 249.404 391.286C249.68 389.794 247.999 389.648 246.997 389.391C240.02 387.792 233.562 384.67 227.957 380.214C226.368 379.366 220.513 372.973 220.212 377.586L220.172 377.694Z" fill="#5F9282" fill-opacity="0.4"/>
<path fill-rule="evenodd" clip-rule="evenodd" d="M111.115 488.622C111.53 488.595 111.976 488.334 112.189 487.924C113.904 485.688 115.65 483.526 117.284 481.198C125.546 470.393 131.581 457.823 139.691 446.96C140.787 445.595 138.905 443.839 137.759 445.185C134.135 450.012 130.896 455.047 127.82 460.266C123.991 466.857 119.696 473.456 115.241 479.565C113.515 481.98 111.607 484.266 109.902 486.628C109.455 487.502 110.162 488.691 111.084 488.549L111.115 488.622Z" fill="#5F9282" fill-opacity="0.4"/>
<path fill-rule="evenodd" clip-rule="evenodd" d="M139.261 498.056C139.746 498.608 140.536 498.662 141.084 498.133C141.449 497.78 141.602 497.224 141.491 496.752C146.396 488.236 149.55 478.995 152.978 469.795C155.204 464.377 157.633 459.036 160.011 453.675C162.369 448.368 164.94 442.958 168.31 438.341C169.072 436.788 172.326 434.767 170.819 433.092C169.039 431.68 167.503 435.58 166.357 436.619C162.044 442.352 159.228 449.02 156.331 455.596C152.104 464.615 148.606 473.848 145.188 483.174C143.643 486.947 141.865 490.571 139.885 494.118C139.316 495.314 138.28 496.825 139.21 498.037L139.261 498.056Z" fill="#5F9282" fill-opacity="0.4"/>
<path fill-rule="evenodd" clip-rule="evenodd" d="M168.189 498.397C168.329 499.861 170.547 499.965 170.772 498.454C174.112 493.765 176.702 488.607 178.888 483.296C184.023 470.202 187.315 456.47 192.784 443.563C196.006 435.821 199.401 428.083 203.312 420.663C203.85 419.701 204.855 418.424 203.681 417.55C202.366 416.744 201.563 418.405 201.055 419.44C198.394 424.325 196.148 429.49 193.82 434.563C186.606 449.94 182.509 466.559 176.509 482.395C174.649 486.847 172.485 491.184 169.855 495.222C169.347 496.257 168.09 497.131 168.189 498.397Z" fill="#5F9282" fill-opacity="0.4"/>
<path fill-rule="evenodd" clip-rule="evenodd" d="M223.789 423.141C218.806 436.294 217.296 450.516 211.908 463.515C209.967 468.182 207.509 472.53 205.314 477.101C204.999 477.78 205.261 478.616 205.848 478.899C206.486 479.202 207.297 478.896 207.612 478.217C208.902 475.575 210.223 473.006 211.564 470.383C217.263 459.466 219.6 447.338 222.555 435.565C225.234 425.592 229.098 415.699 233.994 406.749C235.009 404.985 236.096 403.187 237.192 401.515C237.609 400.874 237.418 400.004 236.851 399.667C236.254 399.256 235.484 399.456 235.067 400.096C230.276 407.243 226.8 415.196 223.749 423.249L223.789 423.141Z" fill="#5F9282" fill-opacity="0.4"/>
<path fill-rule="evenodd" clip-rule="evenodd" d="M247.74 406.065C246.893 410.286 246.29 414.478 245.341 418.661C245.248 420.283 243.176 423.611 245.343 424.31C247.47 424.501 247.121 420.993 247.791 419.528C249.832 409.865 250.617 399.542 256.119 391.129C256.536 390.489 256.395 389.637 255.778 389.281C252.833 387.122 247.997 403.706 247.72 406.118L247.74 406.065Z" fill="#5F9282" fill-opacity="0.4"/>
<path fill-rule="evenodd" clip-rule="evenodd" d="M235.396 178.609C236.027 183.513 235.513 188.537 234.493 193.368C233.15 197.218 231.534 201.026 231.193 205.133C231.039 206.916 233.561 207.135 233.786 205.317C234.077 200.884 236.25 196.981 237.34 192.728C237.81 190.266 238.006 187.455 238.182 185.005C238.217 182.317 238.697 179.368 237.526 176.96C236.566 175.675 234.578 177.255 235.396 178.609Z" fill="#5F9282" fill-opacity="0.4"/>
<path fill-rule="evenodd" clip-rule="evenodd" d="M246.888 217.032C246.521 218.919 243.785 225.986 246.439 226.316C247.107 226.385 247.848 225.806 247.889 225.085C248.055 222.815 248.585 220.499 249.206 218.401C251.933 210.287 257.422 203.588 260.969 195.908C262.819 191.943 263.858 187.671 264.898 183.4C265.032 181.67 267.105 177.422 264.715 177.007C263.996 176.919 263.357 177.536 263.264 178.238C262.365 183.668 260.989 189.285 258.834 194.362C255.247 202.15 249.767 208.976 246.919 217.105L246.888 217.032Z" fill="#5F9282" fill-opacity="0.4"/>
<path fill-rule="evenodd" clip-rule="evenodd" d="M259.247 241.85C258.911 243.503 257.01 247.755 259.278 248.185C259.997 248.273 260.637 247.656 260.729 246.954C260.924 244.757 261.616 242.625 262.511 240.569C267.593 228.682 277.047 219.618 283.213 208.387C284.046 206.493 289.011 198.429 285.426 198.114C284.717 198.152 284.179 198.808 284.128 199.402C284.014 200.771 283.313 202.163 282.866 203.344C276.585 217.172 264.425 227.421 259.298 241.869L259.247 241.85Z" fill="#5F9282" fill-opacity="0.4"/>
<path fill-rule="evenodd" clip-rule="evenodd" d="M271.915 273.353C271.568 275.186 269.492 281.582 272.47 281.36C273.22 281.214 273.606 280.501 273.546 279.742C273.965 270.692 279.072 262.559 283.611 255.009C286.606 250.619 290.066 246.834 293.404 242.758C294.145 241.872 294.967 240.772 295.667 239.994C296.215 239.464 296.297 238.636 295.862 238.103C294.062 236.439 292.74 239.928 291.523 241.002C283.182 250.488 275.661 261.021 271.965 273.372L271.915 273.353Z" fill="#5F9282" fill-opacity="0.4"/>
<path fill-rule="evenodd" clip-rule="evenodd" d="M283.735 301.281C282.717 304.578 282.591 307.968 282.464 311.358C282.423 312.079 283.11 312.708 283.769 312.65C284.478 312.612 285.016 311.956 285.057 311.235C284.738 301.538 289.653 292.841 294.315 284.662C295.797 282.277 297.33 279.911 299.066 277.622C299.797 276.303 302.484 274.558 300.795 273.059C300.086 272.484 299.123 273.04 298.737 273.753C297.844 274.888 296.951 276.023 296.038 277.211C290.82 284.566 286.503 292.753 283.644 301.369L283.685 301.261L283.735 301.281Z" fill="#5F9282" fill-opacity="0.4"/>
<path fill-rule="evenodd" clip-rule="evenodd" d="M293.334 323.766C293.17 325.422 291.439 330.906 293.667 331.136C294.336 331.205 295.076 330.626 295.118 329.905C295.268 324.314 297.231 318.98 299.983 314.314C300.612 313.263 301.262 312.159 302.024 311.22C302.581 310.817 302.714 310.008 302.371 309.387C302.027 308.765 301.227 308.585 300.599 309.022C297.017 313.129 294.689 318.509 293.314 323.819L293.334 323.766Z" fill="#5F9282" fill-opacity="0.4"/>
<path fill-rule="evenodd" clip-rule="evenodd" d="M198.094 198.544C201.179 200.941 204.864 202.828 208.508 204.209C214.147 205.977 220.225 205.824 226.058 206.622C227.425 206.833 228.752 207.151 230.058 207.523C230.716 207.773 231.497 207.393 231.761 206.695C232.025 205.997 231.692 205.196 231.034 204.947C223.33 202.519 214.859 204.098 207.409 200.846C204.808 199.614 202.389 198.207 200.092 196.784C199.06 195.841 197.366 197.409 198.144 198.563L198.094 198.544Z" fill="#5F9282" fill-opacity="0.4"/>
<path fill-rule="evenodd" clip-rule="evenodd" d="M192.541 220.69C208.002 231.52 228.323 223.565 245.577 227.83C247.177 228.191 247.879 225.572 246.178 225.173C232.326 222.012 217.745 225.512 203.852 222.766C200.308 222.037 196.927 220.572 194.053 218.378C192.677 217.427 191.155 219.613 192.51 220.617L192.541 220.69Z" fill="#5F9282" fill-opacity="0.4"/>
<path fill-rule="evenodd" clip-rule="evenodd" d="M196.22 251.92C196.107 252.675 196.673 253.32 197.342 253.389C200.016 253.665 202.74 253.654 205.455 253.516C211.057 253.244 216.639 252.719 222.252 251.96C230.813 250.6 239.305 248.353 247.884 248.473C250.983 248.542 254.083 248.611 256.968 249.398C257.383 249.678 257.93 249.762 258.397 249.447C259.674 248.52 258.836 246.913 257.519 246.721C244.862 243.767 231.901 247.881 219.247 249.655C213.401 250.265 207.434 250.889 201.59 250.885C200.019 251.211 196.608 249.673 196.22 251.92Z" fill="#5F9282" fill-opacity="0.4"/>
<path fill-rule="evenodd" clip-rule="evenodd" d="M222.598 283.89C222.506 284.591 223.032 285.343 223.721 285.358C226.111 285.466 228.421 285.175 230.66 284.918C241.683 283.324 252.676 281.35 263.767 281.561C265.965 281.719 268.264 281.608 270.319 282.448C270.845 282.893 271.737 282.678 272.133 282.091C273.708 278.698 265.706 279.042 263.801 278.873C252.518 278.711 241.109 280.712 229.965 282.322C227.969 282.548 225.973 282.774 223.978 282.693C223.238 282.659 222.62 283.222 222.528 283.924L222.598 283.89Z" fill="#5F9282" fill-opacity="0.4"/>
<path fill-rule="evenodd" clip-rule="evenodd" d="M249.039 310.053C249.461 312.3 253.303 310.257 254.691 310.414C264.355 309.655 274.17 309.875 283.495 312.61C284.568 313.139 286.108 312.433 285.776 311.018C285.635 310.474 285.16 310.048 284.572 310.071C282.011 309.346 279.408 308.729 276.745 308.272C274.072 307.382 247.931 305.95 249.039 310.053Z" fill="#5F9282" fill-opacity="0.4"/>
<path fill-rule="evenodd" clip-rule="evenodd" d="M276.691 330.411C276.7 331.151 277.286 331.742 277.995 331.703C280.143 331.535 282.321 331.439 284.479 331.397C287.386 331.516 290.374 331.421 293.158 332.169C293.553 332.502 294.171 332.552 294.637 332.238C297.762 328.572 288.483 328.924 286.701 328.74C283.794 328.621 280.907 328.755 277.979 328.996C277.27 329.034 276.682 329.671 276.691 330.411Z" fill="#5F9282" fill-opacity="0.4"/>
<path fill-rule="evenodd" clip-rule="evenodd" d="M155.435 300.277C161.857 301.078 166.887 305.387 172.413 308.387C175.774 310.296 179.195 312.045 182.718 313.607C189.806 316.7 197.041 319.486 204.065 322.828C212.682 326.909 220.68 331.571 229.751 334.373C243.264 337.77 256.122 343.14 269.695 346.378C276.318 347.617 282.896 348.976 289.46 350.374C289.594 350.425 290.05 350.598 290.209 350.341C290.224 350.301 290.239 350.262 290.227 350.212C290.058 350.011 289.801 349.96 289.574 349.828C289.709 349.879 289.786 349.999 289.905 350.09C282.66 346.438 275.581 342.35 267.979 339.561C260.508 336.912 253.13 333.935 245.644 331.326C238.17 328.766 230.392 327.089 223.264 323.617C212.255 317.905 201.166 312.57 189.665 308.077C179.169 304.01 167.691 297.349 155.481 300.159L155.435 300.277Z" fill="#5F9282" fill-opacity="0.4"/>
<path fill-rule="evenodd" clip-rule="evenodd" d="M101.296 403.008C99.2581 411.137 98.1923 419.451 97.4911 427.718C96.6982 436.381 96.6844 445.584 93.1473 453.698C90.3338 458.832 86.4551 465.098 81.0733 467.233C83.2607 467.571 87.9253 464.12 90.4404 462.065C101.899 453.514 104.454 438.214 106.298 424.793C108.018 405.739 112.354 384.668 131.137 375.884C141.617 371.751 152.816 374.275 163.409 375.342C169.81 376.171 176.231 376.946 182.631 377.775C195.543 379.29 208.313 381.795 221.358 382.195C238.062 381.955 255.223 380.66 271.266 374.829C258.996 376.81 246.438 375.736 234.07 375.532C217.874 375.657 202.127 372.76 186.38 370.171C180.02 369.235 173.701 368.498 167.341 367.562C154.084 366.039 139.858 362.49 126.924 368.518C113.777 374.955 104.802 388.559 101.337 402.901L101.296 403.008Z" fill="#5F9282" fill-opacity="0.4"/>
<path fill-rule="evenodd" clip-rule="evenodd" d="M150.897 573.677C145.291 590.461 140.763 610.661 149.998 626.315C153.878 632.573 160.001 636.428 165.301 641.076C174.012 648.182 181.2 657.474 184.627 668.595C185.846 672.863 187.622 677.342 187.342 681.901C187.221 681.916 187.089 681.805 186.917 681.801C187.322 681.955 187.474 682.012 187.636 681.583C188.403 676.655 187.783 671.571 187.203 666.685C185.722 654.399 180.067 643.048 171.439 634.807C158.835 623.463 152.479 620.072 153.075 600.47C154.298 575.702 166.719 553.151 181.506 534.136C193.643 519.213 209.44 508.377 223.63 495.828C233.874 486.817 243.39 476.978 252.805 467.101C266.155 453.558 278.151 438.09 285.359 420.133C287.382 415.251 289.274 410.259 290.041 405.024C289.533 406.06 289.187 407.279 288.709 408.387C279.453 427.165 266.291 443.726 252.29 458.987C240.968 470.842 229.515 482.587 217.03 493.081C206.421 502.138 195.014 510.094 184.981 519.922C170.18 535.002 158.413 553.687 150.867 573.604L150.897 573.677Z" fill="#5F9282" fill-opacity="0.4"/>
<path fill-rule="evenodd" clip-rule="evenodd" d="M339.375 408.491C355.681 443.522 376.176 454.663 407.195 472.861C429.511 485.306 454.266 492.843 475.586 507.305C488.499 515.39 498.144 527.516 507.374 539.668C517.666 553.144 527.054 567.321 534.648 582.722C539.869 593.847 544.247 605.512 546.528 617.672C547.024 604.6 544.157 591.236 539.627 579.206C533.007 562.762 523.193 548.179 512.933 534.162C505.109 523.647 496.879 513.285 486.712 505.136C467.357 490.375 444.874 480.813 422.888 471.01C391.845 455.627 360.309 437.725 339.456 408.583L339.375 408.491Z" fill="#5F9282" fill-opacity="0.4"/>
<path fill-rule="evenodd" clip-rule="evenodd" d="M353.45 371.648C367.878 376.193 383.243 376.735 398.377 376.207C413.521 375.499 428.698 373.33 443.633 369.964C467.527 364.037 490.377 357.961 513.756 350.796C534.621 344.459 555.749 338.958 577.207 336.099C592.657 334.279 607.966 331.3 623.376 328.974C647.57 325.923 676.653 331.355 688.965 354.928C691.348 359.944 692.656 365.351 694.016 370.777C696.916 382.066 699.897 393.448 704.49 404.089C707.064 409.976 710.135 415.62 713.084 421.281C715.498 425.756 717.892 430.591 721.239 434.131C718.884 430.722 717.361 426.339 715.949 422.427C712.096 411.514 708.598 400.427 706.417 388.919C700.162 365.248 701.194 346.178 680.229 330.93C661.44 316.813 636.494 315.281 613.707 319.356C598.915 322.039 584.012 323.944 569.139 326.228C546.828 330.421 524.929 337.042 503.292 344.499C484.442 350.556 465.472 356.322 446.502 361.781C428.14 366.857 409.509 369.129 390.798 370.696C378.327 371.987 365.674 372.842 353.379 371.683L353.45 371.648Z" fill="#5F9282" fill-opacity="0.4"/>
<path fill-rule="evenodd" clip-rule="evenodd" d="M341.345 331.027C342.205 331.353 343.229 330.943 344.07 330.709C349.633 329.011 354.955 326.423 359.964 323.287C373.379 314.004 384.6 301.496 394.698 288.44C410.387 269.337 423.333 248.152 435.955 226.905C469.871 170.998 487.357 135.08 557.065 135.952C572.664 135.723 588.285 134.521 603.895 134.112C588.615 130.901 573.153 126.946 557.425 125.53C526.373 122.544 492.789 132.964 470.59 157.642C457.217 172.466 447.77 190.373 437.393 207.375C426.629 225.09 416.422 243.323 405.264 260.705C394.878 276.66 383.349 291.814 371 306.227C363.734 315.016 355.992 323.685 346.058 329.13C344.568 329.854 342.915 331.008 341.365 330.974L341.345 331.027Z" fill="#5F9282" fill-opacity="0.4"/>
<path fill-rule="evenodd" clip-rule="evenodd" d="M314.148 139.873C302.416 169.008 308.023 198.819 312.274 228.238C315.056 250.84 318.82 273.752 317.58 296.733C316.78 310.304 315.858 324.197 311.533 337.292C320.472 320.42 325.512 296.116 325.391 275.505C324.754 247.7 319.497 220.478 316.723 192.968C314.547 171.21 317.62 148.125 329.227 128.949C337.593 115.421 349.896 104.796 363.217 97.1357C374.257 91.3731 385.326 85.6834 395.659 78.4252C390.085 80.3037 384.288 82.466 378.562 83.9802C371.763 85.5787 364.914 87.1581 358.518 90.1371C338.508 99.868 322.091 118.449 314.199 139.892L314.148 139.873Z" fill="#5F9282" fill-opacity="0.4"/>
<path fill-rule="evenodd" clip-rule="evenodd" d="M189.486 223.4C179.688 259.038 212.485 287.364 236.991 304.874C247.869 312.372 258.97 319.586 269.228 327.954C276.33 334.266 282.942 342.174 286.292 351.362C286.372 351.761 286.381 352.194 286.361 352.554L286.462 352.593C286.991 351.197 286.426 349.632 286.215 348.202C284.836 342.83 282.645 337.764 280.363 332.786C273.336 318.03 259.949 308.6 247.311 299.637C234.865 290.625 222.694 281.041 212.451 269.425C207.738 264.141 203.584 258.147 200.596 251.674C195.303 241.504 191.148 229.555 194.336 217.625C195.466 214.186 196.919 210.808 198.403 207.502C194.901 212.314 190.984 217.46 189.516 223.473L189.486 223.4Z" fill="#5F9282" fill-opacity="0.4"/>
</svg>
