<svg width="995" height="1012" viewBox="0 0 995 1012" fill="none" xmlns="http://www.w3.org/2000/svg">
<path fill-rule="evenodd" clip-rule="evenodd" d="M884.891 811.551C881.791 812.635 878.418 811.727 875.292 811.068C866.236 809.059 858.98 803.078 852.581 796.675C843.353 787.623 834.589 778.113 826.112 768.39C800.324 739.078 771.957 712.81 743.45 686.327C703.203 648.396 660.378 613.507 618.126 577.911C585.744 551.157 551.212 527.164 517.647 502.003C487.52 478.817 456.537 456.054 423.863 436.659C392.644 417.806 360.779 399.945 327.222 385.595C317.93 381.344 308.206 377.873 299.165 373.233C298.246 372.303 298.148 370.844 299.007 369.854C299.722 369.146 300.862 368.869 301.784 369.301C302.318 369.197 302.922 369.236 303.419 369.524C306.645 371.143 309.873 372.62 313.136 374.062C319.13 376.693 325.125 379.253 331.228 381.707C350.671 389.289 370.439 396.055 389.269 405.091C421.126 418.364 448.885 439.082 478.117 457.07C507.951 475.666 537.068 495.324 565.897 515.408C581.234 525.846 596.749 536.179 611.477 547.503C637.495 567.819 662.12 589.371 687.351 610.607C733.007 647.859 776.335 687.836 817.41 730.11C839.537 753 863.273 774.582 882.897 799.733C884.555 802.125 886.39 804.554 887.048 807.439C887.323 809.076 886.672 810.993 884.997 811.587L884.891 811.551ZM881.858 807.266C875.308 796.132 865.336 786.614 856.821 777.141C836.992 756.434 816.52 736.293 796.442 715.763C770.564 689.58 743.184 664.953 715.66 640.538C695.137 623.064 674.148 606.191 653.911 588.434C636.817 574.358 620.152 559.858 602.413 546.703C591.295 538.387 579.784 530.603 568.272 522.818C550.455 510.801 532.996 498.288 515 486.447C494.561 472.92 473.69 460.102 453.071 446.823C430.365 431.719 407.687 417.717 382.571 407.256C430.711 433.285 476.302 463.389 519.312 497.176C549.655 519.793 580.465 541.738 610.235 565.134C661.586 607.647 712.793 650.301 761.244 696.175C787.698 721.152 813.901 746.377 837.565 774.041C843.006 780.118 848.237 785.554 853.929 791.242C861.458 799.074 870.41 806.772 881.822 807.23L881.858 807.266Z" fill="#5F9282" fill-opacity="0.4"/>
<path fill-rule="evenodd" clip-rule="evenodd" d="M305.153 376.932C303.797 377.635 302.488 376.596 301.21 376.162C285.631 370.558 269.325 367.725 253.309 363.897C222.802 357.139 192.552 348.782 162.952 338.794C143.682 331.96 124.847 323.848 106.479 314.778C100.132 311.576 93.8211 308.339 87.5821 304.959C84.677 303.093 80.5229 301.966 79.2627 298.545C78.7113 295.555 81.5282 294.255 84.121 294.804C87.3202 295.036 90.482 295.588 93.608 296.175C109.06 299.146 124.256 303.29 139.38 307.575C164.41 314.656 189.51 321.666 214.141 329.99C238.416 338.525 261.858 349.367 284.727 360.987C292.173 364.8 299.619 368.542 307.028 372.533C309.616 373.864 308.063 377.945 305.153 376.932ZM264.88 361.582C269.923 362.749 274.966 363.917 279.973 365.12C281.429 365.449 282.85 365.812 284.341 366.177C266.189 356.753 247.143 348.071 228.305 340.386C209.04 332.698 189.017 326.962 169.137 321.014C142.474 313.567 115.995 305.09 88.8191 300.201C108.28 310.877 128.459 320.277 149.037 328.506C186.505 343.021 225.671 352.888 264.845 361.617L264.88 361.582Z" fill="#5F9282" fill-opacity="0.4"/>
<path fill-rule="evenodd" clip-rule="evenodd" d="M327.145 386.52C315.483 386.167 303.952 387.664 292.323 387.774C271.622 388.506 250.933 387.175 230.275 386.521C191.311 384.656 152.269 383.716 113.384 380.501C111.714 380.313 109.972 380.196 108.374 379.725C105.534 378.926 105.273 374.87 108.23 373.927C117.993 370.784 128.209 369.03 138.285 367.062C158.645 363.768 179.214 361.399 199.872 361.912C220.569 361.891 241.068 365.318 261.463 368.354C275.497 370.463 289.641 372.111 303.529 375.002C306.903 375.697 310.241 376.499 313.471 377.62C315.53 378.201 315.688 381.438 313.586 382.102C318.176 381.809 322.729 381.551 327.351 381.791C328.63 381.87 329.726 382.979 329.648 384.259C329.569 385.538 328.46 386.634 327.145 386.52ZM301.812 382.637C305.227 382.515 308.678 382.286 312.093 382.093C295.408 377.088 278.133 375.777 261.008 373.045C249.532 371.307 238.056 369.568 226.506 368.184C190.186 364.202 153.323 367.826 117.89 376.118C147.891 378.427 178.006 379.28 208.047 380.772C239.3 381.844 270.545 384.125 301.848 382.602L301.812 382.637Z" fill="#5F9282" fill-opacity="0.4"/>
<path fill-rule="evenodd" clip-rule="evenodd" d="M390.21 414.558C371.012 419.744 351.43 423.612 331.646 425.63C313.46 428.048 295.104 429.078 276.756 428.757C260.968 428.594 245.213 428.679 229.459 428.836C212.708 428.986 196.494 428.678 179.985 430.075C174.72 430.471 169.56 431.045 164.364 431.726C162.549 431.964 160.805 432.203 158.99 432.37C157.709 432.576 156.108 432.602 155.262 431.388C154.592 430.424 154.671 429.144 155.458 428.224C170.094 418.779 186.881 412.37 203.901 408.7C223.63 403.908 243.17 401.142 263.338 400.372C273.833 399.544 284.355 400.317 294.845 400.556C317.958 400.763 341.255 400.082 364.267 399.541C365.975 399.338 367.423 401.018 366.88 402.686C366.264 404.567 364.416 404.343 362.852 404.334C358.762 404.416 354.671 404.57 350.866 404.655C335.038 405.024 319.212 405.251 303.351 405.372C293.287 405.419 282.657 404.895 272.736 404.73C253.6 405.471 234.389 406.781 215.694 411.045C199.353 414.186 183.04 418.499 168.343 426.379C187.773 424.004 207.331 424.118 226.855 424.055C249.012 423.652 271.2 424.066 293.392 423.841C313.202 423.424 332.849 420.623 352.459 417.999C364.776 415.867 376.99 412.916 389.1 409.786C392.091 409.164 393.238 413.687 390.139 414.486L390.21 414.558Z" fill="#5F9282" fill-opacity="0.4"/>
<path fill-rule="evenodd" clip-rule="evenodd" d="M450.955 455.917C439.018 453.998 427.174 454.39 415.254 455.565C400.061 456.934 384.867 458.445 369.778 460.348C328.849 466.011 287.716 469.966 246.615 474.597C233.875 476.159 221.1 477.542 208.363 478.676C205.163 478.586 198.215 480.786 197.242 476.868C196.234 472.986 206.737 470.878 209.448 469.472C228.479 462.4 247.826 456.148 267.66 451.748C287.776 447.563 308.033 443.806 328.525 442.29C350.58 441.139 372.632 440.628 394.574 440.508C404.566 440.673 414.556 441.052 424.546 441.644C431.726 442.184 438.483 442.152 445.301 443.757C448.176 444.734 446.941 449.208 443.852 448.3C431.915 446.239 419.859 446.346 407.844 445.636C389.854 444.819 371.891 445.603 354.001 446.102C327.01 446.051 300.281 449.841 273.897 455.341C252.927 459.592 232.476 466.086 212.483 473.473C239.525 470.857 266.466 467.21 293.508 464.737C324.288 461.468 354.966 457.31 385.713 453.649C400.622 452.137 415.497 450.375 430.472 449.787C437.692 449.58 444.873 450.12 451.979 451.158C453.294 451.343 454.139 452.699 453.919 453.907C453.698 455.186 452.448 455.997 451.169 455.847L450.955 455.917Z" fill="#5F9282" fill-opacity="0.4"/>
<path fill-rule="evenodd" clip-rule="evenodd" d="M476.666 474.204C452.54 482.775 428.028 490.597 402.787 495.321C392.713 497.075 382.536 498.083 372.393 499.481C356.84 501.559 341.392 504.029 325.771 505.68C304.955 507.798 284.045 507.818 263.203 508.194C255.522 508.22 247.838 508.672 240.19 509.09C238.27 508.936 237.36 506.442 238.684 505.063C239.328 504.426 240.112 504.217 240.966 504.009C255.21 500.679 269.28 496.885 283.314 492.913C299.589 488.99 315.758 484.818 332.066 481.357C350.576 478.265 369.224 475.885 387.936 474.786C410.454 473.46 433.438 471.532 455.817 469.708C461.013 469.169 466.279 468.56 471.44 467.772C472.866 467.211 474.566 468.359 474.629 469.853C477.839 468.236 480.016 472.943 476.666 474.204ZM443.202 480.338C448.118 478.873 453.07 477.302 457.952 475.659C459.912 474.995 461.871 474.33 463.796 473.63C446.929 475.523 430.031 476.455 413.095 477.921C393.777 479.265 374.285 480.004 355.173 482.702C337.523 484.59 320.109 488.719 303.086 493.029C289.733 495.903 276.659 499.773 263.48 503.394C283.005 503.118 303.063 502.951 322.419 501.215C338.04 499.564 353.559 497.237 369.112 495.088C379.006 493.723 388.934 492.679 398.793 491.137C413.85 488.7 428.597 484.59 443.273 480.338L443.202 480.338Z" fill="#5F9282" fill-opacity="0.4"/>
<path fill-rule="evenodd" clip-rule="evenodd" d="M519.148 500.661C518.222 501.011 517.155 501.004 516.159 501.07C516.578 502.281 515.894 503.807 514.611 504.155C510.943 505.164 507.344 506.317 503.851 507.648C499.289 509.399 494.762 511.328 490.269 513.293C442.591 535.809 388.793 534.675 337.887 543.765C314.53 548.536 290.86 552.344 267.678 557.649C261.304 559.141 254.964 560.811 248.659 562.659C245.918 563.034 241.454 566.172 239.801 563.069C238.505 559.754 243.99 558.364 245.919 556.739C251.523 553.251 257.304 549.871 263.154 546.847C272.144 541.922 280.994 536.71 290.582 532.961C300.348 529.178 310.324 525.965 320.44 523.179C355.669 513.251 392.137 510.3 428.363 506.174C454.41 503.339 480.322 499.508 506.438 497.101C509.996 496.766 513.519 496.467 517.041 496.167C518.466 495.749 520.314 495.902 520.802 497.612C521.151 498.823 520.466 500.277 519.22 500.59L519.148 500.661ZM481.066 512.137C489.087 508.663 497.004 504.94 505.271 502.073C475.062 504.99 445.022 509.365 414.847 512.602C374.212 516.631 333.107 521.973 294.757 536.542C281.855 541.445 270.006 548.772 257.948 555.174C277.893 550.028 298.255 546.591 318.512 542.762C333.678 539.793 348.776 536.539 364.183 535.029C403.577 530.388 444.098 527.461 481.03 512.172L481.066 512.137Z" fill="#5F9282" fill-opacity="0.4"/>
<path fill-rule="evenodd" clip-rule="evenodd" d="M563.87 539.758C519.109 550.057 474.897 563.773 428.896 567.024C408.156 568.29 387.447 570.444 366.709 571.425C351.202 571.761 335.626 571.669 320.151 572.61C313.679 572.714 306.451 574.13 300.159 573.844C297.178 572.76 298.159 569.245 301.113 568.729C310.019 566.078 319.099 564.176 328.074 561.81C338.082 559.273 347.914 556.272 357.955 554.126C379.715 548.813 401.369 543.25 423.578 540.109C469.417 533.905 515.774 530.514 561.977 529.114C564.929 529.024 565.363 533.757 562.091 533.88C531.611 534.448 501.156 536.972 470.807 539.532C446.257 541.593 421.88 544.544 397.776 549.559C386.348 551.661 375.198 554.974 363.874 557.61C350.628 560.378 337.874 564.286 324.769 567.48C348.032 566.479 371.392 567.221 394.558 564.618C407.437 563.556 420.706 562.887 433.479 561.788C454.292 560.168 474.729 555.878 495.132 551.481C513.185 547.569 530.711 542.479 548.694 538.353C553.466 537.172 558.203 535.955 563.009 534.952C564.291 534.675 565.566 535.678 565.736 536.924C565.942 538.276 565.01 539.409 563.764 539.65L563.87 539.758Z" fill="#5F9282" fill-opacity="0.4"/>
<path fill-rule="evenodd" clip-rule="evenodd" d="M605.545 570.549C586.522 576.198 567.498 582.061 548.023 585.965C517.259 592.542 485.84 595.665 454.435 596.298C428.436 596.893 402.436 597.7 376.503 599.078C360.816 599.803 345.021 600.707 329.674 604.137C327.716 604.588 325.721 605.074 323.798 605.561C322.766 605.804 321.661 606.117 320.741 605.401C319.395 604.468 319.443 602.299 320.871 601.454C321.906 600.784 323.187 600.579 324.363 600.194C327.925 599.148 331.488 598.102 335.016 596.878C344.637 593.521 354.083 589.771 363.704 586.485C381.7 580.083 400.426 576.565 419.22 573.617C466.809 566.179 515.009 563.795 563.135 561.908C573.343 561.576 583.622 561.388 593.797 560.523C596.038 560.429 599.46 559.027 600.154 562.089C600.36 563.371 599.463 564.681 598.182 564.816C588.324 566.003 578.437 566.158 568.514 566.491C530.098 568.044 491.612 569.454 453.428 573.96C418.84 577.811 384.102 582.87 351.664 595.909C383.115 593.391 414.735 592.545 446.319 591.663C473.135 591.181 499.993 589.667 526.406 585.127C546.554 581.761 566.245 577.289 585.732 571.393C591.931 569.58 598.094 567.731 604.292 565.919C607.213 565.082 608.752 569.501 605.688 570.479L605.545 570.549Z" fill="#5F9282" fill-opacity="0.4"/>
<path fill-rule="evenodd" clip-rule="evenodd" d="M650.448 602.674C640.831 605.32 631.386 608.999 622.154 612.537C607.72 617.964 593.181 623.071 578.328 627.215C552.862 633.929 526.838 638.791 500.752 642.016C486.624 643.818 472.291 644.054 458.13 645.251C439.519 647.312 420.813 647.558 402.137 648.479C394.596 648.862 387.053 649.458 379.512 649.911C376.276 649.786 368.477 651.696 369.397 646.474C370.622 643.778 374.748 643.518 377.244 642.394C384.371 640.018 391.637 637.998 398.832 635.978C408.663 633.262 418.285 629.762 428.047 626.761C437.95 623.832 447.994 621.259 457.932 618.437C485.785 610.99 513.918 604.327 542.428 599.907C568.268 596.218 594.278 593.703 620.117 590.014C625.456 589.263 630.759 588.547 636.063 587.689C638.981 587.28 640.093 591.767 636.853 592.424C626.922 594.037 616.957 595.33 606.992 596.623C571.617 601.252 535.752 604.384 500.995 612.715C474.715 618.82 448.574 625.423 422.851 633.451C410.629 637.683 398.162 641.166 385.765 644.792C409.709 642.905 433.925 643.154 457.766 640.591C478.685 639.078 499.707 638.312 520.426 634.593C544.276 630.465 568.164 626.018 591.181 618.543C606.073 613.865 620.616 608.118 635.228 602.656C639.398 601.151 643.673 599.825 647.912 598.605C649.41 597.903 651.507 598.022 652.03 599.838C652.414 601.085 651.659 602.468 650.448 602.816L650.448 602.674Z" fill="#5F9282" fill-opacity="0.4"/>
<path fill-rule="evenodd" clip-rule="evenodd" d="M693.26 640.053C680.1 646.484 665.715 649.529 651.368 652.183C634.172 655.603 616.838 658.239 599.403 659.915C568.306 662.649 537.176 664.991 506.022 665.235C502.181 665.355 498.374 665.582 494.534 665.559C492.114 665.758 489.352 663.751 491.145 661.201C492.291 659.856 494.213 659.583 495.746 658.987C499.38 657.871 503.013 656.825 506.647 655.708C521.645 651.209 536.644 646.567 551.886 642.816C577.275 637.097 603.356 634.654 629.258 632.388C646.799 630.89 664.304 629.286 681.878 628.18C684.338 627.092 686.594 630.59 684.45 632.285C683.664 632.92 682.669 632.914 681.744 632.98C679.894 633.112 678.044 633.172 676.158 633.339C668.296 633.897 660.468 634.562 652.641 635.156C624.392 637.48 596.107 639.768 568.164 644.405C547.446 647.911 527.706 654.623 507.65 660.444C523.761 660.289 539.838 659.744 555.919 658.487C590.924 656.416 625.829 653.1 660.119 645.584C667.916 644.03 675.11 642.294 682.416 639.527C685.446 638.372 688.334 637.073 691.258 635.739C692.435 635.212 693.889 635.754 694.416 636.931C694.942 638.107 694.436 639.598 693.224 640.089L693.26 640.053Z" fill="#5F9282" fill-opacity="0.4"/>
<path fill-rule="evenodd" clip-rule="evenodd" d="M714.021 659.341C679.345 678.057 639.703 682.447 601.303 687.45C565.391 692.609 529.004 693.854 492.769 693.534C472.574 692.847 452.307 692.23 432.073 692.218C430.935 692.212 429.761 692.24 428.697 691.736C427.102 690.909 427.045 688.419 428.615 687.504C433.035 685.894 437.943 685.78 442.571 684.812C463.324 681.413 484.185 677.695 505.108 675.541C533.393 673.182 561.746 671.464 589.997 668.856C589.997 668.856 589.997 668.856 589.855 668.855C625.042 666.039 659.651 658.631 694.048 651.081C697.786 650.285 701.56 649.596 705.334 648.906C706.615 648.701 707.89 649.633 708.06 650.878C708.266 652.16 707.37 653.399 706.088 653.605C667.743 661.31 629.567 670.617 590.431 673.588C562.144 676.232 533.685 677.985 505.4 680.273C488.32 682.022 471.376 684.839 454.397 687.619C493.649 688.988 533.012 689.61 572.186 686.034C602.399 682.549 632.787 679.313 662.519 672.837C675.837 669.786 688.769 665.915 701.142 660.262C704.6 658.682 708.024 657.066 711.092 655.448C712.27 654.708 713.905 654.718 714.716 656.038C715.385 657.073 715.091 658.708 713.949 659.341L714.021 659.341Z" fill="#5F9282" fill-opacity="0.4"/>
<path fill-rule="evenodd" clip-rule="evenodd" d="M749.038 691.552C709.951 704.374 669.3 711.177 628.518 715.916C597.523 719.468 566.258 720.601 535.106 720.703C529.025 720.702 522.943 720.702 516.862 720.773C514.409 720.581 511.453 721.453 509.364 719.911C506.753 716.34 511.382 715.229 514.088 714.818C517.79 714.058 521.493 713.368 525.16 712.643C540.293 709.424 555.632 707.274 571.007 705.23C591.507 702.363 611.664 697.432 632.164 694.565C665.515 689.533 699.069 686.209 732.557 682.031C734.799 681.725 737.076 681.596 739.214 680.897C742.099 680.025 743.709 684.444 740.61 685.457C736.122 686.711 731.427 686.826 726.835 687.474C711.462 689.233 696.123 691.313 680.75 693.072C649.543 696.409 618.541 701.171 587.779 707.391C569.623 710.699 551.122 712.297 532.999 715.996C591.603 716.269 650.347 710.959 707.604 698.279C718.073 695.993 728.261 692.995 738.486 689.819C741.514 688.876 744.613 688.005 747.677 687.099C748.959 686.751 750.271 687.434 750.655 688.681C751.039 689.928 750.319 691.346 749.072 691.659L749.038 691.552Z" fill="#5F9282" fill-opacity="0.4"/>
<path fill-rule="evenodd" clip-rule="evenodd" d="M775.471 713.935C764.698 719.633 752.203 721.8 740.522 724.648C720.19 729.187 700.036 733.621 679.879 738.694C659.865 743.485 640.199 749.628 620.393 755.273C594.355 762.553 567.934 768.372 541.93 775.901C539.755 776.848 536.849 775.266 538.109 772.607C539.006 771.154 540.894 770.632 542.251 769.786C555.165 762.75 567.376 754.357 580.924 748.534C595.185 742.358 609.617 737.358 624.367 732.679C638.797 727.963 653.262 723.282 668.11 720.133C700.126 712.32 732.486 706.357 765.19 702.46C769.174 702.341 768.716 707.672 764.628 707.328C734.664 710.993 704.476 716.293 675.203 723.376C662.064 726.321 649.065 729.481 636.344 733.852C609.195 742.512 581.442 751.133 557.347 766.603C592.07 758.023 626.514 748.588 660.818 738.583C691.664 730.229 722.96 723.833 753.942 716.476C760.673 714.773 767.263 712.785 773.399 709.549C776.251 708.285 778.218 712.493 775.365 713.899L775.471 713.935Z" fill="#5F9282" fill-opacity="0.4"/>
<path fill-rule="evenodd" clip-rule="evenodd" d="M307.474 375.274C306.484 374.272 305.494 373.271 304.504 372.269C304.71 373.551 303.778 374.896 302.426 375.031C300.824 375.199 299.731 373.735 298.49 372.981C293.746 369.397 288.93 365.883 284.042 362.583C270.261 353.647 256.413 344.071 243.133 334.498C224.815 323.047 206.674 311.632 189.933 298.056C159.269 275.614 128.967 251.895 105.388 221.814C104.046 220.312 103.28 217.534 105.597 216.516C107.202 215.779 108.937 216.963 110.319 217.789C111.56 218.543 112.764 219.332 113.933 220.157C118.36 223.134 123.035 226.433 127.286 229.232C142.413 239.171 157.361 249.216 172.057 259.722C185.374 269.046 198.87 278.123 211.505 288.403C232.6 305.454 253.193 323.142 274.681 339.733C287.638 349.837 299.525 360.22 310.944 371.845C313.029 374.026 309.915 377.457 307.546 375.203L307.474 375.274ZM295.41 364.712C296.72 365.68 297.994 366.612 299.304 367.58C299.836 367.974 300.402 368.404 300.897 368.834C281.84 349.981 259.453 335.056 239.321 317.478C226.616 307.055 214.018 296.526 201.097 286.457C182.154 272.299 162.177 258.74 142.767 245.397C133.841 239.441 124.913 233.628 116.059 227.531C136.478 250.694 160.115 270.747 185.259 288.605C196.235 296.919 207.384 305.839 218.684 313.338C228.106 319.794 238.031 325.329 247.452 331.786C259.669 340.641 272.101 349.213 284.677 357.359C284.677 357.359 284.642 357.324 284.607 357.288C284.536 357.216 284.501 357.18 284.43 357.109C288.185 359.62 291.798 362.06 295.41 364.712Z" fill="#5F9282" fill-opacity="0.4"/>
<path fill-rule="evenodd" clip-rule="evenodd" d="M332.383 384.809C326.867 379.443 321.783 373.083 316.838 367.364C309.385 358.75 301.859 350.491 295.013 341.419C284.39 327.594 275.338 312.711 265.144 298.534C242.245 267.71 214.952 240.452 186.188 215.141C186.294 215.248 186.33 215.284 186.4 215.356C178.404 208.41 170.372 201.57 162.089 194.978C194.79 227.922 220.415 266.87 250.83 301.721C273.864 327.532 297.328 352.919 321.257 377.845C322.177 378.775 322.167 380.34 321.237 381.259C320.272 382.214 318.779 382.134 317.824 381.239C313.969 377.554 310.329 373.585 306.654 369.652C286.901 348.163 266.471 326.991 247.29 305.008C228.284 283.417 211.316 260.096 193.346 237.694C179.37 219.617 163.283 203.698 147.947 186.894C147.313 185.895 147.002 184.435 147.825 183.48C151.237 177.774 172.669 197.885 176.6 200.789C205.935 225.534 234.016 251.943 258.094 281.885C273.067 299.683 284.541 320.02 298.658 338.453C307.657 350.276 318.012 361.254 327.441 372.512C330.126 375.586 332.846 378.553 335.71 381.451C336.629 382.381 336.62 383.945 335.69 384.864C334.76 385.784 333.231 385.739 332.276 384.844L332.383 384.809Z" fill="#5F9282" fill-opacity="0.4"/>
<path fill-rule="evenodd" clip-rule="evenodd" d="M359.133 395.562C357.991 396.196 356.5 395.76 355.867 394.619C352.101 388.018 349.939 380.679 347.349 373.623C340.835 356.444 332.181 340.319 322.921 324.511C309.825 301.888 291.514 283.218 274.845 263.348C257.363 242.726 240.989 221.151 222.076 201.943C227.401 209.62 232.833 217.191 238.015 225.01C248.624 241.252 258.125 258.236 268.699 274.514C274.584 283.616 281.184 292.154 287.391 301.01C296.486 314.577 306.01 327.862 315.926 340.9C327.147 355.83 336.654 371.96 348.447 386.396C348.836 386.86 349.26 387.219 349.649 387.612C350.568 388.542 350.559 390.107 349.629 391.026C346.984 393.286 344.731 389.432 343.177 387.645C341.411 385.501 339.753 383.251 338.13 381.037C331.674 372.286 325.753 363.148 319.511 354.185C313.164 345.044 306.316 336.256 299.719 327.291C290.195 314.078 281.313 300.37 271.575 287.297C258.032 268.157 246.88 247.43 234.087 227.76C224.923 213.767 214.759 200.478 205.488 186.59C204.715 184.95 205.618 182.644 207.644 182.691C209.493 182.773 210.729 184.309 212.038 185.42C215.08 188.14 218.015 191.038 220.914 193.971C237.144 209.749 251.195 227.256 265.531 244.623C276.76 258.274 288.237 271.89 299.967 285.045C321.691 309.888 338.377 338.933 350.894 369.412C353.416 375.97 355.368 382.738 358.354 388.979C359.23 391.082 361.881 393.836 359.169 395.527L359.133 395.562Z" fill="#5F9282" fill-opacity="0.4"/>
<path fill-rule="evenodd" clip-rule="evenodd" d="M409.218 417.407C408.006 417.898 406.623 417.285 406.132 416.073C404.273 411.688 402.735 407.198 401.161 402.744C398.12 393.729 394.509 384.853 390.328 376.258C377.047 348.655 361.128 322.246 343.815 297.074C332.713 280.046 320.219 263.899 306.902 248.494C306.938 248.529 306.973 248.565 307.008 248.601C301.393 242.06 295.811 235.769 289.515 229.9C307.929 255.399 321.596 283.75 336.584 311.221C343.901 324.919 352.609 337.808 360.817 350.978C372.725 370.109 384.918 389.028 397.754 407.525C399.875 409.671 396.655 413.137 394.356 410.883C388.605 403.133 383.64 394.818 378.067 386.961C372.214 378.392 366.861 369.541 361.329 360.796C350.443 343.272 338.808 326.134 329.314 307.8C319.499 289.641 310.041 271.2 299.548 253.429C294.512 244.972 288.333 237.432 283.333 229.01C282.032 226.477 279.414 224.115 279.716 221.13C281.736 216.234 286.863 221.349 289.341 223.284C297.197 229.874 304.155 237.845 310.796 245.565C324.325 261.114 336.853 277.51 348.167 294.752C365.585 320.174 381.435 346.37 394.749 374.15C399.459 383.637 403.277 393.51 406.704 403.559C407.998 407.158 409.222 410.757 410.73 414.286C411.221 415.498 410.573 416.917 409.396 417.372L409.218 417.407Z" fill="#5F9282" fill-opacity="0.4"/>
<path fill-rule="evenodd" clip-rule="evenodd" d="M457.058 446.065C455.952 446.663 454.389 446.299 453.792 445.122C452.034 441.626 450.705 437.92 449.482 434.179C445.651 420.359 441.14 407.352 434.849 394.549C425.254 375.253 416.409 355.5 405.779 336.733C383.876 299.905 361.33 263.428 335.678 229.103C344.847 248.396 355.87 266.775 365.644 285.822C377.801 310.929 388.068 336.913 402.009 361.106C412.781 379.874 422.697 399.065 432.862 418.15C435.853 423.537 438.844 428.996 442.335 434.03C444.491 436.212 441.235 439.643 438.937 437.389C426.138 418.644 417.372 397.469 405.964 377.914C397.904 363.678 389.916 349.3 382.783 334.571C376.146 320.343 369.937 305.691 363.156 291.604C351.277 267.637 336.972 244.936 326.448 220.337C325.322 218.267 324.562 214.564 327.871 214.193C331.002 213.926 335.405 221.1 337.454 223.459C357.392 249.714 375.153 277.414 392.449 305.431C399.637 316.782 406.611 328.345 413.192 340.083C422.02 356.742 430.028 373.859 438.321 390.764C445.14 404.388 450.178 418.5 454.182 433.069C455.196 436.168 456.316 439.233 457.685 442.193C458.496 443.442 458.52 445.327 457.093 446.101L457.058 446.065Z" fill="#5F9282" fill-opacity="0.4"/>
<path fill-rule="evenodd" clip-rule="evenodd" d="M497.204 470.803C495.956 471.329 494.645 470.646 494.118 469.469C492.047 464.87 490.617 460.061 489.294 455.216C486.649 445.386 483.505 435.695 480.754 425.899C477.065 412.079 473.697 398.155 468.547 384.932C461.407 365.473 450.023 348.017 439.708 330.14C424.956 304.84 410.241 279.292 394.061 254.979C404.674 282.531 418.675 308.573 429.111 336.159C435.319 350.811 440.352 365.847 446.133 380.639C455.735 404.878 465.407 429.259 477.183 452.549C478.52 455.118 479.821 457.65 481.228 460.148C482.04 461.184 481.711 462.711 480.711 463.487C479.604 464.299 478.183 464.006 477.335 463.005C466.988 444.595 459.067 424.918 450.859 405.454C438.763 376.044 428.592 345.864 416.032 316.63C409.61 302.047 402.403 287.816 396.373 273.129C391.148 260.474 385.995 247.82 380.699 235.235C380.034 233.418 381.646 231.329 383.599 231.874C385.338 232.418 386.181 234.272 387.276 235.594C408.286 267.083 427.585 299.272 446.454 332.029C449.13 336.525 451.735 341.021 454.376 345.553C462.51 359.292 470.001 373.454 475.069 388.597C480.494 403.387 483.533 418.91 488.21 433.944C490.968 442.673 493.333 451.791 495.949 460.447C496.753 462.906 497.663 465.329 498.716 467.683C499.243 468.859 498.558 470.313 497.382 470.769L497.204 470.803Z" fill="#5F9282" fill-opacity="0.4"/>
<path fill-rule="evenodd" clip-rule="evenodd" d="M535.569 496.028C534.252 496.34 533.012 495.515 532.699 494.268C531.064 488.106 529.788 481.307 528.686 475.184C526.602 460.698 523.307 446.489 519.264 432.454C514.776 415.394 509.113 398.718 502.844 382.216C496.961 366.748 491.009 350.71 484.162 335.77C479.422 325.536 474.217 315.548 469.119 305.525C463.002 293.47 457.528 281.062 450.554 269.499C453.374 279.793 455.051 291.005 458.335 301.052C463.048 315.98 468.722 330.878 473.257 345.841C477.835 359.63 481.982 374.057 486.062 387.914C490.848 402.558 495.705 417.203 500.918 431.707C506.765 447.353 513.715 462.898 520.882 477.947C522.216 480.8 523.48 483.723 524.814 486.576C525.626 487.683 526.008 489.215 524.864 490.275C523.219 491.759 521.128 490.573 520.499 488.72C512.599 471.426 504.412 454.487 497.617 436.737C492.261 422.232 487.44 407.481 482.548 392.801C477.835 377.731 473.729 362.415 468.766 347.593C463.743 330.991 457.401 314.774 452.413 298.137C450.251 290.799 448.873 283.252 447.174 275.809C445.647 269.47 443.585 263.235 441.88 256.931C441.013 253.12 445.111 251.758 447.153 255.183C455.544 267.608 462.4 280.913 468.829 294.428C479.971 316.72 491.579 338.552 500.119 361.93C514.239 397.895 527.286 434.991 533.142 473.254C533.762 476.814 534.381 480.373 535.107 483.898C535.729 487.031 536.422 490.165 537.293 493.264C537.641 494.546 536.744 495.857 535.533 496.134L535.569 496.028Z" fill="#5F9282" fill-opacity="0.4"/>
<path fill-rule="evenodd" clip-rule="evenodd" d="M579.55 528.078C578.232 528.39 577.028 527.53 576.679 526.318C575.39 521.866 574.598 517.345 573.878 512.824C572.578 504.068 571.243 495.206 569.729 486.52C566.046 465.766 561.473 445.113 555.938 424.775C548.942 398.881 538.596 374.247 528.214 349.577C520.884 332.074 514.16 314.325 507.33 296.61C508.947 305.83 511.704 314.772 514.319 323.714C518.606 338.568 521.326 353.769 524.794 368.796C530.657 393.902 538.478 418.485 545.018 443.416C548.774 457.734 553.098 472.34 557.319 486.411C560.391 496.173 563.783 505.902 567.426 515.453C568.088 517.769 570.806 521.163 567.668 522.638C566.456 523.129 565.038 522.481 564.582 521.304C562.866 516.849 561.114 512.358 559.54 507.833C554.291 493.435 549.967 478.687 545.751 463.975C535.033 423.87 522.428 384.216 514.381 343.451C512.199 333.445 509.341 323.613 506.447 313.817C503.588 303.985 501.834 293.911 500.399 283.803C499.881 281.275 499.408 277.005 503.351 277.704C504.665 278.103 505.367 279.529 505.965 280.706C507.09 282.989 508.071 285.413 509.017 287.801C518.547 312.181 527.828 336.595 538.071 360.695C550.982 390.642 561.326 421.642 567.966 453.615C572.791 473.878 576.013 494.38 579.093 514.953C579.677 518.406 580.404 521.788 581.38 525.137C581.764 526.384 580.832 527.73 579.621 528.007L579.55 528.078Z" fill="#5F9282" fill-opacity="0.4"/>
<path fill-rule="evenodd" clip-rule="evenodd" d="M622.109 559.692C620.863 559.791 619.517 558.858 619.49 557.543C619.297 554.056 619.317 550.572 619.195 547.157C618.803 535.17 616.525 523.422 613.926 511.778C604.948 472.074 598.18 431.672 584.429 393.22C578.729 376.793 574.098 360.016 568.041 343.729C558.931 320.56 549.786 297.214 537.467 275.52C545.256 299.57 551.051 324.177 557.557 348.646C562.51 365.176 567 381.88 570.884 398.688C576.067 418.313 579.292 438.389 583.692 458.222C585.67 466.733 588.395 475.071 590.443 483.582C593.569 496.331 596.623 509.08 601.174 521.411C604.428 530.499 608.501 539.342 611.363 548.533C611.634 550.953 608.141 552.284 606.874 549.929C603.274 539.347 598.71 529.149 595.145 518.531C589.446 501.89 586.241 484.553 581.219 467.738C575.269 445.264 572.276 422.131 566.219 399.692C562.301 382.706 557.74 365.93 552.788 349.258C546.143 324.148 540.105 298.722 531.999 273.994C531.161 271.429 530.323 268.864 529.698 266.228C529.49 265.303 529.177 264.127 529.644 263.241C531.013 260.333 534.312 261.668 535.721 263.952C545.668 277.809 552.368 293.673 559.211 309.182C563.912 320.092 568.471 331.071 572.638 342.155C578.588 358.478 583.326 375.148 588.955 391.575C600.816 424.824 607.724 459.572 614.883 494.074C618.31 510.132 622.697 526.089 623.738 542.525C624.067 547.079 624.041 551.631 624.229 555.828C624.469 557.43 624.137 559.526 622.144 559.656L622.109 559.692Z" fill="#5F9282" fill-opacity="0.4"/>
<path fill-rule="evenodd" clip-rule="evenodd" d="M665.033 596.04C661.258 596.943 661.406 589.796 660.674 587.338C659.031 576.446 659.345 565.388 659.125 554.363C658.74 547.248 657.857 540.06 656.582 533.118C653.216 512.828 645.968 493.618 639.289 474.269C626.522 437.956 614.04 401.575 600.56 365.543C602.965 373.772 605.05 382.034 606.53 390.471C608.391 400.652 610.821 410.766 612.574 420.983C615.601 438.568 617.559 456.36 621.475 473.844C629.513 503.941 636.695 534.459 648.332 563.403C650.962 569.784 653.698 576.13 656.508 582.121C657.278 584.259 660.037 586.836 657.288 588.634C656.146 589.267 654.655 588.832 654.198 587.94C651.733 583.8 650.018 579.203 647.981 574.852C641.592 560.59 636.451 545.802 631.987 530.84C628.915 521.007 626.449 510.999 623.769 501.062C621.055 490.947 617.913 480.9 615.839 470.646C611.519 449.39 609.477 427.579 604.836 406.499C602.619 396.387 601.115 386.136 598.471 376.092C596.522 368.755 594.36 361.488 592.412 354.151C591.786 351.658 590.947 349.235 590.535 346.672C590.364 345.497 590.619 344.468 591.619 343.762C592.691 342.986 594.147 343.244 595.031 344.209C597.679 347.461 599.362 351.453 601.225 355.198C605.686 364.648 609.077 374.519 612.541 384.318C619.468 403.634 626.539 422.878 633.182 442.334C641.569 467.49 651.702 492.122 658.308 517.836C660.738 527.879 662.46 537.491 663.503 547.632C664.345 555.638 663.906 563.779 664.214 571.818C664.433 577.047 664.757 582.312 665.616 587.473C665.671 590.247 668.738 594.853 665.104 596.041L665.033 596.04Z" fill="#5F9282" fill-opacity="0.4"/>
<path fill-rule="evenodd" clip-rule="evenodd" d="M705.576 631.982C704.26 631.939 703.235 630.83 703.243 629.55C703.378 624.75 704.33 619.99 704.821 615.192C705.542 607.337 704.699 599.473 703.322 591.713C696.881 556.22 683.243 522.748 671.886 488.649C665.878 470.121 660.298 451.454 655.643 432.579C657.58 447.989 659.979 463.366 662.592 478.672C666.1 499.034 671.459 519.051 675.501 539.31C681.54 564.523 685.584 590.577 694.402 615.024C694.707 617.551 690.967 618.703 689.842 616.349C682.701 597.104 678.872 576.847 674.58 556.836C667.724 525.217 659.765 493.77 654.974 461.736C652.375 444.082 649.456 426.391 648.387 408.568C648.19 405.793 651.402 403.892 653.235 406.605C655.9 413.022 657.317 419.965 659.127 426.661C665.829 454.261 674.133 481.478 683.649 508.205C692.117 531.655 700.336 555.28 705.741 579.565C707.958 589.535 709.997 599.611 709.866 609.852C709.939 615.578 708.804 621.226 708.237 626.877C708.083 628.867 708.385 631.963 705.611 631.946L705.576 631.982Z" fill="#5F9282" fill-opacity="0.4"/>
<path fill-rule="evenodd" clip-rule="evenodd" d="M741.741 662.278C736.156 662.708 742.209 643.078 742.548 639.843C745.246 628.622 745.527 617.03 745.274 605.542C743.642 574.63 735.569 544.497 727.386 514.755C716.993 479.986 708.451 444.73 699.233 409.648C700.963 423.989 703.974 438.125 706.059 452.468C709.53 472.937 711.828 493.505 714.481 514.075C718.116 543.15 725.167 571.677 729.692 600.579C732.655 616.884 731.672 632.916 733.888 649.11C734.867 651.96 730.625 653.678 729.398 650.79C727.806 643.242 727.852 635.419 727.47 627.735C727.47 627.735 727.469 627.877 727.469 627.948C726.403 597.466 718.008 567.652 713.134 537.68C709.417 516.464 707.409 495.044 704.369 473.724C701.744 454.399 698.159 435.175 695.071 415.882C694.39 410.828 693.886 405.74 693.382 400.723C693.013 396.987 692.679 393.287 692.558 389.587C692.53 388.414 692.324 387.132 692.97 386.069C694.404 384.086 696.997 384.706 697.73 387.022C708.302 421.685 715.597 457.254 725.813 491.987C732.993 516.709 739.96 541.5 745.04 566.743C750.5 593.802 752.645 622.157 745.375 648.999C744.899 651.379 744.422 653.83 744.159 656.282C743.897 658.592 744.872 662.012 741.635 662.171L741.741 662.278Z" fill="#5F9282" fill-opacity="0.4"/>
<path fill-rule="evenodd" clip-rule="evenodd" d="M782.131 699.926C780.817 699.74 779.971 698.455 780.121 697.176C780.492 694.404 781.006 691.704 781.556 688.969C782.142 685.986 782.551 682.894 782.818 679.873C784.466 659.648 784.017 639.162 782.464 618.918C780.128 592.802 773.591 567.444 769.653 541.639C767.3 524.52 767.219 507.983 766.503 490.66C764.439 508.963 762.699 526.804 762.769 545.19C761.963 567.411 762.864 589.572 765.224 611.634C767.344 632.094 770.248 652.488 772.759 672.915C773.441 677.898 773.981 682.951 774.912 687.899C775.544 689.183 774.716 690.921 773.292 691.197C770.444 691.749 770.072 688.44 769.8 686.375C769.217 682.638 768.706 678.901 768.23 675.129C766.903 664.915 765.611 654.737 764.391 644.488C760.954 618.116 757.768 591.426 757.746 564.862C757.879 554.265 758.083 543.74 758.252 533.179C758.975 512.949 761.334 492.799 764.189 472.795C765.295 466.187 765.691 459.29 767.791 452.902C768.689 451.378 771.072 451.356 771.951 452.961C772.76 454.567 772.108 456.554 772.098 458.261C771.755 462.135 771.519 466.046 771.354 469.956C770.966 481.512 771.537 493.322 771.932 504.81C772.451 519.358 773.076 533.942 775.659 548.288C781.903 581.291 789.106 614.334 788.73 648.151C789.059 664.796 788.321 681.506 784.988 697.88C784.839 699.159 783.482 700.076 782.238 699.891L782.131 699.926Z" fill="#5F9282" fill-opacity="0.4"/>
<path fill-rule="evenodd" clip-rule="evenodd" d="M872.54 807.283C849.073 800.495 830.681 783.531 813.567 766.859C777.61 731.051 742.727 694.183 705.734 659.471C686.456 641.897 667.858 623.58 648.544 606.042C622.157 581.776 594.8 559.177 567.339 536.256C546.033 518.777 524.907 500.979 502.204 485.305C492.356 478.775 482.042 472.918 471.908 466.813C452.421 454.466 433.58 441.198 414.666 428.213C399.043 418.058 383.241 408.079 366.684 399.483C366.224 399.16 365.764 398.837 365.517 398.445C367.854 400.165 370.91 400.61 373.534 401.763C381.589 404.762 389.355 408.542 396.978 412.534C417.645 423.572 436.231 437.942 456.108 450.327C472.544 461.376 490.237 470.335 506.96 480.959C539.615 503.483 569.941 529.159 600.518 554.374C620.975 571.065 641.038 588.288 660.885 605.723C680.128 623.261 699.585 640.658 718.756 658.267C737.182 675.694 755.07 693.65 772.924 711.643C795.799 734.358 818.168 758.494 842.261 779.652C852.128 789.062 861.348 799.465 872.576 807.177L872.54 807.283Z" fill="#5F9282" fill-opacity="0.4"/>
<path fill-rule="evenodd" clip-rule="evenodd" d="M665.13 591.488C661.105 580.547 658.362 569.115 656.368 557.582C653.591 539.82 653.2 521.681 647.397 504.578C643.415 492.179 638.401 480.165 633.742 468.011C623.207 439.18 612.886 410.208 604.453 380.714C602.923 374.944 601.534 369.103 600.217 363.264C602.673 368.968 604.949 374.991 607.405 380.767C615.091 398.059 621.281 415.912 627.791 433.66C637.44 462.023 652.575 488.641 658.733 518.051C660.909 529.052 661.48 540.791 662.198 551.819C663.08 565.089 662.647 578.386 665.166 591.452L665.13 591.488Z" fill="#5F9282" fill-opacity="0.4"/>
<path fill-rule="evenodd" clip-rule="evenodd" d="M566.443 519.324C560.161 505.169 551.74 491.784 547.24 476.786C543.47 464.744 541.125 452.355 538.708 439.965C533.769 415.079 525.268 391.096 520.044 366.279C514.673 342.243 508.127 318.378 503.468 294.276C508.412 306.218 513.213 318.302 517.444 330.524C523.597 348.625 526.935 367.528 532.376 385.839C537.745 404.149 543.541 422.391 547.343 441.118C552.665 467.394 558.913 493.533 566.444 519.253L566.443 519.324Z" fill="#5F9282" fill-opacity="0.4"/>
<path fill-rule="evenodd" clip-rule="evenodd" d="M495.775 471.932C494.036 465.236 490.16 459.168 487.531 452.716C484.863 446.726 482.41 440.595 480.277 434.359C473.224 412.199 466.884 389.687 456.729 368.823C450.339 354.704 441.738 341.851 432.85 329.21C421.994 312.717 411.924 295.588 403.636 277.688C398.794 266.635 394.058 255.477 389.215 244.424C396.76 255.564 403.84 267.234 410.563 278.973C417.815 291.604 425.494 304.025 433.388 316.304C440.508 327.157 448.841 337.234 455.461 348.439C458.807 354.042 461.76 359.891 464.606 365.776C478.905 395.482 487.572 427.503 493.749 459.723C494.544 463.604 495.588 467.45 495.921 471.364C495.92 471.506 495.989 471.933 495.775 471.932Z" fill="#5F9282" fill-opacity="0.4"/>
<path fill-rule="evenodd" clip-rule="evenodd" d="M353.37 389.875C350.758 386.446 349.22 382.027 347.286 378.282C335.934 355.349 323.62 332.66 308.236 312.086C284.658 281.792 255.327 256.406 237.463 222.02C232.469 212.532 226.832 203.466 220.518 194.787C225.114 199.295 229.708 204.23 233.875 209.304C241.712 219.022 248.228 229.765 255.78 239.695C270.988 260.09 289.381 276.912 306.091 295.893C322.762 315.265 336.321 337.784 345.142 361.804C347.24 367.933 348.91 374.202 350.509 380.47C351.486 383.605 351.821 387.092 353.512 389.876C353.512 389.876 353.583 389.876 353.619 389.841C353.762 389.7 353.547 390.054 353.406 389.84L353.37 389.875Z" fill="#5F9282" fill-opacity="0.4"/>
<path fill-rule="evenodd" clip-rule="evenodd" d="M370.884 423.263C353.266 431.908 333.13 433.212 313.785 433.241C296.182 433.244 278.797 432.325 261.348 430.409C247.666 428.87 233.989 426.336 220.304 425.296C204.234 424.562 188.049 425.427 172.347 428.713C171.493 428.85 170.567 428.987 169.715 428.769C169.609 428.733 169.538 428.661 169.503 428.554C169.503 428.554 169.503 428.554 169.538 428.59C169.821 428.876 170.356 428.701 170.712 428.632C175.555 427.381 180.191 425.274 185.07 424.058C192.513 422.146 199.812 420.659 207.392 419.815C217.106 418.769 226.881 419.574 236.548 420.555C261.177 423.153 284.991 425.213 309.6 425.215C321.014 425.46 332.434 424.638 343.68 423.068C358.092 421.552 372.754 419.718 385.88 413.038C381.199 416.745 376.305 420.592 370.813 423.263L370.884 423.263Z" fill="#5F9282" fill-opacity="0.4"/>
<path fill-rule="evenodd" clip-rule="evenodd" d="M481.072 474.797C474.455 475.257 467.869 476.391 461.528 478.346C455.505 480.48 449.552 482.899 443.424 484.854C430.706 488.798 417.603 491.495 404.711 494.691C391.642 497.708 378.504 500.44 365.194 502.069C345.977 504.517 326.526 504.225 307.213 504.717C290.747 505.011 274.173 505.341 257.668 506.026C255.605 506.085 253.435 506.25 251.513 506.524C254.15 505.614 256.962 505.24 259.703 504.722C269.421 503.037 279.209 501.636 288.96 500.413C318.421 497.599 348.253 498.378 377.342 492.397C390.515 489.842 403.549 486.647 416.584 483.381C431.399 479.769 446.078 474.948 461.274 473.152C467.855 472.729 474.607 473.55 480.965 474.761L481.072 474.797Z" fill="#5F9282" fill-opacity="0.4"/>
<path fill-rule="evenodd" clip-rule="evenodd" d="M523.389 505.167C515.521 506.792 507.05 508.022 499.566 510.752C483.852 516.03 469.014 523.624 453.265 528.937C443.215 532.506 432.745 535.076 422.175 536.472C405.306 538.578 387.883 538.262 370.951 539.087C348.681 540.45 326.447 541.92 304.311 544.707C309.833 542.996 315.639 541.43 321.302 539.934C353.396 530.912 386.638 532.352 419.484 528.384C434.041 526.371 448.009 521.545 461.591 516.042C467.757 513.553 473.783 510.779 480.055 508.682C489.888 505.468 500.316 504.071 510.697 504.559C515.035 504.655 519.476 505.499 523.782 504.991C523.674 505.097 523.496 505.132 523.389 505.167Z" fill="#5F9282" fill-opacity="0.4"/>
<path fill-rule="evenodd" clip-rule="evenodd" d="M609.93 568.62C601.947 571.631 593.789 574.037 585.806 577.119C573.153 581.988 560.045 585.468 546.973 589.054C534.114 592.783 521.079 596.121 507.701 597.18C487.846 599.127 467.832 597.978 447.997 596.439C434.489 595.506 421.013 595.321 407.504 594.601C398.828 594.266 390.12 593.539 381.483 592.813C388.422 592.036 395.609 591.509 402.619 590.732C432.621 586.747 463.246 591.692 493.27 589.948C508.281 589.325 523.125 586.816 537.446 582.419C553.724 577.927 569.969 572.973 586.733 570.617C592.142 569.867 597.586 569.436 603.03 568.935C605.593 568.523 608.719 569.039 610.897 567.523C610.969 567.31 610.9 567.096 610.865 566.847C610.865 566.847 610.866 566.847 610.901 566.883C611.358 567.703 610.502 568.267 609.86 568.548L609.93 568.62Z" fill="#5F9282" fill-opacity="0.4"/>
<path fill-rule="evenodd" clip-rule="evenodd" d="M644.185 603.492C631.75 607.58 620.366 614.377 608.14 619.106C590.033 626.325 571.468 632.653 552.279 636.346C526.608 641.636 500.323 642.371 474.276 645.063C454.601 646.69 434.785 648.032 415.096 646.067C408.982 645.605 402.832 645.249 396.68 645.248C401.948 644.355 407.533 644.067 412.904 643.779C438.584 643.005 464.202 640.808 489.719 637.508C512.743 634.834 535.939 633.12 558.483 627.456C587.505 620.763 614.128 604.632 644.22 603.457L644.185 603.492Z" fill="#5F9282" fill-opacity="0.4"/>
<path fill-rule="evenodd" clip-rule="evenodd" d="M678.754 633.388C654.061 635.662 629.097 635.516 604.607 639.639C587.951 641.889 571.396 644.957 555.19 649.307C543.758 652.191 532.223 654.4 521 658.068C518.613 658.872 516.225 659.676 513.837 660.551C516.657 658.825 519.761 657.1 522.757 655.482C543.125 644.897 565.318 638.449 587.818 634.1C601.667 631.514 615.374 628.856 629.424 628.263C642.087 627.768 654.702 629.442 667.1 631.684C671.044 632.241 675.197 633.439 679.111 633.177C679.111 633.177 679.04 633.106 679.075 633.141C679.252 633.32 678.789 633.424 678.682 633.459L678.754 633.388Z" fill="#5F9282" fill-opacity="0.4"/>
<path fill-rule="evenodd" clip-rule="evenodd" d="M733.016 694.872C711.074 707.012 686.709 713.982 661.765 716.574C642.762 718.738 623.55 720.19 604.424 719.296C578.4 718.076 551.642 720.764 526.061 716.774C542.558 717.226 558.97 714.299 575.439 713.507C591.199 712.497 606.632 712.659 622.389 712.004C659.845 710.41 696.591 702.589 733.016 694.872Z" fill="#5F9282" fill-opacity="0.4"/>
</svg>
