<svg width="1440" height="1935" viewBox="0 0 1440 1935" fill="none" xmlns="http://www.w3.org/2000/svg">
<path fill-rule="evenodd" clip-rule="evenodd" d="M0 0V1849.42L120.855 1806.47C160.798 1792.27 202.344 1783.08 244.546 1779.08L261.581 1777.47C334.356 1770.58 407.763 1779.3 476.902 1803.04L501.005 1811.31C574.062 1836.39 651.832 1844.68 728.535 1835.57L840.529 1822.27C867.136 1819.11 893.949 1818.03 920.723 1819.05L1007.35 1822.35C1135.62 1827.24 1261.81 1856.36 1379.25 1908.19L1440 1935V13.5129C1418.01 19.5427 1396.85 25.5814 1376.27 31.4529C1275.39 60.239 1188.6 85.0058 1087.29 85.0059C1042.07 85.0059 1006.12 80.0007 972.364 73.3391C949.847 68.8955 927.129 63.9462 904.286 58.9692C800.454 36.3477 694.006 13.1561 591.851 34.2951C555.322 41.8541 519.832 54.173 484.345 66.4903C455.048 76.6594 425.754 86.8275 395.881 94.315C251.505 130.503 122.771 144.356 0 0Z" fill="#CED2C4"/>
</svg>
