<svg width="919" height="1261" viewBox="0 0 919 1261" fill="none" xmlns="http://www.w3.org/2000/svg">
<path fill-rule="evenodd" clip-rule="evenodd" d="M748.373 1101.9C744.533 1101.97 741.217 1099.78 738.068 1097.94C728.987 1092.52 723.517 1083.44 719.158 1074.2C712.795 1061.08 707.132 1047.63 701.868 1034.06C685.748 993.044 665.551 954.405 645.288 915.484C616.904 859.946 584.443 806.783 552.901 753.058C528.51 712.454 500.626 674.072 474.282 634.771C450.885 598.844 426.377 563.067 398.628 530.336C372.248 498.713 344.751 467.934 313.953 440.354C305.539 432.417 296.331 425.17 288.353 416.9C287.731 415.563 288.226 413.947 289.575 413.181C290.65 412.671 292.012 412.778 292.842 413.577C293.47 413.656 294.115 413.915 294.539 414.404C297.402 417.315 300.324 420.073 303.3 422.805C308.773 427.805 314.277 432.728 319.941 437.575C338.089 452.76 356.928 467.178 373.804 483.721C403.185 509.524 425.009 541.928 449.574 571.901C474.544 602.749 498.291 634.491 521.549 666.591C534.023 683.402 546.736 700.162 558.178 717.714C578.263 749.059 596.313 781.245 615.157 813.305C649.74 870.044 680.652 928.903 708.149 989.446C722.914 1022.19 739.978 1054.09 751.071 1088.38C751.897 1091.57 752.902 1094.86 752.432 1098.22C752.057 1100.09 750.553 1101.94 748.474 1101.98L748.373 1101.9ZM746.823 1096.17C744.252 1081.76 737.268 1067.87 731.861 1054.55C718.711 1025 704.623 995.828 691.126 966.38C673.616 928.726 653.82 892.22 633.78 855.893C618.535 829.597 602.531 803.787 587.716 777.287C574.821 755.904 562.571 734.215 548.589 713.599C539.856 700.601 530.472 688.038 521.088 675.475C506.552 656.064 492.612 636.244 477.808 616.961C461.024 594.974 443.477 573.601 426.395 551.819C407.782 527.31 388.747 504.006 365.58 483.668C407.515 529.132 444.978 578.1 478.096 630.136C501.965 665.525 526.621 700.352 549.54 736.38C588.184 800.863 626.612 865.448 660.694 932.535C679.332 969.089 697.593 1005.82 712.069 1044.29C715.514 1052.82 718.994 1060.59 722.875 1068.8C727.881 1079.98 734.499 1091.54 746.799 1096.12L746.823 1096.17Z" fill="#D399A9" fill-opacity="0.4"/>
<path fill-rule="evenodd" clip-rule="evenodd" d="M293.271 417.975C291.522 418.25 290.532 416.665 289.331 415.743C274.805 404.165 258.367 395.309 242.647 385.487C212.485 367.352 183.252 347.588 155.385 326.297C137.378 312.08 120.359 296.641 104.235 280.339C98.6911 274.632 93.2004 268.9 87.845 263.04C85.4705 259.997 81.4476 257.305 81.4805 253.173C82.1026 249.757 85.6703 249.361 88.2442 250.874C91.601 252.263 94.7873 253.982 97.9206 255.727C113.381 264.426 128.089 274.296 142.661 284.293C166.781 300.827 191.007 317.309 214.191 335.039C236.905 352.868 257.783 372.885 277.725 393.537C284.205 400.293 290.715 406.973 297.084 413.907C299.334 416.261 295.998 420.102 293.271 417.975ZM256.072 387.113C261.037 390.166 266.002 393.218 270.914 396.295C272.351 397.167 273.735 398.065 275.196 398.988C259.449 382.38 242.435 366.253 225.24 351.273C207.586 336.139 188.319 322.836 169.294 309.355C143.56 291.847 118.444 273.295 91.1159 258.358C107.765 276.779 125.71 294.083 144.56 310.267C179.073 339.232 217.311 363.797 256.019 387.139L256.072 387.113Z" fill="#D399A9" fill-opacity="0.4"/>
<path fill-rule="evenodd" clip-rule="evenodd" d="M313.199 436.071C300.86 431.568 287.915 429.091 275.424 425.095C252.973 418.556 231.368 409.815 209.523 401.807C168.574 386.03 127.169 371.215 86.8497 354.021C85.1378 353.229 83.3208 352.488 81.8015 351.418C79.0843 349.559 80.4427 345.127 83.9883 345.164C95.7056 345.254 107.348 346.992 118.926 348.45C142.047 352.126 165.017 356.867 186.92 364.723C209.079 372.021 229.635 382.939 250.237 393.401C264.405 400.622 278.878 407.388 292.574 415.393C295.904 417.331 299.153 419.369 302.157 421.712C304.126 423.062 302.989 426.581 300.472 426.548C305.502 427.857 310.479 429.192 315.328 431.084C316.666 431.621 317.391 433.195 316.79 434.536C316.19 435.878 314.561 436.658 313.199 436.071ZM287.654 422.956C291.358 424.033 295.144 425.009 298.877 426.01C283.041 414.753 265.081 407.24 247.856 398.26C236.276 392.34 224.695 386.421 212.893 380.855C175.628 363.747 134.712 354.586 93.4425 350.925C124.618 364.008 156.506 375.572 188.055 387.794C221.07 399.996 253.589 413.488 287.707 422.931L287.654 422.956Z" fill="#D399A9" fill-opacity="0.4"/>
<path fill-rule="evenodd" clip-rule="evenodd" d="M370.032 489.659C347.446 488.421 324.982 485.64 303.047 480.814C282.656 476.978 262.644 471.602 243.184 464.786C226.393 459.041 209.539 453.574 192.655 448.183C174.711 442.435 157.524 436.385 139.335 432.051C133.554 430.616 127.814 429.409 121.992 428.302C119.959 427.916 118.001 427.555 115.996 427.094C114.545 426.861 112.826 426.325 112.411 424.73C112.084 423.465 112.683 422.127 113.895 421.423C133.325 416.507 153.829 415.59 173.478 417.678C196.472 419.524 218.448 423.466 240.291 429.759C251.83 432.579 262.752 437.116 273.854 441.072C298.449 449.447 323.596 456.939 348.382 464.48C350.288 464.866 351.157 467.17 349.905 468.758C348.491 470.549 346.608 469.657 344.941 469.096C340.541 467.741 336.112 466.462 332.015 465.209C314.968 460.02 297.98 454.679 280.997 449.211C270.233 445.712 259.095 441.402 248.57 437.726C227.84 431.765 206.802 426.386 185.124 424.341C166.413 421.927 147.259 420.776 128.394 424C150.096 428.32 170.931 435.343 191.801 442.163C215.62 449.549 239.142 457.82 262.926 465.408C284.244 471.952 306.348 475.894 328.341 480.013C342.35 482.083 356.58 483.243 370.769 484.175C374.213 484.566 373.616 489.797 369.985 489.558L370.032 489.659Z" fill="#D399A9" fill-opacity="0.4"/>
<path fill-rule="evenodd" clip-rule="evenodd" d="M419.331 556.669C407.363 550.411 394.564 546.653 381.368 543.703C364.602 539.805 347.777 536.059 330.906 532.768C284.942 524.375 239.449 514.088 193.717 504.533C179.491 501.706 165.299 498.676 151.248 495.394C147.868 494.17 139.568 494.066 140.107 489.544C140.594 485.047 152.652 486.502 156.112 485.958C179.271 485.125 202.437 485.278 225.378 487.579C248.533 490.209 271.666 493.345 294.148 498.955C318.151 505.505 341.892 512.737 365.359 520.347C375.957 524.047 386.468 527.974 396.891 532.129C404.337 535.237 411.561 537.586 418.193 541.703C420.868 543.759 417.748 548.096 414.817 546.039C402.907 539.63 389.996 535.492 377.458 530.497C358.587 523.281 339.099 517.782 319.803 512.006C291.016 502.432 260.962 497.049 230.589 493.612C206.495 490.751 182.053 490.467 157.74 491.296C187.655 498.043 217.879 503.654 247.736 510.552C281.903 517.92 316.321 524.303 350.611 531.241C367.133 534.885 383.718 538.251 399.938 542.906C407.727 545.231 415.173 548.34 422.34 551.953C423.669 552.614 424.025 554.359 423.303 555.57C422.553 556.856 420.893 557.281 419.588 556.67L419.331 556.669Z" fill="#D399A9" fill-opacity="0.4"/>
<path fill-rule="evenodd" clip-rule="evenodd" d="M439.912 586.121C410.745 586.756 381.467 586.456 352.659 582.599C341.213 580.92 329.959 578.409 318.583 576.327C301.167 573.064 283.705 570.254 266.388 566.512C243.345 561.438 221.045 554.094 198.675 547.155C190.476 544.477 182.102 542.254 173.78 540.005C171.796 539.165 171.829 536.187 173.795 535.184C174.737 534.733 175.657 534.787 176.652 534.866C193.176 536.334 209.701 537.248 226.26 537.959C245.188 539.511 264.104 540.761 282.881 542.817C303.857 546.042 324.695 550.074 345.085 555.493C369.625 562.011 394.903 568.051 419.494 573.989C425.249 575.245 431.109 576.45 436.928 577.429C438.673 577.334 440.024 579.155 439.49 580.769C443.562 580.177 443.99 585.958 439.912 586.121ZM401.77 580.87C407.6 581.041 413.511 581.111 419.376 581.08C421.733 581.063 424.089 581.046 426.422 580.978C407.679 577.054 389.29 572.096 370.646 567.693C349.511 562.322 328.434 556.245 306.974 552.387C287.399 548.183 267.173 546.45 247.291 545.046C231.901 543.404 216.407 542.924 200.901 542.14C221.827 548.721 243.277 555.607 264.61 560.575C281.927 564.317 299.407 567.303 316.852 570.491C327.949 572.522 338.952 574.906 350.084 576.735C367.115 579.442 384.489 580.257 401.846 580.896L401.77 580.87Z" fill="#D399A9" fill-opacity="0.4"/>
<path fill-rule="evenodd" clip-rule="evenodd" d="M475.329 629.983C474.202 630.03 473.069 629.648 471.983 629.368C471.943 630.803 470.602 632.184 469.098 632.103C464.787 631.887 460.495 631.848 456.243 632.035C450.684 632.293 445.091 632.753 439.521 633.264C379.736 640.443 322.934 620.334 265.104 612.107C238.33 608.971 211.608 604.702 184.805 602.195C177.422 601.54 170.004 601.087 162.551 600.836C159.484 600.272 153.473 602.04 152.96 598.16C152.911 594.181 159.307 594.63 162.013 593.582C169.377 591.843 176.887 590.282 184.327 589.123C195.873 587.046 207.385 584.617 219.095 584.001C231.008 583.411 242.916 583.502 254.8 584.095C296.281 585.921 336.279 595.598 376.492 603.942C405.352 610.082 434.468 615.115 463.231 621.733C467.152 622.628 471.021 623.547 474.89 624.467C476.575 624.523 478.481 625.335 478.313 627.324C478.198 628.734 476.886 630.039 475.434 629.933L475.329 629.983ZM430.189 628.8C440.122 627.927 450.042 626.751 459.992 626.608C426.67 619.093 392.941 613.189 359.526 606.026C314.66 596.03 268.766 587.264 222.101 589.274C206.4 589.952 190.847 593.577 175.444 596.145C198.737 597.683 221.788 601.185 244.885 604.233C262.219 606.407 279.594 608.252 296.598 612.061C340.389 620.971 384.692 632.098 430.137 628.825L430.189 628.8Z" fill="#D399A9" fill-opacity="0.4"/>
<path fill-rule="evenodd" clip-rule="evenodd" d="M508.293 688.93C456.422 684.137 403.761 683.179 353.404 670.439C330.781 664.481 307.832 659.482 285.325 653.222C268.655 648.117 252.084 642.533 235.205 638.084C228.261 635.915 219.985 634.878 213.39 632.356C210.648 630.151 213.108 626.751 216.466 627.242C227.028 627.555 237.475 628.726 247.997 629.367C259.688 630.188 271.38 630.455 282.949 631.705C308.288 633.708 333.615 635.409 358.56 639.884C409.933 649.422 460.727 662.138 510.556 676.921C513.739 677.866 512.299 683.062 508.76 682.04C476.032 671.908 442.542 663.87 409.152 655.907C382.146 649.455 354.966 644.013 327.246 640.865C314.216 639.08 300.994 638.682 287.858 637.503C272.622 635.786 257.451 635.457 242.192 634.245C267.4 641.372 292.009 650.391 317.758 655.779C331.918 659.184 346.335 663.145 360.397 666.473C383.241 672.078 406.759 674.706 430.283 677.209C451.106 679.399 471.841 680.149 492.675 682.087C498.239 682.51 503.779 682.882 509.308 683.506C510.786 683.662 511.742 685.18 511.423 686.568C511.098 688.081 509.649 688.96 508.223 688.778L508.293 688.93Z" fill="#D399A9" fill-opacity="0.4"/>
<path fill-rule="evenodd" clip-rule="evenodd" d="M541.247 737.362C518.685 736.681 496.035 736.226 473.693 733.525C438.235 729.695 403.468 721.952 369.718 711.562C341.749 703.034 313.693 694.733 285.481 687.063C268.457 682.309 251.248 677.706 233.499 675.955C231.229 675.745 228.906 675.56 226.659 675.401C225.46 675.296 224.156 675.242 223.462 674.153C222.402 672.685 223.326 670.39 225.189 669.992C226.562 669.643 228.012 669.876 229.421 669.88C233.641 670.021 237.861 670.161 242.116 670.099C253.729 669.911 265.312 669.243 276.896 669.13C298.666 668.647 320.054 671.496 341.285 674.976C395.035 683.817 447.402 698.26 499.491 713.207C510.512 716.451 521.55 719.872 532.751 722.535C535.179 723.225 539.393 722.936 538.901 726.445C538.604 727.883 537.121 728.964 535.7 728.656C524.709 726.448 514.101 723.13 503.383 719.988C461.786 708.106 420.171 696.048 377.632 687.396C339.192 679.313 300.106 672.465 260.263 674.933C294.821 683.331 328.885 693.571 362.926 703.761C391.722 712.696 420.977 720.546 450.974 725.015C473.818 728.526 496.62 730.698 519.776 731.28C527.116 731.532 534.433 731.733 541.774 731.985C545.225 732.123 545.089 737.375 541.427 737.337L541.247 737.362Z" fill="#D399A9" fill-opacity="0.4"/>
<path fill-rule="evenodd" clip-rule="evenodd" d="M577.109 788.774C565.797 788.206 554.253 788.798 542.994 789.316C525.431 790.014 507.885 790.333 490.391 789.518C460.555 787.703 430.869 783.72 401.775 777.972C385.995 774.918 370.627 770.124 355.056 766.415C334.396 762.058 314.363 755.735 294.091 750.143C285.902 747.896 277.625 745.876 269.406 743.704C266.008 742.432 256.93 741.72 260.009 736.484C262.398 734.045 266.9 735.22 270.011 734.903C278.56 734.881 287.116 735.288 295.595 735.669C307.163 736.238 318.823 735.898 330.432 736.139C342.163 736.506 353.899 737.302 365.624 737.795C398.298 739.67 430.955 742.478 463.114 747.807C492.132 752.974 520.86 759.451 549.878 764.618C555.868 765.698 561.807 766.802 567.804 767.756C571.078 768.347 570.459 773.516 566.742 773.074C555.511 771.296 544.373 769.166 533.234 767.035C493.677 759.512 454.2 750.224 413.813 746.86C383.354 744.11 352.843 741.939 322.206 741.434C307.48 741.637 292.795 740.957 278.127 740.454C304.401 746.873 330.106 755.661 356.542 761.324C379.442 767.076 402.151 773.66 425.724 776.993C452.799 780.993 480.042 784.666 507.574 784.808C525.324 785.069 543.131 784.069 560.898 783.397C565.946 783.262 571.035 783.355 576.042 783.548C577.921 783.328 580.108 784.193 579.934 786.311C579.842 787.774 578.482 788.98 577.051 788.925L577.109 788.774Z" fill="#D399A9" fill-opacity="0.4"/>
<path fill-rule="evenodd" clip-rule="evenodd" d="M608.732 845.985C592.108 848.202 575.54 846.379 559.17 844.153C539.453 841.738 519.903 838.441 500.633 834.083C466.365 826.039 432.22 817.566 398.894 806.848C394.748 805.622 390.597 804.522 386.51 803.145C383.849 802.505 381.711 799.391 384.65 797.305C386.413 796.276 388.573 796.662 390.447 796.567C394.772 796.657 399.068 796.823 403.393 796.913C421.2 797.402 439.065 797.739 456.832 799.112C486.213 801.963 515.014 808.549 543.553 815.261C562.864 819.846 582.181 824.304 601.37 829.318C604.432 829.025 605.43 833.549 602.462 834.6C601.368 835 600.308 834.643 599.295 834.387C597.269 833.876 595.272 833.288 593.194 832.801C584.583 830.626 575.967 828.577 567.379 826.452C536.313 818.974 505.224 811.446 473.555 806.542C450.047 802.978 426.291 803.177 402.558 802.315C419.804 807.827 437.171 812.911 454.829 817.237C492.998 827.365 531.562 836.131 571.159 840.203C580.101 841.293 588.472 841.978 597.378 841.604C601.074 841.439 604.678 841.072 608.333 840.68C609.8 840.534 611.134 841.624 611.222 843.064C611.31 844.504 610.17 845.914 608.68 846.01L608.732 845.985Z" fill="#D399A9" fill-opacity="0.4"/>
<path fill-rule="evenodd" clip-rule="evenodd" d="M623.631 873.387C579.107 881.119 535.051 871.828 492.073 863.627C451.686 856.47 412.368 844.972 373.84 831.86C352.573 824.009 331.201 816.208 309.62 809.063C308.409 808.655 307.145 808.272 306.213 807.359C304.844 805.915 305.785 803.241 307.829 802.818C313.191 802.659 318.473 804.268 323.8 804.867C347.307 808.557 371.057 811.946 394.244 817.025C425.368 824.479 456.306 832.64 487.494 839.817C487.494 839.817 487.494 839.817 487.343 839.766C526.014 849.165 565.916 853.466 605.649 857.54C609.958 858.009 614.26 858.604 618.563 859.199C620.013 859.432 620.998 860.875 620.679 862.263C620.382 863.702 618.927 864.707 617.478 864.475C573.47 859.175 528.998 855.642 486.053 845.016C454.813 837.864 423.747 829.702 392.652 822.172C373.728 818.017 354.518 815.048 335.286 812.028C376.609 827.322 418.351 841.86 461.581 851.855C495.214 858.788 528.935 866.049 563.259 869.624C578.694 871.065 594.047 871.495 609.522 869.829C613.847 869.363 618.15 868.847 622.074 868.204C623.628 867.83 625.369 868.417 625.702 870.11C626 871.45 625.028 873.089 623.555 873.361L623.631 873.387Z" fill="#D399A9" fill-opacity="0.4"/>
<path fill-rule="evenodd" clip-rule="evenodd" d="M648.879 921.701C602.029 921.595 555.93 914.521 510.524 905.202C476.034 898.066 442.229 888.255 408.959 877.385C402.473 875.242 395.987 873.099 389.471 871.031C386.932 869.962 383.428 869.849 381.82 867.47C380.472 862.743 385.857 863.19 388.908 863.705C393.164 864.199 397.391 864.769 401.594 865.288C419.03 867.19 436.258 870.303 453.479 873.543C476.499 877.711 499.984 879.558 523.004 883.726C560.603 890.115 597.73 898.396 635.131 905.744C637.647 906.207 640.127 906.872 642.688 906.881C646.117 906.968 646.056 912.246 642.342 912.234C637.05 911.989 631.996 910.456 626.838 909.53C609.733 905.988 592.535 902.799 575.429 899.256C540.799 891.816 505.815 885.967 470.5 881.757C449.803 878.885 429.425 874.069 408.607 871.625C471.007 892.568 535.802 907.61 601.978 914.271C614.064 915.523 626.137 915.917 638.322 916.135C641.931 916.197 645.587 916.361 649.22 916.474C650.727 916.555 651.852 917.746 651.759 919.21C651.667 920.675 650.329 921.933 648.873 921.827L648.879 921.701Z" fill="#D399A9" fill-opacity="0.4"/>
<path fill-rule="evenodd" clip-rule="evenodd" d="M668.679 955.695C654.934 957.964 640.774 955.879 627.208 954.802C603.76 952.485 580.544 950.118 557.068 948.429C533.859 946.49 510.476 946.11 487.145 945.152C456.529 943.741 426.091 940.646 395.411 939.512C392.718 939.755 390.261 937.054 392.669 934.672C394.206 933.445 396.424 933.553 398.206 933.131C414.766 930.192 431.121 925.567 447.868 924.138C465.514 922.587 482.871 922.343 500.437 922.553C517.678 922.61 534.942 922.718 551.998 924.586C589.187 927.528 625.999 932.557 662.348 939.899C666.633 941.172 664.007 946.673 659.797 944.872C626.455 938.245 592.22 933.275 558.242 930.52C543.084 929.035 527.991 927.827 512.706 928.003C480.355 927.668 447.376 927.08 415.541 935.05C455.916 938.129 496.337 940.201 536.839 941.619C573 943.576 608.854 947.772 644.76 950.835C652.602 951.39 660.41 951.592 668.235 950.31C671.775 949.969 672.179 955.128 668.58 955.62L668.679 955.695Z" fill="#D399A9" fill-opacity="0.4"/>
<path fill-rule="evenodd" clip-rule="evenodd" d="M296.298 418.411C295.628 416.971 294.958 415.531 294.289 414.09C293.985 415.553 292.409 416.678 290.875 416.339C289.053 415.948 288.461 413.968 287.415 412.707C283.704 407.122 279.885 401.588 275.899 396.26C264.508 381.636 253.309 366.295 242.731 351.161C227.415 332.185 212.278 313.312 199.565 292.598C175.276 257.287 151.913 220.72 138.531 179.666C137.681 177.558 137.99 174.272 140.946 173.999C143.006 173.775 144.416 175.68 145.587 177.07C146.633 178.332 147.625 179.619 148.563 180.932C152.179 185.746 155.932 190.997 159.428 195.554C171.876 211.747 184.085 227.991 195.828 244.644C206.55 259.521 217.57 274.195 227.151 289.865C243.194 315.905 258.424 342.456 275.088 368.139C285.093 383.733 293.814 399.246 301.509 415.937C302.891 419.049 298.067 421.652 296.405 418.36L296.298 418.411ZM287.457 402.641C288.491 404.159 289.501 405.626 290.535 407.145C290.953 407.762 291.395 408.431 291.76 409.075C278.691 381.812 260.356 357.613 245.585 331.346C235.986 315.496 226.548 299.57 216.567 284.026C201.685 261.893 185.424 240.038 169.694 218.621C162.386 208.968 155.017 199.468 147.846 189.686C160.626 222.109 178.211 252.315 198.352 280.679C206.928 293.624 215.445 307.288 224.714 319.465C232.358 329.838 240.932 339.394 248.576 349.768C258.288 363.743 268.351 377.489 278.75 390.825C278.75 390.825 278.726 390.774 278.702 390.722C278.654 390.619 278.63 390.568 278.582 390.465C281.654 394.533 284.6 398.471 287.457 402.641Z" fill="#D399A9" fill-opacity="0.4"/>
<path fill-rule="evenodd" clip-rule="evenodd" d="M318.523 438.766C314.687 430.963 311.739 422.237 308.676 414.256C304.059 402.233 299.214 390.569 295.454 378.266C289.513 359.451 285.737 340.052 280.414 321.007C268.034 279.338 249.348 239.963 228.24 202.173C228.312 202.328 228.336 202.379 228.385 202.482C222.479 192.075 216.49 181.77 210.123 171.645C232.393 219.131 244.402 270.595 263.369 319.331C277.977 355.608 293.231 391.578 309.187 427.216C309.812 428.555 309.153 430.25 307.751 430.914C306.294 431.604 304.687 430.981 304.009 429.668C301.302 424.285 298.949 418.672 296.541 413.084C283.748 382.676 270.079 352.368 258.118 321.628C246.188 291.377 237.213 259.978 226.757 229.218C218.895 204.585 207.821 181.536 197.939 157.797C197.656 156.485 197.919 154.789 199.22 154.047C205.332 149.079 220.541 178.596 223.655 183.157C245.625 220.538 265.528 259.275 279.569 300.409C288.642 325.097 292.818 351.286 300.686 376.355C305.672 392.416 312.498 408.046 318.19 423.646C319.865 427.946 321.624 432.143 323.569 436.314C324.193 437.654 323.535 439.348 322.133 440.012C320.73 440.676 319.069 440.079 318.391 438.766L318.523 438.766Z" fill="#D399A9" fill-opacity="0.4"/>
<path fill-rule="evenodd" clip-rule="evenodd" d="M342.319 460.443C340.811 460.72 339.362 459.714 339.14 458.251C337.746 449.751 338.409 441.028 338.488 432.456C338.451 411.515 335.643 390.949 332.042 370.508C327.059 341.312 314.75 314.53 304.731 287.036C294.132 258.437 285.137 229.202 272.392 201.623C275.045 211.846 277.859 221.992 280.297 232.317C285.193 253.711 288.574 275.511 293.415 296.931C296.093 308.899 299.784 320.511 302.915 332.327C307.26 350.28 312.188 368.082 317.648 385.756C323.752 405.948 327.491 426.825 334.424 446.686C334.657 447.329 334.973 447.869 335.236 448.434C335.857 449.771 335.202 451.462 333.807 452.125C329.987 453.626 329.113 448.645 328.152 446.152C327.107 443.197 326.223 440.166 325.362 437.186C321.916 425.395 319.214 413.376 316.089 401.432C312.922 389.256 309.064 377.284 305.551 365.211C300.593 347.486 296.54 329.457 291.29 311.809C284.383 286.225 280.743 259.779 274.873 233.89C270.63 215.45 265.003 197.415 260.599 179.051C260.43 176.997 262.367 174.822 264.561 175.6C266.547 176.35 267.263 178.457 268.236 180.129C270.438 184.165 272.45 188.355 274.408 192.57C285.635 215.474 293.769 239.471 302.273 263.418C308.913 282.225 315.84 301.086 323.231 319.537C336.725 354.227 342.983 391.666 344.096 429.164C344.148 437.172 343.491 445.202 344.181 453.032C344.272 455.624 346.033 459.557 342.373 460.417L342.319 460.443Z" fill="#D399A9" fill-opacity="0.4"/>
<path fill-rule="evenodd" clip-rule="evenodd" d="M387.454 502.779C385.932 502.877 384.678 501.719 384.641 500.232C384.418 494.823 384.587 489.415 384.703 484.033C385.095 473.192 384.809 462.297 383.787 451.503C380.664 416.889 374.178 382.623 365.666 349.196C360.571 326.802 353.599 304.863 345.426 283.433C345.45 283.484 345.474 283.536 345.498 283.587C342.069 274.502 338.575 265.698 334.131 257.097C343.707 291.271 346.943 326.833 351.98 361.915C354.32 379.353 358.508 396.412 362.036 413.597C367.144 438.554 372.65 463.385 379.03 487.987C380.458 491.068 375.526 493.666 373.95 490.405C370.871 479.963 368.88 469.191 366.039 458.698C363.185 447.333 360.991 435.843 358.56 424.403C353.905 401.549 348.275 378.846 345.468 355.613C342.24 332.457 339.516 309.123 335.39 286.142C333.38 275.191 329.749 264.823 327.764 253.923C327.387 250.718 325.507 247.225 327.063 244.103C331.274 239.529 334.755 246.897 336.658 249.877C342.506 259.816 346.81 270.929 350.869 281.657C359.214 303.318 366.121 325.539 371.359 348.24C379.883 381.975 386.381 415.985 389.468 450.804C390.699 462.753 390.801 474.8 390.404 486.897C390.336 491.254 390.19 495.586 390.382 499.944C390.419 501.431 389.13 502.734 387.662 502.806L387.454 502.779Z" fill="#D399A9" fill-opacity="0.4"/>
<path fill-rule="evenodd" clip-rule="evenodd" d="M427.216 551.531C425.77 551.782 424.222 550.83 424.055 549.344C423.579 544.939 423.653 540.459 423.858 535.98C425.36 519.676 425.789 504.01 424.203 487.927C421.688 463.648 420.174 439.142 416.319 415.064C407.62 367.441 398.079 319.97 384.283 273.713C386.336 297.836 390.778 321.635 393.589 345.71C396.506 377.184 397.01 408.932 402.239 440.055C406.248 464.185 409.154 488.465 412.375 512.721C413.416 519.611 414.428 526.578 416.157 533.266C417.605 536.394 412.663 538.938 411.09 535.681C404.87 510.853 404.025 484.839 399.648 459.632C396.727 441.368 393.942 422.977 392.231 404.513C390.851 386.766 390.111 368.714 388.519 351.069C385.437 320.926 379.202 291.284 377.85 260.942C377.475 258.304 378.167 254.03 381.913 254.811C385.422 255.642 387.265 264.967 388.524 268.248C399.421 303.743 407.361 340.021 414.667 376.476C417.823 391.31 420.659 406.297 422.997 421.333C425.759 442.489 427.443 463.846 429.524 485.077C431.348 502.236 431.038 519.286 429.418 536.459C429.248 540.171 429.209 543.883 429.484 547.57C429.852 549.21 429.106 551.256 427.24 551.582L427.216 551.531Z" fill="#D399A9" fill-opacity="0.4"/>
<path fill-rule="evenodd" clip-rule="evenodd" d="M460.535 593.155C458.969 593.278 457.828 592.072 457.738 590.615C457.374 584.913 457.791 579.213 458.337 573.514C459.489 561.962 460.043 550.383 461.065 538.831C462.716 522.602 464.758 506.375 464.583 490.269C464.8 466.724 459.603 443.826 455.736 420.855C450.097 388.292 444.598 355.474 437.009 323.466C437.247 356.983 441.77 390.079 441.801 423.57C442.539 441.596 441.846 459.617 442.063 477.641C442.559 507.222 443.073 536.981 446.311 566.315C446.709 569.563 447.083 572.76 447.588 575.958C448.044 577.365 447.063 578.896 445.663 579.377C444.132 579.858 442.713 579.035 442.204 577.653C438.52 554.095 437.98 530.036 437.044 506.104C435.959 470.054 437.274 433.858 435.616 397.831C434.618 379.804 432.628 361.876 432.097 343.876C431.61 328.357 431.199 312.863 430.605 297.394C430.627 295.195 433.226 293.517 435.118 294.801C436.78 296.008 436.935 298.31 437.58 300.127C447.469 341.601 455.218 383.222 462.27 425.3C463.331 431.107 464.316 436.888 465.324 442.72C468.52 460.447 470.847 478.402 470.148 496.551C469.981 514.446 466.93 532.28 465.853 550.172C465.274 560.575 464.11 571.258 463.407 581.532C463.272 584.472 463.268 587.412 463.447 590.327C463.537 591.785 462.202 593.109 460.742 593.181L460.535 593.155Z" fill="#D399A9" fill-opacity="0.4"/>
<path fill-rule="evenodd" clip-rule="evenodd" d="M491.75 634.728C490.2 634.596 489.197 633.265 489.367 631.811C490.112 624.59 491.504 616.81 492.808 609.82C496.459 593.471 498.689 576.99 500.041 560.429C502.145 540.451 502.823 520.468 502.776 500.457C502.724 481.696 502.83 462.298 501.523 443.763C500.572 431.049 499.021 418.435 497.599 405.821C495.905 390.654 495.047 375.336 492.227 360.395C491.079 372.49 488.322 385.166 487.775 397.161C486.784 414.923 486.841 432.994 485.643 450.729C484.969 467.216 483.571 484.236 482.331 500.618C481.534 518.1 480.813 535.607 480.534 553.09C480.475 572.029 481.647 591.252 483.255 610.018C483.534 613.567 483.707 617.166 483.986 620.715C484.411 622.197 484.2 623.983 482.533 624.718C480.152 625.731 478.377 623.708 478.452 621.488C476.967 600.043 475.027 578.877 474.92 557.334C475.046 539.799 475.849 522.19 476.546 504.632C477.596 486.717 479.401 468.754 480.08 451.017C481.418 431.342 481.177 411.611 482.568 391.911C483.223 383.235 484.809 374.613 486.007 365.99C486.94 358.617 487.254 351.165 487.98 343.765C488.596 339.351 493.576 339.342 494.386 343.761C498.386 360.135 500.37 376.911 501.806 393.762C504.757 421.746 508.398 449.401 508.096 477.63C508.693 521.406 507.67 566.019 498.407 609.328C497.626 613.384 496.844 617.44 496.192 621.496C495.587 625.093 495.059 628.716 494.737 632.365C494.59 633.87 493.088 634.963 491.668 634.83L491.75 634.728Z" fill="#D399A9" fill-opacity="0.4"/>
<path fill-rule="evenodd" clip-rule="evenodd" d="M526.476 685.662C524.929 685.529 523.981 684.175 524.098 682.748C524.518 677.498 525.504 672.352 526.565 667.232C528.724 657.348 530.888 647.337 532.788 637.453C537.256 613.812 540.725 589.963 543.028 566.111C546.016 535.761 544.881 505.575 543.722 475.338C542.939 453.897 542.909 432.408 542.75 410.918C540.744 421.413 540.08 432.016 539.263 442.566C537.844 460.074 534.595 477.398 532.223 494.801C528.335 523.899 526.769 553.133 523.681 582.285C521.908 599.027 520.63 616.28 519.458 632.922C518.8 644.519 518.501 656.193 518.543 667.766C518.315 670.493 519.865 675.112 515.883 675.583C514.377 675.68 513.112 674.478 513.099 673.05C513.061 667.646 512.999 662.19 513.143 656.761C513.339 639.402 514.675 621.996 516.112 604.666C520.867 557.701 523.404 510.55 531.305 463.825C533.022 452.283 533.939 440.688 534.802 429.118C535.719 417.522 537.924 406.058 540.488 394.672C540.956 391.768 542.183 387.005 546.148 389.159C547.402 390.056 547.579 391.841 547.745 393.32C548.029 396.176 548.101 399.133 548.15 402.039C548.508 431.661 548.584 461.232 549.825 490.806C551.564 527.622 550.109 564.656 544.266 601.421C541.227 624.939 536.365 648.146 531.32 671.377C530.546 675.301 529.954 679.199 529.645 683.149C529.551 684.627 527.999 685.744 526.582 685.611L526.476 685.662Z" fill="#D399A9" fill-opacity="0.4"/>
<path fill-rule="evenodd" clip-rule="evenodd" d="M559.38 735.633C557.997 735.297 556.926 733.815 557.431 732.389C558.64 728.569 560.079 724.826 561.336 721.109C565.787 708.071 568.109 694.618 570.042 681.164C576.51 635.246 585.642 589.363 586.456 543.095C586.992 523.39 588.822 503.69 588.916 484.009C588.517 455.838 588.154 427.462 583.696 399.736C582.313 428.386 578.553 456.926 575.617 485.571C574.234 505.12 572.281 524.692 569.633 544.161C567.241 567.122 562.554 589.872 559.232 612.78C557.902 622.641 557.449 632.582 556.196 642.47C554.381 657.301 552.49 672.106 552.381 686.994C552.193 697.93 552.988 708.895 552.335 719.804C551.643 722.504 547.337 722.693 546.929 719.709C547.351 707.041 546.579 694.444 547.054 681.75C547.678 661.816 551.272 642.02 552.696 622.14C555.422 595.839 561.601 569.882 564.198 543.582C566.88 523.91 568.787 504.235 570.228 484.533C573.276 455.149 577.106 425.641 578.424 396.149C578.563 393.09 578.703 390.032 579.101 386.974C579.253 385.904 579.394 384.527 580.258 383.74C582.915 381.098 585.928 383.708 586.518 386.667C591.606 405.116 592.376 424.57 593.446 443.694C594.077 457.105 594.526 470.542 594.51 483.951C594.286 503.632 592.615 523.256 592.003 542.935C591.268 582.932 584.585 622.781 578.273 662.454C575.436 680.952 573.677 699.684 568.116 717.741C566.619 722.758 564.74 727.646 563.236 732.23C562.843 734.039 561.633 736.176 559.433 735.608L559.38 735.633Z" fill="#D399A9" fill-opacity="0.4"/>
<path fill-rule="evenodd" clip-rule="evenodd" d="M592.056 790.803C587.622 790.431 590.687 782.795 590.897 779.89C593.553 767.588 598.386 755.804 602.631 743.864C605.108 736.073 607.079 728.026 608.527 720.104C613.147 697.078 613.145 673.834 613.814 650.642C614.818 607.036 616.157 563.457 616.278 519.899C615.526 529.607 614.414 539.237 612.579 548.84C610.445 560.455 608.953 572.2 606.689 583.815C602.802 603.81 597.68 623.648 594.793 643.85C591.22 679.087 586.554 714.474 587.328 749.752C587.567 757.552 587.936 765.352 588.529 772.797C588.489 775.371 590.414 779.124 586.722 780.08C585.234 780.355 583.805 779.357 583.675 778.235C582.701 772.905 582.722 767.348 582.295 761.944C581.209 744.328 581.681 726.59 582.952 708.906C583.639 697.235 585.05 685.592 586.202 673.948C587.388 662.1 588.087 650.174 590.021 638.405C594.005 614.001 600.671 589.81 604.238 565.481C605.96 553.814 608.506 542.251 609.74 530.505C610.623 521.919 611.247 513.331 612.13 504.745C612.469 501.841 612.55 498.935 613.148 496.032C613.441 494.707 614.135 493.69 615.499 493.287C616.968 492.833 618.433 493.628 618.993 494.981C620.524 499.421 620.715 504.315 621.2 509.006C622.165 520.759 621.808 532.584 621.556 544.359C621.169 567.602 620.965 590.821 620.214 614.114C619.026 644.16 619.932 674.264 616.597 704.277C615.134 715.946 613.082 726.899 610.084 738.18C607.737 747.093 603.955 755.695 601.02 764.453C599.13 770.156 597.34 775.935 596.167 781.794C595.098 784.798 596.531 790.843 592.132 790.828L592.056 790.803Z" fill="#D399A9" fill-opacity="0.4"/>
<path fill-rule="evenodd" clip-rule="evenodd" d="M622.096 844.63C620.697 844.116 620.045 842.56 620.572 841.186C622.667 836.074 625.624 831.296 628.1 826.312C632.066 818.125 634.352 809.371 636.021 800.539C643.499 760.095 642.412 719.266 644.033 678.573C645.089 656.521 646.662 634.471 649.316 612.526C645.144 629.779 641.483 647.162 638.08 664.545C633.588 687.681 631.229 711.104 627.354 734.318C623.617 763.569 617.39 793.015 616.955 822.429C616.258 825.254 611.764 825.163 611.51 822.233C611.637 799.006 615.741 775.869 619.246 752.832C624.706 716.405 628.908 679.77 636.758 643.632C641.128 623.73 645.17 603.674 651.256 584.135C652.17 581.082 656.399 580.179 657.271 583.747C657.534 591.593 656.24 599.56 655.469 607.402C651.476 639.453 649.362 671.663 648.752 703.777C648.346 731.994 647.599 760.313 643.556 788.34C641.895 799.846 639.998 811.402 635.699 822.365C633.453 828.546 629.937 834.214 627.033 840.087C626.059 842.172 625.127 845.607 622.149 844.604L622.096 844.63Z" fill="#D399A9" fill-opacity="0.4"/>
<path fill-rule="evenodd" clip-rule="evenodd" d="M648.642 890.721C642.468 889.2 656.925 870.278 658.6 866.926C666.044 855.838 671.044 843.496 675.427 831.075C686.2 797.314 689.738 762.105 693.001 727.277C695.926 686.268 701.038 645.393 705.352 604.465C701.398 620.473 698.905 636.714 695.332 652.85C690.767 676.053 684.9 698.946 679.415 721.968C671.537 754.466 667.552 787.589 660.701 820.218C657.276 838.771 649.723 855.631 645.542 873.8C645.439 877.207 640.186 877.546 640.038 874.01C641.387 865.343 644.607 856.962 647.31 848.579C647.31 848.579 647.252 848.731 647.222 848.808C658.429 815.709 661.493 780.728 668.402 746.827C673.008 722.734 679.531 699.03 684.904 675.067C689.916 653.392 693.854 631.484 698.355 609.68C699.671 604.014 701.192 598.373 702.684 592.809C703.801 588.668 704.942 584.577 706.311 580.564C706.756 579.294 707.054 577.845 708.179 576.933C710.523 575.314 713.057 576.899 712.906 579.645C710.215 620.604 703.638 661.372 700.537 702.279C698.233 731.363 695.67 760.447 690.897 789.345C685.798 820.327 676.612 851.525 657.926 877.757C656.45 880.143 654.945 882.605 653.668 885.143C652.451 887.53 652.113 891.547 648.571 890.568L648.642 890.721Z" fill="#D399A9" fill-opacity="0.4"/>
<path fill-rule="evenodd" clip-rule="evenodd" d="M678.023 946.283C676.69 945.619 676.303 943.944 676.98 942.627C678.498 939.792 680.139 937.083 681.833 934.349C683.666 931.362 685.354 928.197 686.86 925.057C696.795 903.987 704.591 881.895 711.107 859.672C719.156 830.885 722.401 801.422 728.609 772.4C733.004 753.24 739.599 735.506 745.83 716.707C736.226 735.571 727.154 754.057 719.801 773.766C709.96 797.272 701.973 821.316 695.587 845.771C689.591 868.427 684.461 891.289 678.898 914.048C677.616 919.624 676.152 925.224 675.15 930.852C675.309 932.45 673.72 934.018 672.083 933.809C668.81 933.393 669.749 929.718 670.291 927.412C671.177 923.204 672.139 919.022 673.153 914.815C675.859 903.41 678.588 892.056 681.422 880.651C688.395 851.201 695.766 821.498 706.474 793.049C710.898 781.752 715.369 770.555 719.816 759.308C728.764 737.905 739.43 717.167 750.571 696.761C754.424 690.077 757.635 682.834 762.465 676.737C764.042 675.423 766.603 676.244 766.896 678.274C767.114 680.278 765.613 682.175 764.912 683.999C762.98 688.026 761.147 692.129 759.39 696.257C754.306 708.492 750.146 721.337 745.928 733.777C740.607 749.536 735.384 765.372 732.355 781.646C725.707 819.188 720.072 857.115 706.006 893.187C699.634 911.124 692.093 928.753 681.909 945.104C681.232 946.421 679.408 946.922 678.151 946.284L678.023 946.283Z" fill="#D399A9" fill-opacity="0.4"/>
<path fill-rule="evenodd" clip-rule="evenodd" d="M737.164 1093.49C714.208 1077.71 701.039 1052.7 689.153 1028.47C664.505 976.71 641.474 924.188 615.231 873.249C601.343 847.263 588.509 820.714 574.566 794.754C555.644 758.955 534.967 724.617 514.307 689.893C498.153 663.282 482.328 636.39 463.892 611.237C455.783 600.618 446.884 590.562 438.284 580.302C422.002 559.912 406.81 538.755 391.42 517.88C378.472 501.254 365.254 484.757 350.635 469.489C350.263 468.974 349.891 468.458 349.783 467.944C351.636 470.649 354.807 472.228 357.212 474.421C364.814 480.565 371.776 487.452 378.492 494.519C396.614 513.912 411.069 536.172 427.765 556.743C441.235 574.63 456.952 590.698 470.913 608.226C497.441 644.384 520.104 683.125 543.235 721.456C558.783 746.908 573.678 772.795 588.25 798.835C602.115 824.77 616.273 850.628 630.029 876.614C643.043 902.135 655.247 928.038 667.398 953.968C683.106 986.824 697.671 1021.04 715.362 1052.64C722.298 1066.39 728.113 1080.99 737.248 1093.39L737.164 1093.49Z" fill="#D399A9" fill-opacity="0.4"/>
<path fill-rule="evenodd" clip-rule="evenodd" d="M594.178 786.01C594.288 772.806 595.98 759.531 598.519 746.411C602.748 726.312 609.701 706.656 610.401 686.189C611.151 671.432 610.631 656.721 610.552 641.987C610.92 607.218 611.576 572.373 614.479 537.638C615.175 530.885 616.053 524.107 617.008 517.355C617.335 524.366 617.34 531.657 617.638 538.744C618.891 560.085 618.304 581.496 618.104 602.908C616.971 636.859 622.461 670.883 617.14 704.718C615.012 717.329 610.856 730.163 607.145 742.284C602.701 756.876 596.828 771.03 594.231 785.985L594.178 786.01Z" fill="#D399A9" fill-opacity="0.4"/>
<path fill-rule="evenodd" clip-rule="evenodd" d="M516.008 671.46C514.992 653.996 511.36 636.6 512.608 618.864C513.44 604.567 515.949 590.404 518.382 576.214C523.176 547.682 523.765 518.856 528.223 490.298C532.206 462.528 534.854 434.524 539.631 406.935C540.104 421.542 540.366 436.25 539.957 450.905C539.228 472.568 535.142 494.093 533.561 515.728C531.903 537.337 530.733 559.025 527.217 580.526C522.271 610.689 518.378 641.033 516.037 671.383L516.008 671.46Z" fill="#D399A9" fill-opacity="0.4"/>
<path fill-rule="evenodd" clip-rule="evenodd" d="M458.592 594.014C459.446 586.164 457.725 578.229 457.514 570.324C457.072 562.905 456.919 555.41 457.158 547.917C458.574 521.473 460.907 494.905 458.431 468.756C457.279 451.231 453.21 434.284 448.746 417.464C443.722 395.783 439.81 373.695 438.147 351.411C437.417 337.75 436.847 324.012 436.117 310.351C439.74 325.07 442.642 340.197 445.13 355.271C447.825 371.497 451.071 387.647 454.606 403.722C457.886 417.981 462.799 431.835 465.393 446.295C466.728 453.538 467.537 460.908 468.216 468.277C471.568 505.453 467.869 543.118 461.389 580.108C460.663 584.582 460.222 589.108 458.982 593.452C458.923 593.606 458.823 594.091 458.592 594.014Z" fill="#D399A9" fill-opacity="0.4"/>
<path fill-rule="evenodd" clip-rule="evenodd" d="M338.319 452.326C336.879 447.675 337.019 442.337 336.45 437.586C333.498 408.674 329.396 379.681 321.065 351.881C307.788 310.614 286.198 272.605 280.852 228.951C279.306 216.882 276.884 205.041 273.561 193.377C276.726 199.907 279.712 206.899 282.174 213.889C286.732 227.225 289.424 241.198 293.584 254.662C301.795 282.205 314.961 307.018 325.396 333.568C335.629 360.528 341.164 389.782 340.9 418.966C340.666 426.358 339.907 433.747 339.07 441.111C338.846 444.858 337.774 448.756 338.474 452.378C338.474 452.378 338.552 452.404 338.606 452.378C338.82 452.276 338.439 452.583 338.373 452.3L338.319 452.326Z" fill="#D399A9" fill-opacity="0.4"/>
<path fill-rule="evenodd" clip-rule="evenodd" d="M345.901 492.244C323.608 495.254 301.584 489.542 280.917 482.748C262.121 476.541 243.93 469.425 226.07 461.224C212.082 454.755 198.5 447.225 184.307 441.286C167.445 434.833 149.815 430.046 131.727 428.013C130.759 427.858 129.716 427.678 128.894 427.144C128.795 427.068 128.748 426.966 128.754 426.84C128.754 426.84 128.754 426.84 128.778 426.891C128.964 427.296 129.605 427.298 130.013 427.35C135.689 427.723 141.487 427.11 147.186 427.534C155.904 428.119 164.295 429.108 172.728 430.881C183.522 433.192 193.634 437.499 203.561 441.957C228.811 453.42 253.407 464.021 279.681 472.705C291.769 476.994 304.294 480.145 316.934 482.438C332.932 485.905 349.326 489.12 366.031 486.622C359.541 488.927 352.765 491.306 345.825 492.219L345.901 492.244Z" fill="#D399A9" fill-opacity="0.4"/>
<path fill-rule="evenodd" clip-rule="evenodd" d="M444.442 588.529C437.202 586.688 429.724 585.577 422.177 585.426C414.898 585.578 407.578 586.059 400.258 585.984C385.111 585.706 370.057 583.964 355.026 582.829C339.878 581.44 324.771 579.724 309.926 576.772C288.452 572.611 267.831 565.449 247.042 559.17C229.367 553.684 211.564 548.197 193.691 543.115C191.468 542.451 189.088 541.862 186.929 541.477C190.106 541.437 193.254 542.028 196.385 542.442C207.424 544.069 218.423 546.024 229.312 548.156C261.855 555.534 293.348 566.872 326.768 570.745C341.84 572.663 357.022 573.849 372.233 574.96C389.481 576.33 407.072 576.364 423.995 579.803C431.183 581.67 438.051 584.923 444.343 588.453L444.442 588.529Z" fill="#D399A9" fill-opacity="0.4"/>
<path fill-rule="evenodd" clip-rule="evenodd" d="M478.194 637.173C469.159 636.134 459.641 634.464 450.571 634.736C431.711 634.824 412.853 637.686 393.941 637.799C381.802 638.062 369.616 637.113 357.795 634.88C338.98 631.187 320.546 624.721 302.178 619.642C277.907 613.258 253.631 607 228.932 602.177C235.501 602.3 242.315 602.676 248.949 603.076C286.763 604.765 321.595 617.993 358.179 625.326C374.494 628.305 391.314 628.084 407.993 627.005C415.562 626.526 423.096 625.694 430.619 625.668C442.386 625.708 454.056 627.89 464.918 632.061C469.5 633.69 473.891 636.15 478.682 637.124C478.525 637.199 478.322 637.173 478.194 637.173Z" fill="#D399A9" fill-opacity="0.4"/>
<path fill-rule="evenodd" clip-rule="evenodd" d="M546.688 737.704C536.96 738.101 527.289 737.791 517.531 738.264C502.073 738.995 486.69 738.085 471.301 737.301C456.082 736.745 440.833 735.709 426.135 732.124C404.171 727.2 383.281 718.921 362.741 710.289C348.706 704.534 334.404 699.585 320.281 694.057C311.162 690.642 302.164 686.797 293.242 682.979C300.958 684.596 308.836 686.567 316.627 688.21C350.237 694.536 380.918 710.603 413.65 719.326C429.915 723.952 446.76 726.509 463.808 726.869C482.981 727.817 502.306 728.261 521.137 731.658C527.21 732.764 533.19 734.224 539.2 735.608C542.1 736.072 545.227 737.725 548.161 736.876C548.324 736.674 548.335 736.422 548.399 736.144C548.399 736.144 548.399 736.144 548.423 736.195C548.58 737.231 547.439 737.53 546.642 737.603L546.688 737.704Z" fill="#D399A9" fill-opacity="0.4"/>
<path fill-rule="evenodd" clip-rule="evenodd" d="M570.139 787.701C555.247 787.676 540.385 790.906 525.458 791.638C503.262 792.951 480.937 793.154 459.007 790.331C429.527 786.929 401.226 778.461 372.39 772.16C350.772 766.968 329.119 761.423 308.929 752.402C302.601 749.758 296.191 747.214 289.636 745.048C295.608 745.951 301.675 747.611 307.514 749.194C335.188 757.408 363.366 764.084 391.881 769.552C417.489 774.808 442.893 781.147 469.191 783.051C502.804 786.139 537.656 778.336 570.192 787.676L570.139 787.701Z" fill="#D399A9" fill-opacity="0.4"/>
<path fill-rule="evenodd" clip-rule="evenodd" d="M595.784 833.842C568.557 827.572 542.015 818.629 514.261 814.4C495.608 810.933 476.735 808.372 457.717 807.3C444.375 806.347 431.196 804.639 417.762 804.594C414.895 804.609 412.028 804.625 409.132 804.716C412.83 803.871 416.831 803.128 420.674 802.46C446.633 798.359 472.874 799.304 498.598 802.593C514.395 804.715 530.069 806.709 545.279 811.023C558.972 814.953 571.74 821.175 584.05 827.926C588.029 829.907 591.974 832.644 596.249 833.743C596.249 833.743 596.202 833.642 596.226 833.692C596.342 833.945 595.807 833.893 595.679 833.892L595.784 833.842Z" fill="#D399A9" fill-opacity="0.4"/>
<path fill-rule="evenodd" clip-rule="evenodd" d="M630.529 919.604C602.233 924.815 573.433 923.658 545.776 917.629C524.631 913.238 503.549 908.014 483.502 900.318C456.227 889.843 426.597 883.277 400.91 870.004C418.33 876.302 437.017 878.967 454.908 883.927C472.129 888.406 488.529 894.019 505.605 898.876C546.209 910.38 588.561 914.993 630.529 919.604Z" fill="#D399A9" fill-opacity="0.4"/>
</svg>
