<svg width="369" height="380" viewBox="0 0 369 380" fill="none" xmlns="http://www.w3.org/2000/svg">
<path fill-rule="evenodd" clip-rule="evenodd" d="M56.1536 143.58C56.3544 145.261 58.3827 145.542 59.5496 146.243C64.6959 148.565 69.9798 150.595 75.221 152.667C93.2421 159.38 62.1709 148.065 80.3535 154.351C90.9313 157.958 101.813 160.619 112.624 163.396C117.308 164.942 132.729 167.603 134.762 171.153C134.686 171.354 134.568 171.595 134.407 171.735C134.407 171.735 134.426 171.685 134.459 171.669C134.459 171.669 134.478 171.619 134.487 171.594C129.825 174.843 121.029 174.949 115.69 174.99C104.27 174.819 92.8508 174.075 81.5509 172.66C74.2932 171.917 66.2675 169.277 59.3619 173.453C53.7667 177.237 50.6539 184.312 49.9062 190.993C49.585 193.909 49.5949 196.808 49.4912 199.72C49.3592 205.775 45.9556 211.335 41.7784 215.513C39.5999 217.697 37.1627 218.923 34.9088 220.878C32.99 223.304 36.4971 224.46 38.2557 224.811C41.3944 225.657 44.5854 226.292 47.6862 227.238C51.2027 228.37 54.5815 229.936 57.9462 231.469C66.8017 235.77 78.6406 237.189 87.8316 232.187C98.3056 226.153 103.308 220.368 109.599 209.969C114.002 203.268 124.321 186.658 131.173 183.98C134.35 184.438 134.107 188.789 133.659 191.399C132.03 199.122 126.747 205.718 121.31 211.081C114.156 217.484 106.344 223.123 99.6851 230.144C92.8271 237.261 87.0976 245.465 81.9777 253.986C77.9197 260.703 74.6082 267.874 71.6134 275.137C70.109 278.751 68.8358 282.683 69.3265 286.594C69.8598 290.465 72.5792 293.415 74.7264 296.378C78.0255 300.58 81.7317 304.564 84.1551 309.437C85.5176 312.189 86.3832 315.182 86.7758 318.283C87.0323 323.882 89.4401 323.304 93.8168 321.667C101.164 319.177 108.409 316.39 115.262 312.567C120.359 309.884 125.413 306.955 129.784 303.051C135.831 297.289 140.42 289.742 142.939 281.668C144.664 275.902 145.013 269.844 145.051 263.897C145.083 258.034 144.775 252.214 144.377 246.417C144.086 241.836 143.965 237.233 143.948 232.641C143.555 230.113 143.185 227.594 142.839 225.084C142.516 222.727 142.203 220.344 141.937 217.979C141.711 220.215 141.642 222.109 141.674 223.239C141.504 229.107 141.448 234.961 141.69 240.813C142.161 251.338 143.219 261.884 142.262 272.47C141.256 284.326 134.726 296.354 125.438 303.468C120.921 306.83 116.056 309.4 111.13 311.918C106.681 314.245 102.049 316.13 97.3504 317.761C94.7672 318.588 92.2401 319.837 89.5913 320.266C88.1988 305.896 81.1596 301.366 73.7937 290.78C69.8617 285.966 72.3495 279.4 74.6792 274.178C76.5584 269.788 78.3945 265.726 80.5666 261.563C86.9209 249.783 94.5608 238.463 104.132 229.249C108.346 225.257 112.773 221.489 117.257 217.857C123.426 213.058 129.062 207.312 132.865 200.269C135.368 195.944 137.121 190.676 136.126 185.742C134.846 181.703 131.392 180.05 127.85 182.979C120.284 189.112 114.89 197.643 109.501 205.805C105.709 211.533 102.352 217.684 97.2992 222.39C92.6069 226.43 87.4984 230.428 81.5849 232.056C74.3048 233.654 66.6171 232.691 60.0013 229.611C56.6366 228.078 53.2768 226.461 49.7887 225.254C45.7808 223.851 41.5683 223.2 37.527 221.956C43.8554 218.02 49.3785 211.858 51.3333 204.345C52.1796 201.255 51.9958 197.746 52.1328 194.674C52.2855 187.424 54.9083 179.074 61.369 175.217C67.3127 172.367 73.8923 174.401 79.9726 175.043C91.2913 176.551 102.743 177.279 114.206 177.552C120.826 177.624 129.844 177.573 135.723 173.896C143.134 166.816 121.807 163.551 118.021 162.203C101.009 157.821 83.887 153.655 67.6249 147.007C53.3474 141.397 87.8108 154.743 73.5 149.292C68.5046 147.285 63.334 145.384 58.6041 142.961C58.1802 141.797 56.6997 142.068 56.3293 143.045C56.2629 143.22 56.2342 143.439 56.2386 143.641L56.1536 143.58Z" fill="#D399A9" fill-opacity="0.4"/>
<path fill-rule="evenodd" clip-rule="evenodd" d="M140.33 195.33C138.587 206.42 140.751 217.472 140.862 228.519C140.957 231.335 140.906 234.182 141.285 236.962C141.383 237.63 142.016 238.099 142.659 237.97C144.135 237.641 143.589 235.943 143.505 234.88C143.274 231.496 143.303 228.068 143.185 224.67C143.135 217.314 139.969 196.712 144.54 191.422C144.497 191.464 144.464 191.48 144.422 191.521C144.53 191.447 144.639 191.374 144.757 191.419C144.781 191.428 144.805 191.437 144.781 191.428C150.297 196.126 153.31 220.912 154.726 229.157C156.354 240.98 157.826 252.858 157.888 264.891C157.986 278.541 158.06 292.326 161.218 305.531C163.258 313.984 166.205 322.467 171.643 329.084C177.874 336.889 183.264 340.565 193.126 342.066C199.286 343.139 205.637 343.138 211.773 344.058C219.489 345.376 227.043 347.407 234.373 350.098C238.603 351.701 239.95 349.288 240.287 345.117C240.737 341.361 241.31 337.566 242.659 334.007C246.096 324.934 253.025 317.844 255.659 308.467C258.44 298.343 258.239 287.462 254.863 277.757C250.684 264.108 241.991 252.675 232.411 242.798C241.311 248.405 250.193 254.35 260.217 257.775C270.569 261.124 281.665 262.576 292.652 261.609C301.274 260.462 309.739 257.02 317.053 251.909C325.517 246.117 332.381 238.199 339.551 230.828C342.313 227.89 345.474 226.107 348.457 223.655C352.071 219.751 346.824 215.269 344.753 212.249C343.582 210.774 342.478 209.266 341.392 207.709C338.868 204.03 336.841 199.966 335.358 195.678C333.135 189.419 331.414 182.978 330.071 176.393C329.226 172.204 328.173 167.994 326.15 164.275C324.156 160.338 321.044 157.21 317.733 154.466C309.435 147.481 297.954 147.259 287.6 148.552C283.239 149.078 278.855 149.595 274.513 150.357C268.222 151.556 261.811 153.57 255.647 155.218C240.637 158.674 226.378 165.71 211.303 168.769C203.838 170.354 196.261 171.381 188.708 172.274C179.953 173.342 171.19 174.006 162.757 171.728C162.331 171.567 161.873 171.422 161.457 171.235C160.862 170.952 160.104 171.382 159.867 172.009C159.62 172.66 159.931 173.409 160.545 173.641C170.4 177.088 181.241 175.721 191.528 174.46C197.993 173.728 204.44 172.76 210.859 171.438C227.103 168.22 242.421 160.668 258.576 157.045C264.693 155.378 270.455 153.578 276.614 152.586C279.944 152.071 283.259 151.665 286.551 151.25C292.87 150.549 299.345 149.935 305.537 151.421C310.667 152.505 315.268 155.194 318.98 158.95C322.021 161.765 324.3 165.379 325.736 169.363C327.101 173.319 327.785 177.505 328.725 181.587C330.247 188.125 332.144 194.604 334.702 200.76C336.469 204.869 338.875 208.647 341.513 212.168C343.42 214.839 345.894 217.153 347.181 220.248C347.52 221.208 346.984 221.836 346.246 222.359C344.674 223.511 343.037 224.553 341.517 225.783C338.193 228.421 335.389 231.687 332.466 234.764C322.378 245.558 312.368 254.29 298.18 258C290.077 260.203 281.665 259.51 273.585 258.369C263.155 256.939 253.448 252.889 244.566 247.375C233.454 240.614 222.229 233.724 213.391 224.099C207.782 217.79 202.832 210.813 196.66 205.064C191.839 200.458 186.52 196.379 180.737 193.099C175.525 190.379 165.291 184.439 159.683 187.759C154.323 191.919 169.173 204.079 172.029 206.881C176.733 211.3 182.284 214.55 188.026 217.298C194.244 220.428 200.477 223.592 206.596 226.913C222.793 235.514 236.535 248.459 246.286 264.448C250.913 272.277 254.125 281.203 255.118 290.493C255.466 298.134 254.697 306.154 251.32 313.214C246.312 323.01 239.429 330.691 238.258 342.199C237.995 343.962 237.917 345.738 237.479 347.463C237.298 348.513 236.239 348.026 235.559 347.825C231.74 346.493 227.907 345.127 223.955 344.145C219.88 343.06 215.739 342.15 211.56 341.484C205.678 340.603 199.663 340.645 193.806 339.63C189.726 338.915 185.589 337.921 182.032 335.685C177.918 332.779 174.495 328.903 171.522 324.767C164.365 313.63 162.087 299.813 160.859 286.508C160.033 272.925 160.833 259.185 159.246 245.687C158.233 236.591 157.051 227.516 155.518 218.509C154.196 210.729 152.798 202.863 150.109 195.481C147.68 188.055 142.293 185.584 140.344 195.364L140.33 195.33ZM160.914 189.859C165.888 187.215 177.888 194.341 182.41 197.029C188.887 201.116 194.677 206.233 199.894 211.935C204.605 217.188 208.72 223.018 213.678 228.048C208.075 224.579 202.168 221.624 196.313 218.604C189.178 214.897 181.574 211.787 175.411 206.443C171.978 203.451 168.582 200.359 165.476 197.004C163.795 195.02 161.883 193.006 160.984 190.459C160.946 190.273 160.885 190.077 160.914 189.859Z" fill="#D399A9" fill-opacity="0.4"/>
<path fill-rule="evenodd" clip-rule="evenodd" d="M92.275 94.2125C90.0341 100.127 89.6131 106.588 90.0767 112.782C90.6865 119.233 94.4994 124.575 98.5784 129.072C101.354 132.159 104.14 135.22 107.044 138.183C111.071 142.174 114.872 146.48 119.383 149.908C122.042 151.804 125.033 153.396 127.536 155.491C130.408 157.897 132.707 160.746 134.84 163.675C135.467 164.514 136.084 166.095 137.372 165.264C137.926 164.872 138.126 164.06 137.762 163.521C136.795 162.008 135.71 160.594 134.591 159.195C132.311 156.297 129.7 153.703 126.696 151.647C124.367 150.02 121.829 148.657 119.614 146.872C114.49 142.351 109.575 137.136 104.891 132.238C101.37 128.267 97.4881 124.532 94.8802 119.79C91.6589 114.098 92.1563 107.15 93.003 100.708C93.785 96.3609 95.6685 92.3169 97.3438 88.2514C98.0935 86.5579 98.6497 84.5905 99.7632 83.1495C101.106 83.1711 102.429 83.9589 103.819 84.1416C104.902 84.3511 106.013 84.4855 107.115 84.5017C111.006 84.5718 114.687 83.4156 118.517 83.4338C123.909 83.3268 128.926 86.2023 132.164 90.4955C135.34 95.0232 136.787 100.902 137.19 106.472C137.76 114.741 138.693 122.976 139.456 131.233C140.336 140.68 140.898 150.465 144.451 159.205C145.007 160.591 146.509 161.762 147.83 160.342C150.474 156.787 150.989 147.725 151.592 143.138C152.331 132.843 152.157 122.46 150.55 112.364C149.228 104.727 147.149 97.2332 146.981 89.4028C146.638 81.678 148.858 74.0356 151.309 66.7102C153.061 61.7282 155.338 57.0022 158.947 53.1821C162.704 48.902 167.084 45.116 172.279 42.9574C176.533 41.2158 180.792 39.3901 184.801 37.0112C186.603 36.1753 188.644 34.2832 190.649 34.5555C191.447 35.3737 191.435 36.8309 191.864 37.9105C192.993 41.6342 194.785 45.179 197.538 47.8269C201.617 52.0379 206.993 55.6796 208.64 61.7486C210.155 73.0128 202.295 82.8458 196.64 91.852C189.264 103.617 180.882 114.685 173.908 126.745C171.68 130.487 169.414 134.185 166.968 137.787C164.916 141.136 153.352 155.183 159.449 157.207C161.264 157.407 162.926 156.088 164.46 155.179C171.328 150.816 176.709 144.458 181.751 137.999C192.316 124.376 200.223 108.858 209.877 94.5742C214.701 87.6893 219.549 80.6703 225.691 74.9438C229.29 71.7217 233.171 69.1799 237.341 66.9478C250.005 60.196 264.82 60.6787 278.238 62.3518C280.441 62.6706 282.64 63.0736 284.828 63.5016C287.674 64.2645 293.291 64.5585 294.583 67.2833C294.569 67.2493 294.564 67.1902 294.527 67.1473C294.512 67.1133 294.498 67.0792 294.461 67.0363C294.833 67.6933 294.775 68.8462 294.769 69.5032C294.662 71.4975 294.612 73.4847 294.609 75.4897C294.732 81.8701 294.911 88.2433 294.864 94.6451C294.92 104.697 294.092 113.87 287.526 122.073C278.784 133.807 265.222 139.645 252.206 144.115C235.779 150.1 219.126 155.111 202.237 159.174C190.131 162.383 177.697 164.034 165.802 168.183C157.045 171.113 162.392 175.259 163.664 171.901C173.956 167.059 185.359 165.991 196.178 163.183C210.37 159.819 224.524 156.125 238.42 151.473C259.105 144.235 284.381 137.934 294.341 114.996C296.857 108.928 297.136 102.27 297.241 95.8609C297.335 86.4103 296.938 76.8308 297.099 67.4912C296.509 63.055 291.512 62.3367 288.033 61.5344C284.057 60.6873 280.043 59.9405 276.006 59.4712C265.935 58.3784 255.579 58.1806 245.602 60.9064C235.629 63.8344 226.323 69.8525 219.288 77.9348C210.937 87.7822 203.959 98.7807 197.289 109.896C188.543 124.065 174.945 147.687 160.058 154.6C161.23 148.51 165.943 143.847 169.119 138.745C174.19 131.208 178.292 123.448 183.335 115.987C185.79 112.36 188.306 108.785 190.747 105.124C195.292 98.1911 199.871 91.2418 204.317 84.2137C208.189 78.0575 211.416 70.9684 211.261 63.6016C210.925 54.3605 202.103 49.9004 197.19 43.5393C196.152 41.9997 195.308 40.3043 194.653 38.5373C193.956 36.8114 193.736 34.8941 192.907 33.2327C191.628 31.258 188.984 31.7465 187.176 32.8098C183.404 34.8486 179.717 37.0914 175.766 38.747C172.894 39.9803 169.927 41.0345 167.248 42.6849C161.88 46.0107 157.277 50.7437 153.609 56.0031C149.627 62.5192 147.44 70.0022 145.703 77.3688C142.449 90.2367 146.573 102.89 148.517 115.377C149.532 123.041 149.69 130.897 149.428 138.65C149.002 145.052 148.576 151.597 146.538 157.761C144.051 151.344 143.153 144.584 142.478 137.737C141.845 130.705 141.156 123.393 140.415 116.435C139.642 108.346 139.853 99.7999 136.218 92.4901C132.829 84.9584 124.911 80.0382 116.772 80.9095C112.804 81.1831 109.189 82.307 105.317 81.7571C103.96 81.5583 102.646 81.1751 101.318 80.7579C100.448 80.4857 99.4601 80.312 98.6222 80.883C97.0268 82.0268 96.4231 84.1195 95.6449 85.8882C94.5437 88.6522 93.3338 91.3464 92.3035 94.1373L92.275 94.2125Z" fill="#D399A9" fill-opacity="0.4"/>
<path fill-rule="evenodd" clip-rule="evenodd" d="M56.5927 140.806C56.9236 141.058 57.4101 140.989 57.6643 140.634C58.0709 140.1 58.5699 139.638 59.0272 139.197C59.9537 138.191 61.0315 137.822 62.2996 137.941C67.4791 138.492 72.2022 140.969 77.0517 142.662C80.3353 143.942 83.6337 145.228 86.8753 146.619C91.7839 148.786 96.6205 151.143 101.628 153.094C109.957 156.358 118.383 159.37 126.713 162.634C129.122 163.565 131.475 164.601 133.861 165.595C134.878 166.017 135.88 166.433 136.873 166.917C137.249 167.096 137.721 166.841 137.87 166.445C138.026 166.034 137.845 165.567 137.457 165.421C135.924 164.695 134.35 164.081 132.793 163.418C131.221 162.751 129.65 162.083 128.066 161.447C114.735 156.215 101.126 151.674 88.1871 145.452C83.2577 143.295 78.2174 141.385 73.1832 139.46C69.9383 138.303 66.7355 136.854 63.2866 136.416C61.7918 136.265 60.1178 136.228 58.8629 137.29C57.9397 138.061 57.1628 138.762 56.4482 139.703C56.2 140.043 56.241 140.565 56.5718 140.817L56.5927 140.806Z" fill="#D399A9" fill-opacity="0.4"/>
<path fill-rule="evenodd" clip-rule="evenodd" d="M157.699 179.298C168.674 183.141 180.157 185.285 191.531 187.645C205.397 190.491 219.448 192.49 233.232 195.764C243.079 198.233 252.707 201.136 262.383 204.056C274.044 207.442 285.971 209.984 297.661 213.295C310.655 216.728 323.786 220.728 337.338 221.334C340.336 221.409 343.32 221.594 346.313 221.467C347.136 221.435 347.978 221.353 348.806 221.236C349.123 221.185 349.369 220.819 349.332 220.49C349.271 220.152 348.978 219.926 348.637 219.969C348.491 219.999 348.32 220.021 348.264 220.028C344.48 220.457 340.702 220.087 336.938 220.036C330.493 219.858 324.172 218.496 317.909 217.126C310.241 215.396 302.64 213.347 295.058 211.248C285.533 208.643 275.904 206.456 266.379 203.851C256.632 201.046 247.033 197.925 237.196 195.431C229.392 193.277 221.426 191.835 213.45 190.418C201.456 188.196 189.477 186.007 177.588 183.366C172.43 182.214 167.202 180.892 162.168 179.415C160.807 179.014 159.488 178.572 158.165 178.07C157.857 177.954 157.493 178.131 157.37 178.457C157.246 178.783 157.402 179.157 157.709 179.273L157.699 179.298Z" fill="#D399A9" fill-opacity="0.4"/>
<path fill-rule="evenodd" clip-rule="evenodd" d="M154.954 168.142C156.023 168.318 157.055 167.448 158.044 167.049C161.967 165.039 165.905 163.063 169.823 160.993C185.399 152.479 200.191 142.463 215.536 133.488C226.072 126.79 236.92 120.554 246.966 113.011C256.543 105.777 265.47 97.5517 273.64 88.6101C277.61 84.2674 281.234 79.622 285.317 75.4082C287.292 73.405 289.37 71.5559 291.558 69.9198C292.348 69.3309 293.129 68.767 293.91 68.2031C294.18 67.9901 294.29 67.6303 294.129 67.3403C293.969 67.0503 293.572 66.9571 293.311 67.1451C292.218 67.9631 291.11 68.7472 290.04 69.5742C286.769 72.1465 283.828 75.1306 281.047 78.2614C270.634 90.7671 259.135 102.431 246.216 112.067C231.559 122.793 215.784 131.691 200.411 141.171C188.516 148.673 176.612 156.2 164.156 162.543C161.42 163.914 158.694 165.404 155.907 166.698C155.481 166.966 154.89 166.742 154.672 167.319C154.548 167.645 154.704 168.019 155.011 168.135L154.954 168.142Z" fill="#D399A9" fill-opacity="0.4"/>
<path fill-rule="evenodd" clip-rule="evenodd" d="M150.148 181.969C152.457 190.496 155.462 198.828 159.157 206.763C161.076 210.614 163.095 214.416 164.98 218.283C168.884 226.526 172.569 234.915 176.988 242.866C181.487 250.818 185.987 258.771 190.103 266.951C194.541 275.138 199.589 282.926 203.96 291.145C208.412 299.223 213.735 306.713 218.438 314.628C223.216 322.772 227.824 331.081 232.294 339.395C233.6 342.011 234.779 344.607 235.853 347.335C236.102 347.888 236.253 348.49 236.503 349.043C236.663 349.333 237.036 349.417 237.32 349.238C237.723 348.961 237.615 348.461 237.45 348.112C236.32 344.961 234.835 341.819 233.411 338.873C226.201 325.307 218.584 311.961 210.185 299.178C206.836 294.04 203.997 288.551 200.941 283.208C196.252 275.184 191.412 267.275 187.315 258.902C184.51 253.54 181.453 248.341 178.506 243.068C174.473 235.809 170.933 228.248 167.459 220.656C164.019 213.19 159.787 206.17 156.91 198.431C155.266 194.14 153.664 189.807 152.366 185.389C152.003 184.134 151.651 182.854 151.322 181.583C151.227 181.26 150.892 181.076 150.58 181.187C150.267 181.298 150.078 181.656 150.172 181.978L150.148 181.969Z" fill="#D399A9" fill-opacity="0.4"/>
<path fill-rule="evenodd" clip-rule="evenodd" d="M88.2513 321.45C88.397 321.992 89.2056 322.069 89.4239 321.493C89.7905 319.884 90.9417 318.486 91.7099 317.028C96.3747 309.281 100.265 301.01 103.262 292.458C105.722 284.965 107.729 277.385 110.275 269.952C114.766 255.318 120.731 241.213 126.413 227.001C130.22 217.38 133.672 207.626 138.046 198.22C139.38 195.2 140.722 192.155 142.056 189.135C142.179 188.809 142.024 188.435 141.716 188.319C141.409 188.202 141.069 188.388 140.921 188.705C139.678 191.559 138.402 194.429 137.159 197.282C130.934 210.859 126.156 225.04 120.361 238.837C116.91 247.303 113.531 255.795 110.789 264.53C109.05 269.832 107.241 275.108 105.653 280.439C103.762 286.715 102.059 293.063 99.4023 299.078C97.1338 304.495 94.5817 309.805 91.5855 314.86C90.5187 316.749 89.2959 318.55 88.3945 320.501C88.2806 320.802 88.1477 321.153 88.2181 321.466L88.2513 321.45Z" fill="#D399A9" fill-opacity="0.4"/>
<path fill-rule="evenodd" clip-rule="evenodd" d="M38.2184 221.415C38.3485 222.926 40.0342 221.473 40.744 221.168C42.8406 219.985 44.9845 218.82 47.1331 217.714C54.4449 213.892 62.0536 210.785 69.6387 207.669C69.6387 207.669 69.6386 207.669 69.5819 207.676C79.4286 203.725 89.3647 200.038 98.6413 194.668C104.358 191.561 110.132 188.59 115.859 185.457C120.005 183.216 124.174 180.984 128.64 179.61C130.126 179.112 131.64 178.682 133.13 178.244C133.456 178.167 133.632 177.775 133.538 177.453C133.453 177.105 133.108 176.946 132.796 177.057C131.216 177.519 129.636 177.981 128.06 178.501C123.485 179.949 119.24 182.239 114.995 184.528C106.353 189.078 97.8007 193.891 89.0883 198.271C76.217 204.142 62.8987 208.554 50.1829 214.799C46.3166 216.659 42.5634 218.791 38.7725 220.88C38.4887 220.916 38.2566 221.172 38.2325 221.449L38.2184 221.415Z" fill="#D399A9" fill-opacity="0.4"/>
<path fill-rule="evenodd" clip-rule="evenodd" d="M99.4395 84.7164C101.523 89.4893 105.367 93.0378 108.647 96.8602C112.74 101.535 116.255 106.736 119.113 112.318C123.663 120.92 126.841 130.149 130.332 139.267C132.329 144.838 134.988 150.087 137.415 155.449C138.32 157.483 139.116 159.59 139.955 161.656C140.374 162.474 140.854 164.347 141.881 163.418C142.066 163.144 142.024 162.755 141.802 162.557C140.298 159.751 139.419 156.581 137.99 153.718C129.932 137.826 125.944 119.75 116.206 104.797C112.329 98.341 106.633 93.4031 102.306 87.3501C101.631 86.3493 101.023 85.3162 100.556 84.1937C100.259 83.4794 99.1285 83.9681 99.43 84.7415L99.4395 84.7164Z" fill="#D399A9" fill-opacity="0.4"/>
<path fill-rule="evenodd" clip-rule="evenodd" d="M185.575 40.7438C183.809 45.835 183.649 51.2486 182.974 56.5244C182.154 64.3243 181.485 72.1529 179.913 79.8686C178.831 85.7924 176.921 91.5461 174.818 97.169C171.879 104.997 168.893 112.808 165.755 120.59C160.421 133.099 155.565 145.847 150.68 158.527C150.537 158.903 150.3 159.243 150.134 159.61C150.058 159.954 150.256 160.287 150.582 160.353C151.532 160.913 153.324 154.829 153.76 153.962C159.496 138.108 166.428 122.736 172.377 106.963C175.34 99.1436 178.581 91.3725 180.438 83.1913C182.242 75.0764 183.177 66.8325 183.927 58.5761C184.937 50.2749 185.026 41.3381 190.162 34.3423C190.357 34.0434 190.315 33.6549 190.036 33.4633C189.781 33.2807 189.384 33.3308 189.189 33.6297C187.725 35.8548 186.383 38.1838 185.552 40.7348L185.575 40.7438Z" fill="#D399A9" fill-opacity="0.4"/>
<path fill-rule="evenodd" clip-rule="evenodd" d="M157.547 240.401C157.228 241.312 156.811 242.272 156.762 243.256C156.836 244.059 157.995 243.924 157.977 243.115C158.853 239.664 160.489 236.558 161.955 233.33C163.155 230.804 164.535 228.232 166.378 226.15C167.022 225.448 167.69 224.755 168.471 224.192C168.741 223.979 168.812 223.576 168.619 223.302C168.425 223.028 168.042 222.969 167.772 223.182C165.23 225.113 163.386 227.911 161.902 230.759C160.28 233.899 158.814 237.127 157.537 240.426L157.565 240.351L157.547 240.401Z" fill="#D399A9" fill-opacity="0.4"/>
<path fill-rule="evenodd" clip-rule="evenodd" d="M158.915 261.038C158.716 261.851 157.502 263.913 158.793 264.144C159.114 264.152 159.412 263.863 159.432 263.527C159.609 262.419 160.111 261.377 160.477 260.34C162.908 253.924 165.471 247.444 169.48 241.855C170.366 240.586 171.323 239.344 172.313 238.228C172.707 237.546 174.316 236.723 173.679 235.908C173.452 235.65 173.064 235.676 172.818 235.897C171.426 237.29 170.17 238.821 168.99 240.437C164.408 246.611 161.574 253.878 158.906 261.063L158.915 261.038Z" fill="#D399A9" fill-opacity="0.4"/>
<path fill-rule="evenodd" clip-rule="evenodd" d="M160.014 288.309C159.862 289.139 158.832 291.214 160.052 291.418C160.374 291.425 160.672 291.137 160.691 290.801C161.259 287.376 162.886 284.152 164.385 281.051C169.791 271.349 176.765 262.498 180.318 251.836C180.461 251.031 181.575 249.446 180.615 249.054C180.308 248.938 179.958 249.149 179.858 249.484C177.715 256.209 174.443 262.565 170.665 268.47C166.693 274.818 162.3 281.064 160.024 288.284L160.014 288.309Z" fill="#D399A9" fill-opacity="0.4"/>
<path fill-rule="evenodd" clip-rule="evenodd" d="M167.002 308.239C166.27 310.455 165.577 312.714 164.869 314.939C164.66 315.491 164.408 316.37 165.216 316.447C165.902 316.42 165.851 315.627 166.089 315.144C167.476 310.768 168.863 306.25 170.43 301.972C172.544 296.037 175.574 290.536 178.774 285.157C182.334 279.111 186.83 273.592 189.97 267.302C190.302 266.568 189.239 266.022 188.864 266.797C187.531 269.53 185.901 272.123 184.218 274.638C177.005 284.974 170.572 296.035 167.002 308.239Z" fill="#D399A9" fill-opacity="0.4"/>
<path fill-rule="evenodd" clip-rule="evenodd" d="M176.212 328.58C175.974 329.493 174.281 332.892 175.699 333C176.271 332.987 176.353 332.416 176.396 331.945C177.076 329.366 178.077 327.08 179.126 324.668C183.362 315.555 188.846 307.143 193.683 298.371C196.452 293.488 198.72 288.357 200.714 283.094C200.837 282.768 200.729 282.412 200.432 282.27C200.124 282.154 199.755 282.272 199.632 282.598C197.966 286.925 196.181 291.207 193.99 295.278C193.99 295.278 193.99 295.278 193.971 295.328C193.971 295.328 193.981 295.303 193.99 295.278C188.181 306.403 180.774 316.752 176.255 328.539L176.212 328.58Z" fill="#D399A9" fill-opacity="0.4"/>
<path fill-rule="evenodd" clip-rule="evenodd" d="M189.992 338.357C189.773 338.933 189.545 339.535 189.502 340.149C189.472 340.94 190.636 341.008 190.708 340.176C191.877 335.947 194.049 332.07 195.965 328.153C201.115 318.697 206.137 309.222 209.42 298.916C209.544 298.59 209.331 298.223 209.038 298.141C208.731 298.024 208.381 298.236 208.281 298.57C207.948 299.591 207.569 300.593 207.213 301.605C202.98 314.56 194.914 325.72 190.001 338.332L189.992 338.357Z" fill="#D399A9" fill-opacity="0.4"/>
<path fill-rule="evenodd" clip-rule="evenodd" d="M216.582 313.322C215.116 322.826 211.263 331.713 206.98 340.236C206.648 340.97 206.221 341.668 206.054 342.465C206.011 343.222 207.131 343.331 207.255 342.576C209.509 337.554 212.164 332.685 214.026 327.486C215.792 322.968 216.948 318.276 217.778 313.518C217.897 312.703 216.725 312.517 216.572 313.347L216.582 313.322Z" fill="#D399A9" fill-opacity="0.4"/>
<path fill-rule="evenodd" clip-rule="evenodd" d="M223.84 325.76C223.051 331.767 221.013 337.501 219.17 343.222C219.155 344.047 220.337 344.065 220.385 343.224C222.228 337.932 223.972 332.545 224.855 327.005C224.898 326.391 225.335 325.381 224.541 325.195C224.238 325.138 223.869 325.399 223.826 325.726L223.84 325.76Z" fill="#D399A9" fill-opacity="0.4"/>
<path fill-rule="evenodd" clip-rule="evenodd" d="M225.403 324.489C227.68 325.61 230.191 326.045 232.625 326.681C235.991 327.641 239.275 329.171 242.299 330.89C242.951 331.309 243.624 330.246 242.958 329.793C238.663 327.22 233.956 325.523 229.082 324.479C228.004 324.185 226.931 323.807 225.93 323.313C225.622 323.196 225.277 323.324 225.13 323.64C225.006 323.966 225.105 324.348 225.412 324.464L225.403 324.489Z" fill="#D399A9" fill-opacity="0.4"/>
<path fill-rule="evenodd" clip-rule="evenodd" d="M212.726 304.382C219.602 307.847 227.313 308.963 234.52 311.55C239.568 313.348 244.374 316 248.478 319.504C248.108 320.195 249.048 320.78 249.503 320.15C250.555 318.8 248.088 317.608 247.299 316.908C244.148 314.739 240.903 312.679 237.377 311.286C230.836 308.578 223.787 307.427 217.152 304.97C215.805 304.46 214.51 303.883 213.244 303.231C212.554 302.913 211.989 304.046 212.717 304.407L212.726 304.382Z" fill="#D399A9" fill-opacity="0.4"/>
<path fill-rule="evenodd" clip-rule="evenodd" d="M201.128 284.712C203.41 285.891 205.934 286.504 208.464 286.889C215.404 288.114 222.534 288.838 229.388 290.432C229.388 290.432 229.341 290.414 229.317 290.405C229.317 290.405 229.365 290.423 229.388 290.432C238.545 292.726 248.064 295.845 255.242 302.29C255.469 302.548 255.847 302.548 256.103 302.301C256.837 301.433 255.325 300.717 254.881 300.176C247.305 294.354 238.074 291.114 228.851 288.996C221.359 287.304 213.675 286.685 206.159 285.127C204.594 284.764 203.086 284.25 201.664 283.51C200.974 283.192 200.409 284.325 201.137 284.686L201.128 284.712Z" fill="#D399A9" fill-opacity="0.4"/>
<path fill-rule="evenodd" clip-rule="evenodd" d="M188.916 263.52C196.936 266.817 205.889 266.368 214.361 267.686C228.119 269.746 243.362 271.595 253.532 282.126C253.872 282.512 254.491 282.947 254.88 282.349C255.083 282.025 254.947 281.601 254.659 281.435C248.299 274.755 239.665 271.226 230.848 269.318C222.249 267.264 213.441 266.191 204.618 265.371C201.261 264.959 197.876 264.765 194.586 264.034C192.832 263.599 191.116 263.064 189.434 262.369C188.767 262.059 188.156 263.175 188.907 263.545L188.916 263.52Z" fill="#D399A9" fill-opacity="0.4"/>
<path fill-rule="evenodd" clip-rule="evenodd" d="M179.907 248.356C179.996 248.619 180.237 248.768 180.478 248.773C180.478 248.773 180.478 248.773 180.455 248.764L180.408 248.746C185.532 249.484 190.787 249.24 195.955 249.363C210.902 249.782 226.3 249.797 240.279 255.409C240.969 255.728 241.534 254.594 240.796 254.258C226.165 248.37 209.996 248.464 194.33 248.089C190.486 248.037 186.57 248.101 182.75 247.771C181.917 247.828 179.696 246.843 179.93 248.365L179.907 248.356Z" fill="#D399A9" fill-opacity="0.4"/>
<path fill-rule="evenodd" clip-rule="evenodd" d="M172.785 235.77C172.974 235.985 173.286 236.018 173.528 235.88C174.781 235.781 176.062 235.751 177.316 235.653C183.885 235.075 190.422 233.94 196.977 233.329C204.616 232.497 212.2 233.163 219.536 235.054C220.264 235.273 220.687 234.086 219.921 233.825C214.958 232.517 209.847 231.813 204.702 231.698C196.809 231.632 188.957 233.099 181.106 233.993C179.153 234.228 177.218 234.412 175.256 234.528C174.428 234.645 172.073 234.297 172.776 235.796L172.785 235.77Z" fill="#D399A9" fill-opacity="0.4"/>
<path fill-rule="evenodd" clip-rule="evenodd" d="M165.781 220.019C165.368 221.325 168.991 221.178 169.78 221.305C177.7 221.726 185.437 218.639 193.314 219.245C194.094 219.254 194.191 218.001 193.387 217.983C187.061 217.42 180.844 219.421 174.554 219.904C171.872 220.063 169.124 220.254 166.539 219.59C166.222 219.499 165.881 219.685 165.781 220.019Z" fill="#D399A9" fill-opacity="0.4"/>
<path fill-rule="evenodd" clip-rule="evenodd" d="M155.435 217.16C155.359 217.361 155.273 217.586 155.221 217.796C155.164 217.946 155.154 218.114 155.121 218.274C155.149 218.199 155.168 218.148 155.187 218.098C154.808 218.814 155.795 219.418 156.222 218.72C156.807 216.391 158.177 214.416 159.405 212.388C159.789 211.588 162.243 208.677 161.09 208.154C160.447 207.853 160.181 208.698 159.963 209.132C158.464 211.802 156.56 214.262 155.411 217.151L155.435 217.16Z" fill="#D399A9" fill-opacity="0.4"/>
<path fill-rule="evenodd" clip-rule="evenodd" d="M158.226 203.801C160.285 205.355 163.127 205.2 165.6 205.592C167.009 205.725 168.413 205.798 169.822 205.787C170.153 205.77 170.433 205.531 170.462 205.17C170.481 204.833 170.226 204.507 169.895 204.525C166.453 204.482 163.01 204.296 159.768 203.296C159.243 203.184 158.828 202.425 158.284 202.935C158.037 203.157 158.013 203.577 158.24 203.835L158.226 203.801Z" fill="#D399A9" fill-opacity="0.4"/>
<path fill-rule="evenodd" clip-rule="evenodd" d="M312.35 218.602C314.724 221.679 317.548 224.211 320.102 227.099C323.331 230.844 325.987 235.032 327.768 239.747C328.021 240.789 329.469 240.249 328.913 239.293C327.462 235.562 325.604 232.049 323.192 228.929C320.724 225.529 317.593 222.738 314.826 219.626C314.298 219.024 313.793 218.432 313.307 217.789C313.113 217.515 312.721 217.481 312.441 217.719C312.171 217.932 312.123 218.344 312.317 218.618L312.35 218.602Z" fill="#D399A9" fill-opacity="0.4"/>
<path fill-rule="evenodd" clip-rule="evenodd" d="M328.284 219.911C329.802 223.467 332.626 226.141 334.687 229.33C335.173 230.116 335.768 230.972 335.847 231.976C335.855 232.81 337.051 232.719 337.067 231.894C337.022 230.587 336.257 229.466 335.601 228.415C334.096 226.183 332.241 224.018 330.75 221.82C330.203 220.982 329.778 220.248 329.434 219.372C329.307 219.066 328.929 218.923 328.631 219.068C328.333 219.213 328.19 219.589 328.308 219.92L328.284 219.911Z" fill="#D399A9" fill-opacity="0.4"/>
<path fill-rule="evenodd" clip-rule="evenodd" d="M311.199 216.505C311.288 217.054 311.731 217.881 312.366 217.491C312.792 217.223 312.669 216.689 312.448 216.347C312.454 215.404 311.139 215.593 311.223 216.514L311.199 216.505Z" fill="#D399A9" fill-opacity="0.4"/>
<path fill-rule="evenodd" clip-rule="evenodd" d="M293.709 212.027C299.021 220.975 305.534 229.175 309.724 238.873C311.298 242.278 313.109 245.63 314.428 249.138C314.55 249.672 314.823 250.234 314.695 250.787C314.405 251.767 315.762 251.965 315.9 250.957C316.024 250.345 315.836 249.701 315.686 249.099C315.055 247.198 314.168 245.4 313.315 243.587C311.528 239.958 309.931 236.257 308.068 232.686C305.173 227.347 301.686 222.214 298.388 217.153C297.114 215.238 295.831 213.347 294.708 211.317C294.321 210.626 293.252 211.309 293.662 212.009L293.709 212.027Z" fill="#D399A9" fill-opacity="0.4"/>
<path fill-rule="evenodd" clip-rule="evenodd" d="M268.189 205.281C276.085 225.096 292.132 239.086 303.082 256.762C303.322 257.197 303.543 257.825 304.154 257.712C304.65 257.614 304.831 256.851 304.396 256.572C297.434 244.849 287.991 235.109 280.167 224.092C277.171 219.804 274.373 215.276 271.954 210.605C271.011 208.672 270.121 206.672 269.254 204.681C268.924 203.983 267.821 204.54 268.179 205.306L268.189 205.281Z" fill="#D399A9" fill-opacity="0.4"/>
<path fill-rule="evenodd" clip-rule="evenodd" d="M248.685 199.698C252.35 215.56 261.405 229.107 271.577 240.986C277.044 247.385 283.306 252.967 288.678 259.473C288.885 259.781 289.206 260.075 289.315 260.431C289.418 261.015 290.155 261.065 290.44 260.6C290.938 259.642 288.973 257.98 288.468 257.245C283.667 251.729 278.336 246.757 273.492 241.282C267.992 235.042 263.023 228.259 258.655 221.101C256.07 216.654 253.855 211.946 252.107 207.071C251.241 204.507 250.564 201.872 249.83 199.244C249.6 198.497 248.417 198.909 248.685 199.698Z" fill="#D399A9" fill-opacity="0.4"/>
<path fill-rule="evenodd" clip-rule="evenodd" d="M237.535 196.248C241.121 207.609 243.562 219.425 247.75 230.555C251.311 239.699 255.757 248.577 261.06 256.691C261.872 257.83 263.174 256.604 261.927 255.759C254.312 243.903 248.402 230.83 244.677 216.981C243.229 211.818 241.78 206.655 240.397 201.459C239.856 199.535 239.396 197.612 238.689 195.768C238.562 195.462 238.25 195.287 237.905 195.414C237.616 195.534 237.417 195.917 237.535 196.248Z" fill="#D399A9" fill-opacity="0.4"/>
<path fill-rule="evenodd" clip-rule="evenodd" d="M220.431 193.035C224 200.234 224.744 208.54 226.406 216.421C228.647 226.412 231.833 236.475 237.576 244.784C237.878 245.271 238.643 245.819 239.032 245.078C239.188 244.736 239.033 244.362 238.712 244.212C232.27 235.036 229.006 223.682 226.857 212.522C225.857 207.242 225.014 201.908 223.31 196.848C222.749 195.26 222.193 193.875 221.472 192.426C221.312 192.136 220.957 192.002 220.65 192.172C220.342 192.342 220.223 192.727 220.374 193.042L220.431 193.035Z" fill="#D399A9" fill-opacity="0.4"/>
<path fill-rule="evenodd" clip-rule="evenodd" d="M204.957 190.44C208.684 196.008 209.899 202.716 211.275 209.284C212.759 216.352 214.266 223.429 216.776 230.141C216.974 230.617 217.063 231.31 217.683 231.172C218.445 230.945 218.105 230.128 217.893 229.618C213.885 219.157 212.814 207.718 209.496 197.003C208.724 194.618 207.574 192.377 206.296 190.259C206.055 189.824 205.668 189.133 205.081 189.541C204.811 189.754 204.74 190.157 204.933 190.431L204.957 190.44Z" fill="#D399A9" fill-opacity="0.4"/>
<path fill-rule="evenodd" clip-rule="evenodd" d="M190.469 186.67C193.532 190.639 195.771 195.356 197.187 200.249C198.015 203.343 198.412 206.502 198.97 209.666C199.134 210.445 200.317 210.176 200.162 209.372C199.431 205.026 198.898 200.582 197.249 196.518C195.874 192.873 194.054 189.404 191.793 186.312C191.496 185.884 191.048 185.284 190.513 185.769C190.257 186.016 190.266 186.421 190.469 186.67Z" fill="#D399A9" fill-opacity="0.4"/>
<path fill-rule="evenodd" clip-rule="evenodd" d="M179.368 185.158C181.907 188.441 183.504 192.571 184.59 196.623C184.745 197.426 185.937 197.133 185.783 196.329C184.739 192.237 183.137 188.191 180.716 184.809C180.419 184.381 179.947 183.772 179.436 184.266C179.18 184.513 179.189 184.918 179.392 185.167L179.368 185.158Z" fill="#D399A9" fill-opacity="0.4"/>
<path fill-rule="evenodd" clip-rule="evenodd" d="M327.901 220.138C328.632 221.848 336.284 214.917 337.515 214.093C338.585 213.266 339.716 212.491 340.876 211.784C341.264 211.616 341.737 211.365 341.582 210.848C341.172 209.861 340.092 210.857 339.51 211.181C335.969 213.393 333.028 216.52 329.445 218.631C328.905 219.057 327.6 219.221 327.901 220.138Z" fill="#D399A9" fill-opacity="0.4"/>
<path fill-rule="evenodd" clip-rule="evenodd" d="M310.939 216.835C311.159 218.466 317.691 214.063 318.652 213.596C324.667 210.2 329.933 205.574 335.594 201.615C336.527 201.08 335.644 199.914 334.839 200.612C328.936 204.853 323.339 209.64 316.978 213.162C315.388 214.079 313.788 215.02 312.146 215.716C311.649 215.958 310.751 216.048 310.915 216.826L310.939 216.835Z" fill="#D399A9" fill-opacity="0.4"/>
<path fill-rule="evenodd" clip-rule="evenodd" d="M294.537 211.911C294.631 212.233 294.98 212.452 295.279 212.307C296.466 211.811 297.649 211.256 298.781 210.624C304.905 207.012 310.058 201.828 315.923 197.831C320.439 194.612 325.483 192.425 330.527 190.381C331.152 190.159 332.113 189.549 331.385 188.901C331.083 188.7 330.615 188.723 330.425 189.081C324.908 191.376 319.419 193.739 314.543 197.337C310.756 200.057 307.167 203.111 303.493 205.961C300.889 207.984 298.068 209.867 295.068 211.08C294.708 211.173 294.438 211.53 294.56 211.92L294.537 211.911Z" fill="#D399A9" fill-opacity="0.4"/>
<path fill-rule="evenodd" clip-rule="evenodd" d="M269.29 205.155C269.375 205.502 269.729 205.636 270.032 205.55C272.502 204.881 274.957 204.034 277.286 202.882C283.296 200 289.103 196.726 294.731 193.069C305.301 186.068 316.494 180.134 327.846 174.777C327.846 174.777 327.804 174.818 327.78 174.809C327.78 174.809 327.78 174.809 327.747 174.826C328.546 174.498 328.009 173.205 327.224 173.71C322.387 175.919 317.636 178.332 312.941 180.881C302.724 185.952 293.488 192.856 283.464 198.344C280.6 199.839 277.751 201.367 274.78 202.649C273.114 203.336 271.401 203.862 269.684 204.329C269.358 204.406 269.173 204.823 269.276 205.121L269.29 205.155Z" fill="#D399A9" fill-opacity="0.4"/>
<path fill-rule="evenodd" clip-rule="evenodd" d="M249.754 199.445C249.881 199.751 250.259 199.894 250.558 199.749C255.101 197.172 259.338 194.048 263.707 191.147C268.228 188.13 272.857 185.327 277.274 182.157C284.569 176.81 291.973 171.533 299.763 167.09C305.618 163.405 312.114 161.452 318.539 159.33C318.984 159.154 319.391 158.936 319.769 158.649C320.39 158.082 319.616 157.129 318.962 157.713C317.618 158.551 316.024 158.835 314.562 159.342C310.725 160.553 306.893 161.824 303.282 163.723C294.323 168.469 285.906 174.279 277.692 180.338C273.29 183.542 268.665 186.405 264.14 189.362C259.724 192.245 255.487 195.369 250.976 198.074C250.446 198.475 249.472 198.621 249.721 199.461L249.754 199.445Z" fill="#D399A9" fill-opacity="0.4"/>
<path fill-rule="evenodd" clip-rule="evenodd" d="M237.337 196.201C237.902 197.705 240.503 194.621 241.246 194.157C246.383 189.655 251.068 184.638 255.842 179.74C266.105 169.126 276.766 158.32 289.813 151.627C290.509 151.289 290.062 150.116 289.323 150.496C272.949 158.908 260.528 173.433 247.537 186.539C244.407 189.594 241.319 192.752 237.844 195.362C237.498 195.489 237.181 195.827 237.303 196.217L237.337 196.201Z" fill="#D399A9" fill-opacity="0.4"/>
<path fill-rule="evenodd" clip-rule="evenodd" d="M220.263 191.766C220.423 192.056 220.82 192.149 221.09 191.936C223.258 190.35 225.233 188.491 227.146 186.579C230.855 182.854 234.45 179 238.172 175.308C241.781 171.632 245.678 168.264 249.716 165.094C254.37 161.441 259.232 158.095 264.442 155.398C265.256 154.961 266.084 154.558 266.927 154.19C267.414 153.973 268.219 153.561 267.846 152.904C267.624 152.562 267.175 152.535 266.877 152.824C263.328 154.488 259.892 156.425 256.611 158.593C250.079 162.996 243.867 167.98 238.208 173.574C234.4 177.347 230.715 181.225 226.969 185.05C225.098 186.921 223.223 188.732 221.173 190.363C220.732 190.741 219.9 191.084 220.263 191.766Z" fill="#D399A9" fill-opacity="0.4"/>
<path fill-rule="evenodd" clip-rule="evenodd" d="M200.387 188.88C200.514 189.186 200.892 189.329 201.19 189.184C203.551 188.016 205.724 186.489 207.845 184.885C214.549 179.887 219.818 172.97 226.677 168.203C227.898 167.262 229.294 166.644 230.61 165.881C231.117 165.328 230.409 164.487 229.826 164.954C222.562 168.507 217.199 175.102 211.228 180.52C208.486 182.978 205.556 185.221 202.437 187.106C201.835 187.623 200.066 187.87 200.41 188.889L200.387 188.88Z" fill="#D399A9" fill-opacity="0.4"/>
<path fill-rule="evenodd" clip-rule="evenodd" d="M189.211 186.566C189.673 187.772 192.651 185.118 193.352 184.695C197.111 181.906 199.992 178.011 203.486 174.921C205.215 173.427 206.999 172.068 208.874 170.829C209.158 170.65 209.239 170.223 209.069 169.958C208.885 169.659 208.526 169.608 208.242 169.787C206.107 171.214 204.052 172.786 202.134 174.495C198.957 177.39 196.36 180.82 192.975 183.406C192.09 184.103 191.21 184.715 190.258 185.3C189.799 185.585 188.9 185.817 189.188 186.557L189.211 186.566Z" fill="#D399A9" fill-opacity="0.4"/>
<path fill-rule="evenodd" clip-rule="evenodd" d="M175.989 183.591C176.681 185.83 188.38 176.277 190.037 175.328C190.553 174.893 191.835 174.576 191.411 173.699C191.227 173.4 190.867 173.35 190.583 173.529C188.42 174.888 186.399 176.443 184.33 177.981C181.925 179.764 179.345 181.509 176.676 182.705C176.284 182.814 175.839 183.132 175.98 183.616L175.989 183.591Z" fill="#D399A9" fill-opacity="0.4"/>
<path fill-rule="evenodd" clip-rule="evenodd" d="M278.298 82.8079C281.351 84.1651 284.694 83.827 287.981 83.6393C290.35 83.7344 292.643 84.1731 294.884 84.8214C295.257 84.9055 295.663 85.1168 296.047 85.0327C296.662 84.8358 296.583 83.8315 295.949 83.7921C293.51 83.0973 291 82.5188 288.456 82.3862C286.314 82.2625 284.076 82.8191 281.963 82.477C280.847 82.2835 279.77 81.9899 278.73 81.596C278.423 81.4796 278.058 81.6568 277.935 81.9826C277.811 82.3084 277.967 82.6826 278.274 82.7989L278.298 82.8079Z" fill="#D399A9" fill-opacity="0.4"/>
<path fill-rule="evenodd" clip-rule="evenodd" d="M269.259 93.398C273.797 94.9738 278.857 94.7414 283.556 95.4614C287.282 96.0418 291.011 96.9676 294.513 98.3517C294.919 99.1358 296.258 98.3823 295.659 97.6106C294.573 96.7691 293.112 96.5596 291.859 96.0851C288.135 94.9319 284.268 94.1546 280.367 93.8231C276.972 93.5114 273.629 93.4198 270.386 92.4206C269.928 92.2756 269.2 91.9139 268.944 92.5906C268.82 92.9164 268.976 93.2906 269.283 93.407L269.259 93.398Z" fill="#D399A9" fill-opacity="0.4"/>
<path fill-rule="evenodd" clip-rule="evenodd" d="M253.965 106.52C253.842 106.846 253.997 107.22 254.304 107.336C257.637 108.455 261.102 109.224 264.562 109.79C270.453 110.932 276.496 111.244 282.415 112.025C285.767 112.521 288.815 113.963 291.878 115.295C292.383 115.601 293.249 115.384 293.061 114.597C292.995 114.342 292.764 114.169 292.522 114.163C289.11 112.756 285.632 111.094 281.93 110.666C274.866 109.91 267.746 109.305 260.815 107.768C259.393 107.458 257.979 107.123 256.594 106.713C255.833 106.654 254.425 105.519 253.965 106.52Z" fill="#D399A9" fill-opacity="0.4"/>
<path fill-rule="evenodd" clip-rule="evenodd" d="M239.265 118.288C246.777 122.711 255.437 124.673 263.952 126.237C269.913 127.12 276.084 127.595 281.589 130.111C281.839 130.52 282.506 130.401 282.653 129.941C282.882 129.196 282.021 128.899 281.544 128.66C276.062 126.44 270.062 125.801 264.232 124.996C260.393 124.43 256.626 123.462 252.896 122.392C249.791 121.674 246.808 120.63 243.916 119.277C242.503 118.655 241.185 117.927 239.853 117.164C239.182 116.795 238.57 117.91 239.265 118.288Z" fill="#D399A9" fill-opacity="0.4"/>
<path fill-rule="evenodd" clip-rule="evenodd" d="M220.369 129.931C227.248 134.6 235.459 136.679 243.414 138.719C245.428 139.253 247.442 139.786 249.436 140.37C251.894 141.158 254.295 142.096 256.762 142.859C257.604 143.063 258.44 143.495 259.33 143.287C260.087 143.001 259.753 141.814 258.972 142.091C254.665 141.119 250.658 139.142 246.352 138.17C240.391 136.57 234.359 135.231 228.655 132.812C226.013 131.725 223.433 130.547 221.099 128.86C220.48 128.425 219.746 129.437 220.379 129.906L220.369 129.931Z" fill="#D399A9" fill-opacity="0.4"/>
<path fill-rule="evenodd" clip-rule="evenodd" d="M203.771 139.577C208.994 144.05 215.469 146.646 222.083 148.091C226.654 149.078 231.073 150.609 235.573 151.855C236.334 151.914 236.511 150.663 235.726 150.595C235.622 150.584 235.424 150.538 235.376 150.52C232.389 149.56 229.407 148.659 226.386 147.859C221.891 146.671 217.196 145.867 212.991 143.844C210.718 142.782 208.374 141.694 206.414 140.091C205.729 139.688 204.355 137.821 203.635 138.723C203.45 138.997 203.483 139.411 203.761 139.602L203.771 139.577Z" fill="#D399A9" fill-opacity="0.4"/>
<path fill-rule="evenodd" clip-rule="evenodd" d="M188.955 149.011C189.054 149.106 189.177 149.21 189.286 149.279C189.286 149.279 189.262 149.271 189.238 149.262C191.751 151.474 194.415 153.43 197.553 154.561C201.164 156.015 204.993 156.893 208.841 157.577C210.416 157.772 211.985 158.338 213.569 158.222C214.317 157.96 214.006 156.782 213.245 157.01C213.245 157.01 213.268 157.019 213.301 157.002C213.301 157.002 213.349 157.02 213.358 156.995C207.718 156.263 202.012 155.133 196.799 152.843C194.337 151.852 192.268 150.18 190.251 148.442C190.105 148.329 189.944 148.182 189.798 148.069C189.217 147.534 188.374 148.476 188.955 149.011Z" fill="#D399A9" fill-opacity="0.4"/>
<path fill-rule="evenodd" clip-rule="evenodd" d="M176.804 157.189C179.675 159.596 183.154 160.971 186.623 162.228C188.495 162.851 190.319 163.743 192.262 164.106C193.056 164.149 193.2 162.914 192.415 162.846C189.007 161.927 185.689 160.556 182.428 159.177C180.67 158.396 179.04 157.349 177.524 156.144C176.891 155.675 176.171 156.72 176.804 157.189Z" fill="#D399A9" fill-opacity="0.4"/>
<path fill-rule="evenodd" clip-rule="evenodd" d="M278.394 68.8586C277.59 72.1938 277.859 75.6203 277.641 78.9769C277.578 80.214 277.444 81.4241 277.437 82.654C277.441 82.9995 277.715 83.2753 278.046 83.2574C278.377 83.2395 278.628 82.9334 278.648 82.5969C278.673 81.4601 278.788 80.3 278.847 79.1471C279.055 76.1019 278.828 72.9207 279.395 69.9257C279.877 67.2995 280.821 64.7342 282.225 62.4571C282.419 62.1582 282.377 61.7697 282.098 61.5781C280.823 60.5218 278.552 67.8006 278.37 68.8497L278.394 68.8586Z" fill="#D399A9" fill-opacity="0.4"/>
<path fill-rule="evenodd" clip-rule="evenodd" d="M269.373 61.572C268.006 64.7513 267.372 68.2082 267.296 71.6185C267.24 74.4059 267.638 77.136 267.638 79.9162C267.65 84.5923 267.936 89.4009 267.409 94.0733C267.242 94.8699 268.41 95.1403 268.596 94.2936C269.199 88.991 268.872 83.6507 268.823 78.3588C268.639 74.85 268.209 71.2767 268.862 67.7697C269.145 65.5266 269.975 63.5484 270.669 61.4324C270.623 60.5552 269.35 60.7037 269.373 61.572Z" fill="#D399A9" fill-opacity="0.4"/>
<path fill-rule="evenodd" clip-rule="evenodd" d="M252.308 63.1033C247.028 77.8973 252.48 93.4619 250.42 108.53C250.253 109.327 251.421 109.597 251.606 108.75C251.654 108.482 251.702 108.213 251.711 108.045C253.674 92.4523 247.693 75.9997 254.468 60.9695C255.717 60.5257 254.428 58.8624 253.637 60.0242C253.011 60.9623 252.698 62.0757 252.299 63.1284L252.308 63.1033Z" fill="#D399A9" fill-opacity="0.4"/>
<path fill-rule="evenodd" clip-rule="evenodd" d="M237.121 68.6693C235.163 74.6915 234.388 81.0181 234.284 87.2839C234.382 94.5146 235.591 101.736 235.221 108.99C235.097 112.526 235.073 116.157 234.023 119.57C233.899 119.896 234.055 120.27 234.371 120.362C236.205 120.942 236.353 110.423 236.403 109.008C236.706 102.503 235.902 96.065 235.51 89.6112C235.355 85.7407 235.658 81.8721 236.194 78.0339C236.753 74.2046 237.614 70.4327 239.019 66.8667C239.385 65.9734 239.864 65.0658 240.234 64.2316C240.291 64.0812 240.348 63.9309 240.277 63.7608C240.146 63.2524 239.384 63.1932 239.171 63.6855C238.388 65.3951 237.648 66.9203 237.111 68.6944L237.121 68.6693Z" fill="#D399A9" fill-opacity="0.4"/>
<path fill-rule="evenodd" clip-rule="evenodd" d="M222.255 76.5941C218.778 87.0559 218.525 98.1374 218.641 108.957C218.479 116.376 219.276 124.044 217.392 131.298C217.131 132.058 218.265 132.488 218.536 131.702C220.005 126.47 219.843 121.049 219.87 115.7C219.877 110.687 219.819 105.707 219.883 100.687L219.873 100.712C219.992 93.9072 220.603 87.0883 222.372 80.4216C222.815 78.755 223.233 77.0794 223.959 75.5201C224.13 75.2122 223.984 74.813 223.71 74.6805C222.741 74.3134 222.568 75.9103 222.241 76.5601L222.255 76.5941Z" fill="#D399A9" fill-opacity="0.4"/>
<path fill-rule="evenodd" clip-rule="evenodd" d="M207.013 96.0683C203.964 105.259 204.422 115.034 204.672 124.5C204.774 129.44 204.97 134.558 203.43 139.334C203.169 140.095 204.28 140.516 204.574 139.739C205.567 136.762 205.869 133.609 205.926 130.535C206.039 124.531 205.57 118.564 205.764 112.562C205.839 109.581 205.99 106.543 206.458 103.596C206.854 101.195 207.364 98.7805 208.157 96.473C208.442 95.7211 207.308 95.2914 207.013 96.0683Z" fill="#D399A9" fill-opacity="0.4"/>
<path fill-rule="evenodd" clip-rule="evenodd" d="M193.624 119.712C191.372 126.511 192.473 133.806 191.389 140.733C191.117 142.521 190.797 144.291 190.104 145.978C189.876 146.436 189.535 147.052 190.111 147.385C191.175 147.931 191.752 144.768 192.003 144.032C193.588 137.639 192.855 131.085 193.735 124.626C193.978 123.056 194.269 121.504 194.792 119.982C194.925 119.202 196.161 117.865 195.183 117.379C194.309 117.048 193.965 119.096 193.624 119.712Z" fill="#D399A9" fill-opacity="0.4"/>
<path fill-rule="evenodd" clip-rule="evenodd" d="M182.354 135.906C181.007 141.958 181.901 148.516 178.988 154.205C178.623 154.955 179.686 155.501 180.052 154.751C182.262 150.487 182.439 145.596 182.806 140.92C182.935 139.651 183.122 138.374 183.365 137.091C183.455 136.495 183.864 135.417 183.017 135.297C182.696 135.29 182.383 135.544 182.354 135.906Z" fill="#D399A9" fill-opacity="0.4"/>
<path fill-rule="evenodd" clip-rule="evenodd" d="M161.468 132.549C161.409 133.845 165.061 132.764 165.88 132.673C168.425 132.09 170.918 131.143 173.261 129.881C173.829 129.523 175.154 129.022 174.649 128.143C174.082 127.498 173.447 128.461 172.88 128.676C169.855 130.31 166.676 131.427 163.393 131.817C162.764 131.98 161.597 131.566 161.501 132.533L161.468 132.549Z" fill="#D399A9" fill-opacity="0.4"/>
<path fill-rule="evenodd" clip-rule="evenodd" d="M166.45 121.253C166.544 121.575 166.87 121.785 167.182 121.674C168.422 121.255 169.676 120.87 170.943 120.519C174.085 119.646 177.287 118.824 180.269 117.375C180.841 117.076 181.565 116.805 181.883 116.181C182.182 115.463 181.213 114.952 180.82 115.634C177.526 117.625 173.732 118.366 170.136 119.44C169.048 119.744 167.974 120.082 166.891 120.446C166.579 120.557 166.365 120.906 166.459 121.228L166.45 121.253Z" fill="#D399A9" fill-opacity="0.4"/>
<path fill-rule="evenodd" clip-rule="evenodd" d="M170.33 109.941C170.532 110.476 171.157 110.254 171.512 110.102C177.327 107.806 183.434 106.451 189.16 103.891C189.903 103.428 192.798 102.49 191.94 101.333C191.566 100.963 191.122 101.281 190.814 101.595C189.531 102.484 188.059 103.016 186.649 103.599C181.823 105.497 176.832 106.758 171.978 108.588C171.372 108.903 170.033 108.94 170.33 109.941Z" fill="#D399A9" fill-opacity="0.4"/>
<path fill-rule="evenodd" clip-rule="evenodd" d="M175.155 96.35C175.537 96.982 176.223 96.3823 176.687 96.1568C182.366 93.2929 188.643 92.2031 194.553 89.9425C195.674 89.4789 204.29 86.6385 203.469 85.3817C203.341 85.0756 202.973 84.9073 202.665 85.0773C199.716 86.7975 196.584 87.9323 193.414 89.0241C191.318 90.064 173.815 94.3234 175.155 96.35Z" fill="#D399A9" fill-opacity="0.4"/>
<path fill-rule="evenodd" clip-rule="evenodd" d="M179.912 83.6506C180.04 83.9567 180.408 84.1251 180.716 83.955C181.847 83.3231 183.006 82.7593 184.18 82.2295C187.814 80.6257 191.467 78.9719 195.012 77.1049C200.445 74.1765 206.484 71.2195 210.331 66.0568C210.625 65.2799 209.548 64.843 209.206 65.602C206.274 69.2771 202.071 71.8117 198.142 74.0492C194.569 75.9913 190.953 77.8314 187.267 79.5014C184.92 80.5611 182.545 81.5527 180.259 82.8074C179.951 82.9775 179.795 83.3194 179.936 83.6596L179.912 83.6506Z" fill="#D399A9" fill-opacity="0.4"/>
<path fill-rule="evenodd" clip-rule="evenodd" d="M182.286 67.613C182.607 68.0498 183.123 67.7581 183.445 67.4788C184.79 66.4979 186.238 65.5277 187.668 64.7508C192.343 62.252 197.363 60.4855 201.766 57.4245C203.011 56.4919 204.469 55.6399 205.336 54.2776C205.621 53.5257 204.586 53.0477 204.221 53.7977C203.529 54.6248 202.639 55.262 201.796 55.9172C198.279 58.425 194.385 60.2167 190.509 61.9583C188.186 63.0269 185.919 64.2315 183.812 65.7262C183.282 66.2704 181.777 66.6749 182.301 67.647L182.286 67.613Z" fill="#D399A9" fill-opacity="0.4"/>
<path fill-rule="evenodd" clip-rule="evenodd" d="M183.477 55.4823C184.058 56.0177 184.542 55.1691 184.982 54.7914C186.431 53.3916 188.14 52.3767 189.811 51.462C191.235 50.4828 198.773 47.492 198.317 45.9147C198.19 45.3222 197.32 45.3364 197.149 45.9308C192.746 49.1349 187.277 50.4449 183.474 54.5639C183.242 54.8199 183.227 55.2156 183.463 55.4483L183.477 55.4823Z" fill="#D399A9" fill-opacity="0.4"/>
<path fill-rule="evenodd" clip-rule="evenodd" d="M176.744 39.6606C177.325 42.9761 177.878 46.3669 179.339 49.3566C180.207 51.061 181.358 52.5864 182.378 54.1761C182.58 54.5682 182.958 54.9979 183.427 54.6882C183.711 54.5092 183.792 54.0814 183.622 53.8164C181.456 50.7603 179.46 47.5396 178.724 43.7067C178.465 42.6056 178.273 41.4724 178.104 40.3481C178.001 39.7645 177.979 38.6098 177.128 38.8604C176.815 38.9713 176.616 39.3544 176.72 39.6516L176.744 39.6606Z" fill="#D399A9" fill-opacity="0.4"/>
<path fill-rule="evenodd" clip-rule="evenodd" d="M164.807 46.7748C165.651 51.2504 168.564 54.9045 171.358 58.2273C174.676 62.2359 178.089 66.2803 180.66 70.8366C180.98 71.5598 182.107 71.0121 181.762 70.2799C179.277 65.7845 175.949 61.801 172.72 57.9124C170.346 55.1212 167.939 52.203 166.606 48.66C166.389 48.0907 166.205 47.5053 166.055 46.9038C166.051 46.5583 165.853 46.2253 165.484 46.2002C165.139 46.184 164.873 46.4561 164.821 46.8088L164.807 46.7748Z" fill="#D399A9" fill-opacity="0.4"/>
<path fill-rule="evenodd" clip-rule="evenodd" d="M156.894 53.4641C157.12 60.5713 161.136 66.4489 165.526 71.4082C169.793 76.6932 174.614 81.5863 177.887 87.6411C178.165 88.1191 178.334 89.1002 179.086 88.7547C179.384 88.6097 179.536 88.2087 179.409 87.9026C178.947 86.8392 178.353 85.8401 177.749 84.8662C172.848 76.7615 165.277 70.7118 160.636 62.4191C159.433 60.1007 158.52 57.5191 158.287 54.8517C158.128 54.132 158.48 52.6318 157.42 52.7176C157.104 52.7695 156.857 53.1347 156.918 53.4731L156.894 53.4641Z" fill="#D399A9" fill-opacity="0.4"/>
<path fill-rule="evenodd" clip-rule="evenodd" d="M148.826 73.1917C150.178 76.8278 153.106 79.3701 155.835 81.8659C161.738 87.6846 169.497 91.3122 174.661 97.94C175.141 99.0965 176.495 98.0905 175.655 97.1703C173.3 93.8993 170.083 91.4769 166.951 89.1154C162.998 86.2131 159.073 83.2357 155.526 79.8286C154.091 78.4823 152.646 77.161 151.546 75.5694C150.9 74.6366 150.353 73.6555 149.948 72.5849C149.627 71.8617 148.501 72.4094 148.835 73.1667L148.826 73.1917Z" fill="#D399A9" fill-opacity="0.4"/>
<path fill-rule="evenodd" clip-rule="evenodd" d="M146.506 78.388C148.348 92.7851 164.512 98.6224 169.434 111.378C169.755 112.101 170.848 111.57 170.537 110.821C166.66 101.013 157.153 95.7199 151.415 87.3269C149.75 85.0908 148.51 82.4429 147.857 79.6734C147.616 79.0952 147.963 78.1088 147.226 77.9154C146.899 77.8491 146.563 78.0943 146.497 78.413L146.506 78.388Z" fill="#D399A9" fill-opacity="0.4"/>
<path fill-rule="evenodd" clip-rule="evenodd" d="M148.396 107.707C153.239 113.469 160.636 115.984 165.427 121.812C165.923 122.43 166.856 121.608 166.369 120.965C162.489 116.228 156.913 113.542 152.261 109.773C151.217 108.891 150.235 107.917 149.338 106.861C148.843 106.243 147.91 107.065 148.396 107.707Z" fill="#D399A9" fill-opacity="0.4"/>
<path fill-rule="evenodd" clip-rule="evenodd" d="M151.253 122.776C154.715 126.122 159.024 128.729 161.429 133.079C161.674 133.86 162.809 133.43 162.588 132.659C160.24 128.015 155.681 125.284 152.073 121.825C151.492 121.29 150.682 122.215 151.23 122.767L151.253 122.776Z" fill="#D399A9" fill-opacity="0.4"/>
<path fill-rule="evenodd" clip-rule="evenodd" d="M150.755 133.936C153.172 136.113 155.566 138.568 157.113 141.475C157.24 141.781 157.628 141.9 157.917 141.78C158.598 141.407 158.089 140.612 157.81 140.134C156.098 137.451 153.95 135.061 151.598 132.995C151.352 132.787 150.983 132.762 150.742 133.043C150.51 133.299 150.509 133.728 150.755 133.936Z" fill="#D399A9" fill-opacity="0.4"/>
<path fill-rule="evenodd" clip-rule="evenodd" d="M157.596 144.266C157.732 144.976 158.48 144.715 158.976 144.617C160.532 144.432 162.083 144.476 163.535 144.853C164.13 145.136 164.727 144.273 164.231 143.799C163.499 143.235 157.334 142.676 157.62 144.275L157.596 144.266Z" fill="#D399A9" fill-opacity="0.4"/>
<path fill-rule="evenodd" clip-rule="evenodd" d="M76.5716 295.645C76.7604 295.859 77.0961 295.901 77.347 295.738C81.1928 294.931 85.0719 293.964 88.6024 292.063C94.1634 289.011 99.3476 284.957 105.582 283.765C106.334 283.563 106.123 282.336 105.347 282.53C102.963 283.117 100.593 283.881 98.3403 284.976C93.9487 287.153 90.0047 290.359 85.4481 292.186C83.1012 293.103 80.7121 293.774 78.2524 294.275C77.5428 294.436 75.8686 294.576 76.5526 295.695L76.5716 295.645Z" fill="#D399A9" fill-opacity="0.4"/>
<path fill-rule="evenodd" clip-rule="evenodd" d="M70.4821 282.475C70.7557 282.894 71.2336 282.703 71.5698 282.457C77.55 280.51 83.3135 277.993 88.6717 274.549C95.2651 270.484 102.316 266.994 109.499 264.442C110.137 264.11 111.466 264.241 111.397 263.212C111.336 262.874 110.986 262.655 110.683 262.741C108.252 263.453 105.872 264.386 103.534 265.42C97.4582 268.048 91.6371 271.145 86.0233 274.692C82.1374 277.032 78.0536 278.895 73.8238 280.359C73.0193 280.771 69.7605 281.17 70.449 282.491L70.4821 282.475Z" fill="#D399A9" fill-opacity="0.4"/>
<path fill-rule="evenodd" clip-rule="evenodd" d="M79.2617 261.441C79.7286 262.277 80.7753 261.155 81.4706 261.103C86.4097 259.621 91.1887 257.706 95.7701 255.171C101.606 251.965 107.818 249.619 114.256 248.533C115.24 248.361 116.247 248.198 117.255 248.035C117.581 247.958 117.832 247.652 117.771 247.314C117.72 246.95 117.379 246.707 117.02 246.8C115.932 246.961 114.835 247.147 113.737 247.333C105.857 248.589 98.4415 252.257 91.3426 256.016C89.071 257.161 86.6769 258.06 84.2876 258.874C83.3271 259.198 82.4424 259.465 81.482 259.789C80.7532 260.143 78.9182 260.279 79.2617 261.441Z" fill="#D399A9" fill-opacity="0.4"/>
<path fill-rule="evenodd" clip-rule="evenodd" d="M90.952 242.14C91.4376 243.069 92.8488 241.769 93.5915 241.592C96.9229 240.074 100.306 238.92 103.811 238.012C107.619 237.019 111.531 236.61 115.4 236.098C118.148 235.763 120.924 235.353 123.461 234.079C124.156 233.741 123.709 232.568 122.98 232.923C119.649 234.584 115.988 234.687 112.441 235.206C108.534 235.675 104.632 236.346 100.804 237.532C97.5447 238.504 94.3697 239.823 91.2512 241.279C90.953 241.424 90.8011 241.825 90.9283 242.131L90.952 242.14Z" fill="#D399A9" fill-opacity="0.4"/>
<path fill-rule="evenodd" clip-rule="evenodd" d="M105.386 225.654C105.48 225.976 105.815 226.161 106.127 226.05C106.998 225.749 107.873 225.508 108.739 225.291C113.692 223.986 118.79 223.51 123.678 221.952C125.494 221.293 127.302 220.516 129.015 219.56C129.323 219.39 129.456 219.039 129.338 218.708C129.211 218.402 128.842 218.234 128.535 218.404C127.304 219.084 125.998 219.678 124.711 220.222C119.899 222.154 114.753 222.468 109.786 223.739C108.514 224.031 107.232 224.347 105.983 224.791C105.599 224.875 105.249 225.23 105.386 225.654Z" fill="#D399A9" fill-opacity="0.4"/>
<path fill-rule="evenodd" clip-rule="evenodd" d="M100.779 298.654C102.657 304.324 104.554 310.23 104.086 316.387C104.142 316.809 104.625 316.963 104.965 316.777C105.316 316.566 105.326 316.111 105.345 315.774C105.589 310.708 104.367 305.803 102.851 301.102C102.545 300.126 102.192 299.132 101.91 298.166C101.816 297.843 101.438 297.7 101.116 297.836C100.794 297.972 100.652 298.348 100.77 298.679L100.779 298.654Z" fill="#D399A9" fill-opacity="0.4"/>
<path fill-rule="evenodd" clip-rule="evenodd" d="M105.582 281.271C106.881 284.974 108.857 288.388 110.498 291.904C112.025 295.434 113.424 299.088 114.071 302.944C114.478 305.363 114.612 307.792 114.793 310.24C114.825 310.796 115.06 311.602 115.727 311.339C116.049 311.203 116.191 310.827 116.074 310.496C115.458 298.712 112.808 293.725 107.89 283.665C107.461 282.729 107.066 281.776 106.712 280.783C106.595 280.452 106.24 280.317 105.919 280.453C105.597 280.589 105.454 280.965 105.572 281.296L105.582 281.271Z" fill="#D399A9" fill-opacity="0.4"/>
<path fill-rule="evenodd" clip-rule="evenodd" d="M111.426 262.134C114.592 270.04 119.594 276.95 122.902 284.767C125.334 290.188 126.981 295.97 128.221 301.828C128.409 302.616 129.568 302.338 129.399 301.501C128.281 296.176 126.837 290.929 124.759 285.929C122.248 279.79 118.88 274.129 115.777 268.339C114.598 266.173 113.362 264.014 112.557 261.645C112.303 260.89 111.139 261.395 111.426 262.134Z" fill="#D399A9" fill-opacity="0.4"/>
<path fill-rule="evenodd" clip-rule="evenodd" d="M117.37 246.445C119.587 253.361 124.743 258.582 128.229 264.717C130.125 267.843 131.818 271.15 133.331 274.503C135.31 278.979 137.209 283.596 137.603 288.617C137.612 289.165 137.994 289.94 138.619 289.575C138.903 289.396 139.021 289.011 138.861 288.721C138.359 283.2 136.342 278.109 134.075 273.18C130.753 265.616 126.01 258.947 121.405 252.273C120.183 250.291 119.25 248.189 118.492 245.982C118.237 245.226 117.083 245.706 117.361 246.47L117.37 246.445Z" fill="#D399A9" fill-opacity="0.4"/>
<path fill-rule="evenodd" clip-rule="evenodd" d="M123.88 232.116C126.485 238.721 131.4 243.936 134.947 249.98C136.532 252.501 137.942 255.127 139.244 257.827C140.427 260.482 141.95 263.094 142.4 266.044C142.223 266.866 143.434 267.095 143.596 266.239C143.496 263.508 142.005 261.023 140.978 258.599C137.439 250.465 131.94 243.51 127.284 236.186C126.425 234.743 125.519 233.282 125.011 231.628C124.747 230.897 123.602 231.352 123.88 232.116Z" fill="#D399A9" fill-opacity="0.4"/>
<path fill-rule="evenodd" clip-rule="evenodd" d="M129.108 217.961C131.056 227.297 139.223 233.344 141.446 242.526C141.634 243.314 142.803 243.011 142.624 242.198C141.065 235.331 136.145 230.343 132.962 224.408C131.887 222.253 130.703 220.027 130.286 217.634C130.098 216.846 128.929 217.149 129.108 217.961Z" fill="#D399A9" fill-opacity="0.4"/>
<path fill-rule="evenodd" clip-rule="evenodd" d="M132.969 206.699C133.844 209.811 135.476 212.636 137.151 215.277C137.887 216.472 138.59 217.684 139.132 218.893C139.4 219.396 139.498 220.493 140.312 220.2C140.61 220.055 140.776 219.688 140.658 219.357C139.297 215.746 136.8 212.851 135.264 209.345C134.83 208.35 134.411 207.389 134.124 206.363C133.936 205.575 132.758 205.903 132.946 206.69L132.969 206.699Z" fill="#D399A9" fill-opacity="0.4"/>
<path fill-rule="evenodd" clip-rule="evenodd" d="M50.0786 202.379C55.0603 204.065 60.4395 205.559 65.1171 208.191C65.4809 208.443 66.0241 208.792 66.3938 208.245C66.5787 207.971 66.5226 207.548 66.2343 207.382C65.2233 206.769 64.1601 206.223 63.0921 205.761C59.5761 204.2 55.9416 202.88 52.2311 201.761C51.5598 201.679 50.459 200.946 50.0227 201.813C49.9467 202.013 49.9511 202.216 50.0786 202.379Z" fill="#D399A9" fill-opacity="0.4"/>
<path fill-rule="evenodd" clip-rule="evenodd" d="M51.9375 189.412C51.8328 189.831 52.2436 190.245 52.6363 190.135C56.5451 191.444 60.4442 192.922 64.2629 194.397C69.4805 196.46 73.9771 199.998 78.4361 203.349C79.0786 203.793 79.7753 202.739 79.1328 202.295C75.6091 199.613 72.0618 196.922 68.2156 194.805C65.2765 193.291 62.1524 192.193 59.0614 191.079C57.3836 190.444 55.6963 189.833 54.009 189.222C53.3756 189.04 52.2369 188.408 51.9375 189.412Z" fill="#D399A9" fill-opacity="0.4"/>
<path fill-rule="evenodd" clip-rule="evenodd" d="M59.0181 175.93C58.9371 176.358 59.2769 176.745 59.6837 176.67C64.2728 178.466 68.904 180.507 73.2084 182.912C80.3335 186.929 86.2589 193.187 93.9531 196.13C94.681 196.349 95.1178 195.196 94.3616 194.909C88.3026 192.643 83.4009 188.034 78.0437 184.486C73.7309 181.39 68.9486 179.177 64.1188 177.089C62.8617 176.556 61.6141 175.997 60.3381 175.513C59.9081 175.293 59.1704 175.243 59.0276 175.905L59.0181 175.93Z" fill="#D399A9" fill-opacity="0.4"/>
<path fill-rule="evenodd" clip-rule="evenodd" d="M82.3378 174.649C82.2663 175.052 82.5543 175.362 82.9136 175.412C88.616 178.977 93.6025 183.789 99.8643 186.448C102.397 187.609 105.044 188.611 107.753 189.236C108.079 189.303 108.391 189.048 108.467 188.705C108.577 188.202 108.123 187.973 107.717 187.904C100.99 186.187 94.9849 182.708 89.5294 178.492C87.9706 177.328 86.4545 176.123 84.8672 175.035C84.1868 174.691 82.7984 173.362 82.3473 174.624L82.3378 174.649Z" fill="#D399A9" fill-opacity="0.4"/>
<path fill-rule="evenodd" clip-rule="evenodd" d="M103.667 176.625C103.709 176.871 103.907 177.061 104.139 177.091C104.668 177.406 105.145 177.787 105.632 178.144C108.81 180.81 112.534 182.679 116.599 183.503C116.926 183.569 117.238 183.315 117.314 182.971C117.443 182.275 116.658 182.207 116.19 182.087C112.933 181.34 109.918 179.882 107.301 177.802C106.56 177.406 103.826 174.422 103.686 176.575L103.667 176.625Z" fill="#D399A9" fill-opacity="0.4"/>
<path fill-rule="evenodd" clip-rule="evenodd" d="M52.7539 228.413C52.9478 228.4 53.1561 228.278 53.2557 228.087C54.0564 227.043 54.8713 226.034 55.6343 224.947C59.4911 219.902 62.3088 214.034 66.0948 208.963C66.6065 208.326 65.7281 207.506 65.1928 208.134C63.5013 210.388 61.9892 212.738 60.5527 215.175C58.7653 218.252 56.7604 221.333 54.6802 224.184C53.8746 225.312 52.984 226.379 52.1879 227.482C51.9792 227.89 52.3094 228.445 52.7398 228.379L52.7539 228.413Z" fill="#D399A9" fill-opacity="0.4"/>
<path fill-rule="evenodd" clip-rule="evenodd" d="M65.8936 232.817C66.1202 233.075 66.489 233.1 66.7447 232.853C66.9152 232.688 66.9865 232.429 66.9348 232.208C69.2248 228.232 70.6972 223.918 72.2972 219.624C73.3367 217.094 74.4706 214.6 75.5809 212.098C76.6817 209.62 77.8819 207.094 79.4551 204.939C79.8109 204.214 81.3302 203.271 80.6268 202.488C79.7955 201.829 79.0787 203.65 78.5436 204.135C76.5298 206.811 75.2153 209.924 73.863 212.994C71.8895 217.205 70.2563 221.516 68.6608 225.869C67.9394 227.631 67.1093 229.323 66.1847 230.978C65.9191 231.537 65.4357 232.242 65.8699 232.808L65.8936 232.817Z" fill="#D399A9" fill-opacity="0.4"/>
<path fill-rule="evenodd" clip-rule="evenodd" d="M79.399 232.976C79.4642 233.66 80.4997 233.708 80.6048 233.003C82.1639 230.814 83.3734 228.406 84.3938 225.927C86.791 219.813 88.328 213.403 90.8812 207.377C92.3856 203.763 93.9705 200.15 95.7963 196.686C96.0476 196.237 96.5166 195.641 95.9687 195.232C95.3545 194.856 94.9798 195.632 94.7426 196.115C93.5002 198.396 92.4515 200.807 91.3651 203.175C87.9968 210.354 86.0842 218.112 83.2831 225.506C82.4146 227.584 81.4043 229.609 80.1767 231.494C79.9396 231.977 79.3526 232.385 79.399 232.976Z" fill="#D399A9" fill-opacity="0.4"/>
<path fill-rule="evenodd" clip-rule="evenodd" d="M105.356 197.843C103.03 203.983 102.325 210.623 99.8094 216.692C98.9029 218.87 97.7555 220.9 96.7309 223.034C96.5838 223.351 96.7062 223.741 96.9803 223.874C97.278 224.015 97.6565 223.872 97.8036 223.555C98.406 222.322 99.0225 221.122 99.6486 219.898C102.309 214.801 103.4 209.139 104.78 203.643C106.031 198.987 107.835 194.368 110.12 190.19C110.594 189.367 111.102 188.527 111.613 187.747C111.808 187.448 111.719 187.041 111.454 186.884C111.175 186.692 110.816 186.785 110.621 187.084C108.384 190.421 106.762 194.134 105.337 197.893L105.356 197.843Z" fill="#D399A9" fill-opacity="0.4"/>
<path fill-rule="evenodd" clip-rule="evenodd" d="M116.538 189.87C116.142 191.841 115.86 193.798 115.418 195.751C115.374 196.509 114.407 198.062 115.418 198.388C116.411 198.478 116.248 196.84 116.561 196.156C117.514 191.645 117.88 186.825 120.449 182.898C120.644 182.599 120.578 182.201 120.29 182.035C118.915 181.027 116.658 188.769 116.528 189.896L116.538 189.87Z" fill="#D399A9" fill-opacity="0.4"/>
<path fill-rule="evenodd" clip-rule="evenodd" d="M110.776 83.6819C111.07 85.9716 110.83 88.3168 110.354 90.5724C109.727 92.3697 108.973 94.1474 108.814 96.0647C108.742 96.8971 109.919 96.9993 110.024 96.1507C110.16 94.0812 111.174 92.2589 111.683 90.2735C111.903 89.1242 111.994 87.812 112.077 86.668C112.093 85.4131 112.317 84.0365 111.77 82.9121C111.322 82.3124 110.394 83.0499 110.776 83.6819Z" fill="#D399A9" fill-opacity="0.4"/>
<path fill-rule="evenodd" clip-rule="evenodd" d="M116.14 101.62C115.969 102.5 114.692 105.8 115.93 105.954C116.242 105.986 116.588 105.716 116.607 105.379C116.685 104.319 116.932 103.238 117.222 102.259C118.495 98.4709 121.058 95.3436 122.714 91.7579C123.577 89.9069 124.063 87.9126 124.548 85.9183C124.611 85.1109 125.578 83.1274 124.463 82.934C124.127 82.8928 123.829 83.181 123.785 83.5086C123.366 86.0435 122.723 88.6661 121.717 91.0363C120.042 94.6721 117.484 97.8585 116.154 101.654L116.14 101.62Z" fill="#D399A9" fill-opacity="0.4"/>
<path fill-rule="evenodd" clip-rule="evenodd" d="M121.911 113.206C121.754 113.978 120.867 115.963 121.926 116.164C122.261 116.205 122.56 115.917 122.603 115.589C122.694 114.563 123.017 113.568 123.435 112.608C125.807 107.059 130.221 102.827 133.099 97.5839C133.488 96.6995 135.806 92.9348 134.133 92.7879C133.802 92.8058 133.551 93.1119 133.526 93.3894C133.473 94.0285 133.146 94.6783 132.937 95.2297C130.005 101.685 124.328 106.47 121.935 113.215L121.911 113.206Z" fill="#D399A9" fill-opacity="0.4"/>
<path fill-rule="evenodd" clip-rule="evenodd" d="M127.824 127.914C127.662 128.769 126.692 131.755 128.083 131.652C128.433 131.584 128.613 131.251 128.585 130.896C128.781 126.671 131.165 122.874 133.284 119.35C134.682 117.3 136.297 115.533 137.856 113.63C138.202 113.217 138.586 112.703 138.913 112.339C139.168 112.092 139.207 111.706 139.004 111.457C138.163 110.68 137.546 112.309 136.978 112.81C133.084 117.239 129.573 122.156 127.847 127.922L127.824 127.914Z" fill="#D399A9" fill-opacity="0.4"/>
<path fill-rule="evenodd" clip-rule="evenodd" d="M133.342 140.952C132.867 142.491 132.808 144.074 132.749 145.656C132.729 145.993 133.05 146.286 133.358 146.26C133.689 146.242 133.94 145.936 133.959 145.599C133.81 141.072 136.105 137.011 138.281 133.193C138.973 132.08 139.689 130.975 140.499 129.906C140.841 129.291 142.095 128.476 141.306 127.776C140.976 127.508 140.526 127.767 140.346 128.1C139.929 128.63 139.512 129.16 139.086 129.715C136.65 133.148 134.634 136.97 133.3 140.993L133.319 140.943L133.342 140.952Z" fill="#D399A9" fill-opacity="0.4"/>
<path fill-rule="evenodd" clip-rule="evenodd" d="M137.823 151.449C137.746 152.222 136.938 154.782 137.979 154.89C138.291 154.922 138.636 154.652 138.656 154.315C138.726 151.705 139.642 149.215 140.927 147.036C141.221 146.546 141.524 146.03 141.88 145.592C142.14 145.404 142.202 145.026 142.042 144.736C141.881 144.446 141.508 144.362 141.214 144.566C139.542 146.483 138.456 148.995 137.814 151.474L137.823 151.449Z" fill="#D399A9" fill-opacity="0.4"/>
<path fill-rule="evenodd" clip-rule="evenodd" d="M93.3599 92.9887C94.8005 94.1077 96.5205 94.9886 98.2219 95.6332C100.855 96.4587 103.692 96.3873 106.415 96.7599C107.054 96.8584 107.673 97.0071 108.283 97.1808C108.59 97.2972 108.954 97.1199 109.078 96.7941C109.201 96.4683 109.046 96.0941 108.738 95.9778C105.141 94.8443 101.187 95.5816 97.7088 94.0632C96.4943 93.4884 95.3651 92.8313 94.2927 92.1671C93.811 91.7266 93.0202 92.4588 93.3835 92.9977L93.3599 92.9887Z" fill="#D399A9" fill-opacity="0.4"/>
<path fill-rule="evenodd" clip-rule="evenodd" d="M90.7673 103.328C97.9854 108.384 107.472 104.67 115.527 106.661C116.274 106.829 116.602 105.607 115.808 105.42C109.341 103.945 102.534 105.579 96.048 104.296C94.3934 103.956 92.8149 103.272 91.4735 102.248C90.831 101.804 90.1202 102.824 90.7531 103.294L90.7673 103.328Z" fill="#D399A9" fill-opacity="0.4"/>
<path fill-rule="evenodd" clip-rule="evenodd" d="M92.4855 117.907C92.4329 118.26 92.6973 118.561 93.0093 118.593C94.2576 118.722 95.5296 118.717 96.7971 118.652C99.4123 118.525 102.018 118.28 104.639 117.926C108.635 117.291 112.6 116.242 116.605 116.298C118.052 116.33 119.499 116.363 120.846 116.73C121.04 116.86 121.295 116.9 121.513 116.753C122.109 116.32 121.718 115.57 121.103 115.48C115.194 114.101 109.143 116.022 103.236 116.85C100.507 117.135 97.7211 117.426 94.9925 117.424C94.2593 117.576 92.6667 116.858 92.4855 117.907Z" fill="#D399A9" fill-opacity="0.4"/>
<path fill-rule="evenodd" clip-rule="evenodd" d="M104.801 132.833C104.758 133.16 105.003 133.511 105.325 133.518C106.441 133.569 107.519 133.433 108.564 133.313C113.711 132.568 118.843 131.647 124.021 131.746C125.047 131.819 126.12 131.767 127.08 132.159C127.325 132.367 127.742 132.267 127.926 131.993C128.662 130.409 124.926 130.57 124.037 130.491C118.769 130.415 113.443 131.349 108.24 132.101C107.308 132.206 106.377 132.312 105.445 132.274C105.1 132.258 104.811 132.521 104.768 132.849L104.801 132.833Z" fill="#D399A9" fill-opacity="0.4"/>
<path fill-rule="evenodd" clip-rule="evenodd" d="M117.144 145.047C117.341 146.096 119.135 145.142 119.782 145.216C124.294 144.861 128.876 144.964 133.23 146.241C133.731 146.488 134.45 146.158 134.295 145.498C134.229 145.244 134.007 145.045 133.733 145.056C132.537 144.717 131.322 144.429 130.079 144.216C128.831 143.8 116.627 143.132 117.144 145.047Z" fill="#D399A9" fill-opacity="0.4"/>
<path fill-rule="evenodd" clip-rule="evenodd" d="M130.054 154.551C130.058 154.897 130.332 155.173 130.663 155.155C131.666 155.076 132.682 155.031 133.69 155.012C135.047 155.067 136.442 155.023 137.742 155.372C137.926 155.528 138.214 155.551 138.432 155.404C139.891 153.693 135.559 153.857 134.727 153.771C133.37 153.716 132.022 153.778 130.655 153.891C130.324 153.909 130.05 154.206 130.054 154.551Z" fill="#D399A9" fill-opacity="0.4"/>
<path fill-rule="evenodd" clip-rule="evenodd" d="M73.4455 140.483C76.4432 140.857 78.7918 142.869 81.3717 144.269C82.9407 145.16 84.5378 145.977 86.1825 146.706C89.4915 148.15 92.869 149.451 96.1484 151.011C100.171 152.916 103.905 155.093 108.14 156.401C114.449 157.987 120.451 160.494 126.788 162.005C129.88 162.584 132.951 163.218 136.015 163.871C136.078 163.895 136.291 163.976 136.365 163.856C136.372 163.837 136.379 163.819 136.374 163.795C136.294 163.702 136.175 163.678 136.069 163.616C136.131 163.64 136.168 163.696 136.223 163.738C132.841 162.034 129.536 160.125 125.987 158.823C122.499 157.586 119.055 156.197 115.56 154.978C112.071 153.783 108.439 153 105.111 151.38C99.9721 148.713 94.7948 146.222 89.4255 144.124C84.5256 142.226 79.1671 139.116 73.4665 140.428L73.4455 140.483Z" fill="#D399A9" fill-opacity="0.4"/>
<path fill-rule="evenodd" clip-rule="evenodd" d="M48.1696 188.444C47.2182 192.239 46.7206 196.12 46.3932 199.98C46.0231 204.024 46.0166 208.32 44.3653 212.108C43.0518 214.505 41.241 217.43 38.7285 218.427C39.7497 218.585 41.9274 216.974 43.1016 216.014C48.4512 212.023 49.6441 204.88 50.5047 198.614C51.3077 189.719 53.3322 179.881 62.1009 175.781C66.9934 173.851 72.2218 175.03 77.1675 175.528C80.1555 175.915 83.1531 176.276 86.1412 176.663C92.1694 177.371 98.1307 178.54 104.221 178.727C112.019 178.615 120.031 178.01 127.521 175.288C121.793 176.213 115.93 175.711 110.156 175.616C102.594 175.675 95.243 174.322 87.8914 173.113C84.9223 172.676 81.9721 172.332 79.003 171.895C72.814 171.184 66.1724 169.528 60.1341 172.341C53.9963 175.347 49.8064 181.698 48.1886 188.393L48.1696 188.444Z" fill="#D399A9" fill-opacity="0.4"/>
<path fill-rule="evenodd" clip-rule="evenodd" d="M71.3264 268.121C68.7091 275.957 66.5954 285.387 70.9066 292.695C72.7181 295.617 75.5764 297.416 78.0511 299.586C82.1177 302.904 85.4734 307.242 87.0734 312.434C87.6426 314.426 88.4718 316.517 88.3409 318.646C88.2842 318.653 88.2228 318.601 88.1424 318.599C88.3314 318.671 88.4023 318.698 88.4783 318.497C88.8364 316.197 88.5468 313.823 88.2759 311.542C87.5846 305.806 84.9444 300.507 80.9164 296.66C75.0322 291.364 72.0648 289.781 72.3433 280.629C72.9139 269.066 78.7131 258.538 85.6163 249.661C91.2825 242.694 98.6576 237.636 105.282 231.777C110.065 227.57 114.507 222.977 118.902 218.365C125.135 212.043 130.735 204.821 134.101 196.438C135.045 194.159 135.928 191.828 136.286 189.385C136.049 189.868 135.888 190.437 135.665 190.955C131.344 199.721 125.199 207.453 118.662 214.577C113.376 220.112 108.029 225.595 102.201 230.495C97.2481 234.723 91.9225 238.437 87.2388 243.025C80.3288 250.065 74.835 258.789 71.3123 268.087L71.3264 268.121Z" fill="#D399A9" fill-opacity="0.4"/>
<path fill-rule="evenodd" clip-rule="evenodd" d="M159.318 191.004C166.93 207.358 176.499 212.559 190.98 221.055C201.398 226.865 212.955 230.384 222.909 237.135C228.937 240.91 233.44 246.571 237.749 252.244C242.554 258.535 246.937 265.154 250.482 272.344C252.919 277.538 254.963 282.984 256.028 288.661C256.26 282.558 254.921 276.319 252.806 270.703C249.716 263.026 245.134 256.217 240.344 249.674C236.691 244.765 232.849 239.927 228.103 236.123C219.067 229.231 208.57 224.767 198.306 220.191C183.814 213.009 169.091 204.651 159.356 191.047L159.318 191.004Z" fill="#D399A9" fill-opacity="0.4"/>
<path fill-rule="evenodd" clip-rule="evenodd" d="M165.889 173.803C172.624 175.925 179.798 176.178 186.863 175.931C193.933 175.601 201.018 174.588 207.991 173.017C219.146 170.25 229.814 167.413 240.728 164.068C250.469 161.109 260.333 158.541 270.351 157.207C277.563 156.357 284.711 154.966 291.905 153.88C303.2 152.456 316.777 154.992 322.525 165.997C323.638 168.339 324.249 170.863 324.883 173.396C326.237 178.667 327.629 183.98 329.773 188.948C330.975 191.696 332.409 194.332 333.786 196.974C334.913 199.063 336.03 201.321 337.593 202.973C336.493 201.382 335.782 199.335 335.123 197.509C333.324 192.414 331.691 187.239 330.673 181.866C327.753 170.815 328.234 161.912 318.447 154.793C309.675 148.203 298.029 147.488 287.391 149.39C280.485 150.643 273.528 151.532 266.584 152.598C256.168 154.556 245.944 157.647 235.843 161.128C227.043 163.956 218.187 166.648 209.33 169.196C200.758 171.566 192.06 172.627 183.325 173.358C177.503 173.961 171.596 174.36 165.856 173.819L165.889 173.803Z" fill="#D399A9" fill-opacity="0.4"/>
<path fill-rule="evenodd" clip-rule="evenodd" d="M160.238 154.839C160.639 154.991 161.117 154.8 161.51 154.69C164.107 153.898 166.592 152.689 168.93 151.225C175.193 146.892 180.432 141.052 185.146 134.957C192.47 126.039 198.514 116.148 204.407 106.229C220.241 80.1286 228.404 63.3602 260.948 63.7673C268.23 63.6605 275.523 63.0989 282.81 62.9079C275.677 61.409 268.459 59.5626 261.116 58.9015C246.619 57.5076 230.94 62.3722 220.576 73.8933C214.333 80.8138 209.923 89.1738 205.078 97.1113C200.053 105.382 195.288 113.894 190.079 122.009C185.23 129.457 179.847 136.532 174.082 143.261C170.69 147.364 167.076 151.411 162.438 153.953C161.742 154.291 160.971 154.83 160.247 154.814L160.238 154.839Z" fill="#D399A9" fill-opacity="0.4"/>
<path fill-rule="evenodd" clip-rule="evenodd" d="M147.541 65.5978C142.064 79.1994 144.682 93.1168 146.666 106.852C147.965 117.403 149.722 128.1 149.144 138.829C148.77 145.164 148.339 151.65 146.32 157.764C150.494 149.887 152.847 138.541 152.79 128.918C152.493 115.937 150.039 103.228 148.743 90.3853C147.727 80.2275 149.162 69.4504 154.581 60.4979C158.487 54.1823 164.23 49.2221 170.449 45.6457C175.603 42.9554 180.771 40.2991 185.595 36.9106C182.993 37.7876 180.286 38.797 177.613 39.504C174.439 40.2503 171.241 40.9876 168.255 42.3784C158.914 46.9212 151.25 55.5961 147.565 65.6067L147.541 65.5978Z" fill="#D399A9" fill-opacity="0.4"/>
<path fill-rule="evenodd" clip-rule="evenodd" d="M89.342 104.593C84.7679 121.231 100.079 134.454 111.52 142.629C116.598 146.13 121.781 149.497 126.57 153.404C129.885 156.351 132.973 160.043 134.536 164.332C134.574 164.518 134.578 164.721 134.568 164.889L134.616 164.907C134.863 164.255 134.599 163.525 134.501 162.857C133.856 160.349 132.834 157.984 131.769 155.66C128.488 148.771 122.238 144.369 116.338 140.184C110.528 135.977 104.845 131.503 100.063 126.08C97.8633 123.613 95.9239 120.814 94.5287 117.792C92.0579 113.044 90.1179 107.466 91.6064 101.897C92.1337 100.291 92.8123 98.7138 93.505 97.1707C91.8702 99.4173 90.0413 101.82 89.3561 104.627L89.342 104.593Z" fill="#D399A9" fill-opacity="0.4"/>
</svg>
